<?xml version="1.0" standalone="no"?>
<!DOCTYPE svg PUBLIC "-//W3C//DTD SVG 1.1//EN" "http://www.w3.org/Graphics/SVG/1.1/DTD/svg11.dtd" >
<svg xmlns="http://www.w3.org/2000/svg" xmlns:xlink="http://www.w3.org/1999/xlink" version="1.1">
<metadata>
Created by FontForge 20170731 at Mon May 17 20:20:39 2021
 By Aleksey,,,
Copyright (C) 2001, 2011 Hoefler &#38; Co. http://www.typography.com |DCNT
</metadata>
<defs>
<font id="Gotham-LightItalic" horiz-adv-x="1228" >
  <font-face 
    font-family="Gotham Light"
    font-weight="300"
    font-style="italic"
    font-stretch="normal"
    units-per-em="2048"
    panose-1="0 0 0 0 0 0 0 0 0 0"
    ascent="1638"
    descent="-410"
    x-height="1044"
    cap-height="1434"
    bbox="-625 -461 2470 2019"
    underline-thickness="102"
    underline-position="-307"
    slope="-15"
    unicode-range="U+0020-FB04"
  />
<missing-glyph horiz-adv-x="1024" 
d="M0 -410v2048h1024v-2048h-1024zM102 -156l353 770l-353 770v-1540zM145 -307h734l-367 799zM512 737l367 799h-734zM922 -156v1540l-353 -770z" />
    <glyph glyph-name="f_f" unicode="ff" horiz-adv-x="1482" 
d="M113 0l256 952h-152l25 92h151l41 152q35 135 113 213q86 86 221 86q119 0 209 -49l-25 -90q-107 49 -188 49q-178 0 -236 -231l-34 -130h376l-24 -92h-377l-256 -952h-100zM854 0l256 952h-152l25 92h152l41 152q36 137 112 213q86 86 221 86q119 0 209 -49l-24 -90
q-107 49 -189 49q-177 0 -235 -231l-35 -130h377l-25 -92h-377l-256 -952h-100z" />
    <glyph glyph-name="fi" unicode="fi" horiz-adv-x="1253" 
d="M807 0l280 1044h101l-281 -1044h-100zM1149 1317l37 137h125l-37 -137h-125zM113 0l256 952h-152l25 92h151l41 152q35 135 113 213q86 86 221 86q119 0 209 -49l-25 -90q-107 49 -188 49q-178 0 -236 -231l-34 -130h376l-24 -92h-377l-256 -952h-100z" />
    <glyph glyph-name="fl" unicode="fl" horiz-adv-x="1253" 
d="M807 0l401 1495h101l-402 -1495h-100zM113 0l256 952h-152l25 92h151l41 152q35 135 113 213q86 86 221 86q119 0 209 -49l-25 -90q-107 49 -188 49q-178 0 -236 -231l-34 -130h376l-24 -92h-377l-256 -952h-100z" />
    <glyph glyph-name="f_f_i" unicode="ffi" horiz-adv-x="1994" 
d="M113 0l256 952h-152l25 92h151l41 152q35 135 113 213q86 86 221 86q119 0 209 -49l-25 -90q-107 49 -188 49q-178 0 -236 -231l-34 -130h376l-24 -92h-377l-256 -952h-100zM854 0l256 952h-152l25 92h152l41 152q36 137 112 213q86 86 221 86q119 0 209 -49l-24 -90
q-107 49 -189 49q-177 0 -235 -231l-35 -130h377l-25 -92h-377l-256 -952h-100zM1548 0l281 1044h100l-280 -1044h-101zM1890 1317l37 137h125l-37 -137h-125z" />
    <glyph glyph-name="f_f_l" unicode="ffl" horiz-adv-x="1994" 
d="M113 0l256 952h-152l25 92h151l41 152q35 135 113 213q86 86 221 86q119 0 209 -49l-25 -90q-107 49 -188 49q-178 0 -236 -231l-34 -130h376l-24 -92h-377l-256 -952h-100zM854 0l256 952h-152l25 92h152l41 152q36 137 112 213q86 86 221 86q119 0 209 -49l-24 -90
q-107 49 -189 49q-177 0 -235 -231l-35 -130h377l-25 -92h-377l-256 -952h-100zM1548 0l402 1495h100l-401 -1495h-101z" />
    <glyph glyph-name=".notdef" horiz-adv-x="1024" 
d="M0 -410v2048h1024v-2048h-1024zM102 -156l353 770l-353 770v-1540zM145 -307h734l-367 799zM512 737l367 799h-734zM922 -156v1540l-353 -770z" />
    <glyph glyph-name=".null" horiz-adv-x="0" 
 />
    <glyph glyph-name="nonmarkingreturn" horiz-adv-x="682" 
 />
    <glyph glyph-name="space" unicode=" " horiz-adv-x="614" 
 />
    <glyph glyph-name="exclam" unicode="!" horiz-adv-x="514" 
d="M188 375l215 915l39 144h119l-39 -144l-276 -915h-58zM49 0l47 174h135l-47 -174h-135z" />
    <glyph glyph-name="quotedbl" unicode="&#x22;" horiz-adv-x="839" 
d="M207 913l190 521h129v-11l-260 -510h-59zM575 913l191 521h129v-11l-260 -510h-60z" />
    <glyph glyph-name="numbersign" unicode="#" horiz-adv-x="1433" 
d="M1251 479l-18 -96h-270l-134 -383h-98l131 383h-422l-133 -383h-98l133 383h-258l18 96h273l168 484h-258l18 96h272l132 375h98l-131 -375h424l131 375h98l-131 -375h256l-18 -96h-271l-168 -484h256zM641 963l-168 -484h422l170 484h-424z" />
    <glyph glyph-name="dollar" unicode="$" horiz-adv-x="1265" 
d="M870 1552h101l-37 -137q214 -44 352 -182l-74 -74q-125 125 -313 164l-149 -557q189 -71 272 -153t82 -207q0 -176 -145.5 -291t-376.5 -115h-39l-54 -201h-100l57 211q-142 23 -257.5 85t-190.5 155l78 67q147 -176 405 -213l158 590q-202 75 -284.5 153t-82.5 204
q0 165 136.5 274t339.5 109q26 0 88 -4zM995 395q0 87 -61 149.5t-211 121.5l-154 -570h33h2q175 0 283 85t108 214zM381 1061q0 -90 64.5 -147.5t220.5 -116.5l145 536q-50 4 -74 4h-2q-155 0 -254.5 -79.5t-99.5 -196.5z" />
    <glyph glyph-name="percent" unicode="%" horiz-adv-x="1681" 
d="M471 709q-123 0 -202 83.5t-79 208.5q0 198 140 338q111 111 252 111q123 0 201.5 -84t78.5 -209q0 -199 -139 -338q-110 -110 -252 -110zM1204 -16q-123 0 -201.5 83.5t-78.5 208.5q0 199 139 338q111 111 252 111q123 0 201.5 -84t78.5 -209q0 -199 -139 -338
q-110 -110 -252 -110zM1212 72q92 0 170 78q54 54 83.5 125.5t29.5 146.5q0 100 -48.5 157.5t-139.5 57.5q-92 0 -170 -78q-54 -54 -83.5 -125.5t-29.5 -146.5q0 -100 48.5 -157.5t139.5 -57.5zM479 797q93 0 170 77q54 54 83.5 126t29.5 147q0 100 -49 157.5t-140 57.5
q-92 0 -170 -78q-54 -54 -83 -125t-29 -147q0 -100 48.5 -157.5t139.5 -57.5zM133 0l1397 1434h123l-1397 -1434h-123z" />
    <glyph glyph-name="ampersand" unicode="&#x26;" horiz-adv-x="1413" 
d="M1247 698l80 -47q-139 -232 -260 -364l184 -262l-80 -54l-174 248q-125 -125 -246 -182t-278 -57q-178 0 -294 95.5t-116 262.5q0 174 126.5 297.5t375.5 189.5q-96 155 -96 273q0 152 111.5 256t265.5 104t245 -81t91 -216q0 -61 -22.5 -113.5t-74 -104t-144.5 -96.5
t-224 -81l293 -412q117 133 237 344zM485 74q126 0 235.5 53t221.5 162l-326 461q-223 -53 -333.5 -159.5t-110.5 -240.5q0 -128 85 -202t228 -74zM573 1100q0 -65 21.5 -123.5t73.5 -134.5q409 106 409 315q0 95 -63.5 153t-171.5 58q-109 0 -189 -78.5t-80 -189.5z" />
    <glyph glyph-name="quotesingle" unicode="'" horiz-adv-x="471" 
d="M207 913l190 521h129v-11l-260 -510h-59z" />
    <glyph glyph-name="parenleft" unicode="(" horiz-adv-x="880" 
d="M616 -227l-57 -60q-356 315 -356 733q0 191 75.5 371t227.5 332q194 194 508 324l35 -76q-282 -120 -461 -299q-142 -142 -210.5 -308.5t-68.5 -340.5q0 -111 23 -209t68.5 -181t95.5 -148.5t120 -137.5z" />
    <glyph glyph-name="parenright" unicode=")" horiz-adv-x="880" 
d="M303 1415l57 60q357 -330 357 -734q0 -191 -75.5 -370.5t-227.5 -331.5q-194 -194 -508 -324l-35 76q282 120 461 299q142 142 210 308.5t68 340.5q0 111 -23 209t-68.5 181t-95.5 148.5t-120 137.5z" />
    <glyph glyph-name="asterisk" unicode="*" horiz-adv-x="880" 
d="M553 831l-84 21l86 248l-248 -86l-24 84l264 49l-205 172l64 61l172 -198l49 256l84 -21l-86 -248l247 86l25 -84l-264 -49l205 -172l-64 -61l-172 198z" />
    <glyph glyph-name="plus" unicode="+" horiz-adv-x="1269" 
d="M506 231l119 441h-445l27 98h444l119 440h102l-118 -440h444l-27 -98h-444l-119 -441h-102z" />
    <glyph glyph-name="comma" unicode="," horiz-adv-x="473" 
d="M-66 -217l-14 49q75 26 114 67t50 101h-55l47 174h135l-41 -151q-33 -107 -83.5 -159t-152.5 -81z" />
    <glyph glyph-name="hyphen" unicode="-" horiz-adv-x="837" 
d="M152 551l30 115h549l-31 -115h-548z" />
    <glyph glyph-name="period" unicode="." horiz-adv-x="471" 
d="M29 0l47 174h135l-47 -174h-135z" />
    <glyph glyph-name="slash" unicode="/" horiz-adv-x="1024" 
d="M-248 -262l1467 1896h110l-1466 -1896h-111z" />
    <glyph glyph-name="zero" unicode="0" horiz-adv-x="1452" 
d="M905 1458q154 0 264.5 -71t163.5 -190.5t53 -274.5q0 -210 -79.5 -411.5t-216.5 -338.5q-197 -197 -441 -197q-154 0 -264.5 71.5t-163.5 191t-53 274.5q0 210 80 411.5t217 338.5q196 196 440 196zM655 72q188 0 349 161q124 124 198 310t74 379q0 125 -40.5 222.5
t-127.5 157.5t-209 60q-186 0 -348 -162q-124 -124 -198 -309.5t-74 -378.5t97.5 -316.5t278.5 -123.5z" />
    <glyph glyph-name="one" unicode="1" horiz-adv-x="684" 
d="M190 0l355 1321l-301 -94l-4 96l360 121h84l-387 -1444h-107z" />
    <glyph glyph-name="two" unicode="2" horiz-adv-x="1204" 
d="M-39 0l19 80l839 665q132 105 192 187.5t60 177.5q0 109 -81.5 178.5t-225.5 69.5q-214 0 -410 -205l-75 66q228 235 489 235q184 0 299 -94.5t115 -247.5q0 -119 -72.5 -217t-224.5 -219l-725 -574h827l-26 -102h-1000z" />
    <glyph glyph-name="three" unicode="3" horiz-adv-x="1241" 
d="M512 -25q-180 0 -305 74t-187 207l89 49q120 -233 409 -233q190 0 315 101.5t125 258.5q0 136 -106 204.5t-295 68.5h-59l-23 53l639 575h-768l29 101h921l-20 -76l-629 -567q118 -5 212 -45t153 -119.5t59 -186.5q0 -172 -125 -297q-79 -79 -192.5 -123.5t-241.5 -44.5z
" />
    <glyph glyph-name="four" unicode="4" horiz-adv-x="1320" 
d="M756 0l94 350h-776l-17 80l1092 1014h98l-268 -1002h233l-24 -92h-234l-94 -350h-104zM203 442h671l224 832z" />
    <glyph glyph-name="five" unicode="5" horiz-adv-x="1230" 
d="M516 -25q-314 0 -483 256l88 56q148 -219 401 -219q102 0 190 33.5t147 89.5t92.5 128t33.5 150q0 144 -96.5 225.5t-247.5 81.5q-166 0 -330 -90l-67 53l227 695h774l-28 -103h-680l-177 -526q45 25 132 46t149 21q210 0 332.5 -107.5t122.5 -291.5q0 -190 -140 -330
q-168 -168 -440 -168z" />
    <glyph glyph-name="six" unicode="6" horiz-adv-x="1310" 
d="M649 -25q-102 0 -190.5 35t-149.5 96q-139 139 -139 396q0 229 79 425.5t208 325.5q205 205 458 205q259 0 418 -190l-78 -68q-142 162 -346 162q-202 0 -370 -168q-101 -101 -169.5 -248t-80.5 -297q71 106 185 174t261 68q106 0 194 -34.5t145 -92.5t88.5 -133
t31.5 -158q0 -195 -141 -336q-162 -162 -404 -162zM655 70q187 0 312 125q116 116 116 278q0 59 -21.5 114.5t-63.5 102t-111.5 75t-157.5 28.5q-199 0 -328 -129v-2q-53 -50 -81.5 -116.5t-28.5 -133.5q0 -148 94 -242q100 -100 270 -100z" />
    <glyph glyph-name="seven" unicode="7" horiz-adv-x="1183" 
d="M164 0l964 1331h-825l29 103h950l-22 -78l-973 -1356h-123z" />
    <glyph glyph-name="eight" unicode="8" horiz-adv-x="1312" 
d="M604 -20q-232 0 -377 108t-145 266q0 166 121.5 270.5t316.5 135.5q-96 34 -157.5 113.5t-61.5 191.5q0 109 67.5 198.5t184.5 140t258 50.5q207 0 341 -103t134 -264q0 -98 -51.5 -177.5t-134 -127.5t-185.5 -67q103 -35 177.5 -122t74.5 -202q0 -118 -74 -212.5
t-202.5 -146.5t-286.5 -52zM610 76q201 0 324 89t123 230q0 122 -114 208.5t-300 86.5q-204 0 -327 -94.5t-123 -228.5q0 -129 114 -210t303 -81zM768 778q97 0 177 26.5t129 70t75.5 97t26.5 109.5q0 122 -102 199.5t-263 77.5q-177 0 -288 -86t-111 -215q0 -120 99 -199.5
t257 -79.5z" />
    <glyph glyph-name="nine" unicode="9" horiz-adv-x="1310" 
d="M498 -25q-133 0 -242.5 54t-187.5 149l77 68q77 -85 162.5 -129.5t196.5 -44.5q200 0 368 168q101 101 169.5 244.5t80.5 293.5q-171 -252 -450 -252q-107 0 -194.5 35t-144 94.5t-87.5 136t-31 160.5q0 197 147 344q162 162 402 162q102 0 189.5 -35t148.5 -96
q139 -139 139 -395q0 -229 -79 -426t-208 -326q-205 -205 -456 -205zM686 625q189 0 318 129v2q54 51 85 123.5t31 146.5q0 142 -94 236q-102 102 -270 102q-184 0 -307 -123q-120 -120 -123 -289q0 -62 21 -118.5t63 -104t113.5 -76t162.5 -28.5z" />
    <glyph glyph-name="colon" unicode=":" horiz-adv-x="493" 
d="M39 0l47 174h135l-47 -174h-135zM272 870l47 174h136l-47 -174h-136z" />
    <glyph glyph-name="semicolon" unicode=";" horiz-adv-x="493" 
d="M-55 -217l-15 49q75 26 114 67t50 101h-55l47 174h135l-41 -151q-33 -107 -83 -159t-152 -81zM272 870l47 174h136l-47 -174h-136z" />
    <glyph glyph-name="less" unicode="&#x3c;" horiz-adv-x="1269" 
d="M987 186l-819 494l22 82l1084 493l-31 -120l-938 -422l711 -426z" />
    <glyph glyph-name="equal" unicode="=" horiz-adv-x="1269" 
d="M145 438l29 105h930l-29 -105h-930zM270 899l27 105h930l-27 -105h-930z" />
    <glyph glyph-name="greater" unicode="&#x3e;" horiz-adv-x="1269" 
d="M104 186l31 121l938 422l-711 426l29 100l819 -493l-22 -82z" />
    <glyph glyph-name="question" unicode="?" horiz-adv-x="1093" 
d="M397 375l62 332l14 10q232 18 372 116.5t140 258.5q0 125 -88 194.5t-223 69.5q-116 0 -220 -51t-182 -129l-65 69q207 207 475 207q188 0 300 -100t112 -258q0 -97 -44 -179t-120 -139t-172 -93.5t-207 -51.5l-88 -256h-66zM262 0l47 174h135l-47 -174h-135z" />
    <glyph glyph-name="at" unicode="@" horiz-adv-x="2007" 
d="M995 -330q-194 0 -354.5 58t-271.5 162.5t-172.5 254t-61.5 328.5q0 130 36.5 256t101.5 234t158 200t203 157t240.5 101.5t266.5 36.5q186 0 338.5 -56t253 -154t155 -230t54.5 -283q0 -112 -26.5 -209t-69.5 -164.5t-98.5 -116.5t-113.5 -72t-114 -23q-108 0 -171 54
t-77 150q-164 -209 -381 -209q-137 0 -229.5 93t-92.5 247q0 109 43 210.5t112.5 173.5t160 115.5t182.5 43.5q122 0 200.5 -62.5t114.5 -158.5l62 201l96 -27l-154 -496q-16 -59 -16 -98q0 -72 41.5 -117t118.5 -45q54 0 111.5 31.5t109.5 91t85.5 161t33.5 226.5
q0 110 -31.5 209.5t-93.5 181t-149 141.5t-203.5 93t-251.5 33q-189 0 -362.5 -75t-298 -200t-199 -294.5t-74.5 -350.5q0 -332 215.5 -534.5t572.5 -202.5q221 0 424 92l29 -59q-214 -99 -453 -99zM911 242q102 0 200 60.5t160 159.5t62 204q0 119 -70.5 192.5t-191.5 73.5
q-104 0 -193.5 -60.5t-141.5 -163t-52 -219.5q0 -116 63 -181.5t164 -65.5z" />
    <glyph glyph-name="A" unicode="A" horiz-adv-x="1554" 
d="M-70 0l1055 1444h102l281 -1444h-108l-74 401h-846l-291 -401h-119zM410 498h755l-153 829z" />
    <glyph glyph-name="B" unicode="B" horiz-adv-x="1468" 
d="M74 0l385 1434h530q197 0 313.5 -87t116.5 -239t-107 -254t-272 -133q124 -32 199.5 -105.5t75.5 -193.5q0 -187 -161.5 -304.5t-434.5 -117.5h-645zM207 98h518q222 0 351.5 86.5t129.5 237.5q0 123 -104.5 187.5t-274.5 64.5h-467zM387 772h442q217 0 348.5 90
t131.5 236q0 117 -86.5 177t-243.5 60h-440z" />
    <glyph glyph-name="C" unicode="C" horiz-adv-x="1511" 
d="M774 -27q-119 0 -225.5 40.5t-186.5 114t-127 184.5t-47 243q0 183 73 352.5t204 300.5q118 118 266.5 184t312.5 66q187 0 322 -85t205 -224l-92 -49q-76 130 -178 196t-263 66q-139 0 -264 -55.5t-225 -155.5q-118 -118 -184 -273t-66 -319q0 -222 136 -354.5
t349 -132.5q151 0 265.5 54.5t220.5 160.5l71 -66q-112 -115 -248 -181.5t-319 -66.5z" />
    <glyph glyph-name="D" unicode="D" horiz-adv-x="1579" 
d="M74 0l385 1434h321q172 0 316.5 -48.5t240.5 -144.5q158 -158 158 -410q0 -332 -223 -555q-131 -131 -320 -203.5t-409 -72.5h-469zM1251 1174q-161 161 -477 161h-235l-332 -1237h350q389 0 635 246q192 192 192 479q0 221 -133 351z" />
    <glyph glyph-name="E" unicode="E" horiz-adv-x="1329" 
d="M74 0l385 1434h1009l-26 -99h-903l-152 -563h811l-27 -98h-811l-153 -576h913l-26 -98h-1020z" />
    <glyph glyph-name="F" unicode="F" horiz-adv-x="1343" 
d="M74 0l385 1434h1009l-26 -99h-903l-158 -587h811l-27 -99h-811l-174 -649h-106z" />
    <glyph glyph-name="G" unicode="G" horiz-adv-x="1609" 
d="M811 -27q-178 0 -318 73.5t-220 212t-80 319.5q0 172 70 334t198 290q256 256 606 256q106 0 192.5 -21.5t148.5 -61t104.5 -83t78.5 -100.5l-84 -55q-34 51 -70.5 88.5t-89.5 70t-126 49.5t-164 17q-295 0 -514 -219q-113 -113 -176.5 -260.5t-63.5 -300.5
q0 -236 142 -374t372 -138q237 0 414 116l131 459h-477l26 98h582l-176 -616q-121 -78 -242 -116t-264 -38z" />
    <glyph glyph-name="H" unicode="H" horiz-adv-x="1548" 
d="M74 0l385 1434h106l-178 -664h907l179 664h106l-385 -1434h-107l181 672h-908l-180 -672h-106z" />
    <glyph glyph-name="I" unicode="I" horiz-adv-x="561" 
d="M88 0l385 1434h107l-385 -1434h-107z" />
    <glyph glyph-name="J" unicode="J" horiz-adv-x="1122" 
d="M401 -20q-169 0 -270 90t-141 239l94 33q42 -134 117 -200t196 -66q154 0 260 106q99 99 160 314l252 938h107l-256 -953q-62 -237 -191 -366q-65 -65 -152 -100t-176 -35z" />
    <glyph glyph-name="K" unicode="K" horiz-adv-x="1462" 
d="M74 0l385 1434h106l-250 -932l1147 932h158l-797 -641l434 -793h-122l-400 731l-459 -373l-96 -358h-106z" />
    <glyph glyph-name="L" unicode="L" 
d="M74 0l385 1434h106l-358 -1336h842l-27 -98h-948z" />
    <glyph glyph-name="M" unicode="M" horiz-adv-x="1779" 
d="M74 0l385 1434h88l348 -848l803 848h112l-385 -1434h-106l334 1245l-789 -825h-8l-346 825l-334 -1245h-102z" />
    <glyph glyph-name="N" unicode="N" horiz-adv-x="1611" 
d="M74 0l385 1434h98l645 -1256l338 1256h102l-385 -1434h-77l-660 1282l-344 -1282h-102z" />
    <glyph glyph-name="O" unicode="O" horiz-adv-x="1732" 
d="M1022 1458q176 0 318.5 -82t221 -222.5t78.5 -311.5q0 -176 -69.5 -339t-194.5 -288q-113 -113 -258.5 -177.5t-302.5 -64.5q-132 0 -248 48.5t-196.5 131t-127 196t-46.5 241.5q0 176 69.5 339t194.5 288q113 113 258 177t303 64zM815 70q137 0 259.5 54.5t219.5 151.5
q111 111 173.5 259.5t62.5 306.5q0 223 -142 371.5t-366 148.5q-137 0 -259.5 -55t-219.5 -152q-111 -111 -173.5 -259t-62.5 -306q0 -223 142 -371.5t366 -148.5z" />
    <glyph glyph-name="P" unicode="P" horiz-adv-x="1357" 
d="M74 0l385 1434h446q266 0 395 -129q99 -99 99 -256q0 -197 -129 -326q-186 -186 -580 -186h-364l-146 -537h-106zM1219 1235q-100 100 -316 100h-364l-189 -702h344q347 0 498 151q100 100 100 260q0 118 -73 191z" />
    <glyph glyph-name="Q" unicode="Q" horiz-adv-x="1732" 
d="M1022 1458q176 0 318.5 -82t221 -222.5t78.5 -311.5q0 -176 -70.5 -339t-195.5 -288l-33 -33l154 -166l-78 -65l-147 174q-207 -152 -455 -152q-132 0 -248 48.5t-196.5 131t-127 196t-46.5 241.5q0 176 69.5 339t194.5 288q113 113 258 177t303 64zM815 70
q207 0 389 129l-239 266l77 67l234 -274l18 18q111 111 173.5 259.5t62.5 306.5q0 223 -142 371.5t-366 148.5q-137 0 -259.5 -55t-219.5 -152q-111 -111 -173.5 -259t-62.5 -306q0 -223 142 -371.5t366 -148.5z" />
    <glyph glyph-name="R" unicode="R" horiz-adv-x="1460" 
d="M1092 0l-308 594h-59h-385l-160 -594h-106l385 1434h514q258 0 385 -127q90 -90 90 -234q0 -172 -127 -299q-139 -139 -422 -170l315 -604h-122zM365 690h430q304 0 450 146q96 96 96 231q0 107 -63 170q-98 98 -309 98h-430z" />
    <glyph glyph-name="S" unicode="S" horiz-adv-x="1306" 
d="M612 -20q-376 0 -571 274l82 59q94 -121 213 -179t287 -58q177 0 295 89t118 224q0 94 -68.5 155.5t-244.5 133.5q-228 89 -319 170.5t-91 210.5q0 141 105 246q149 149 409 149q157 0 287 -59.5t211 -159.5l-82 -66q-160 189 -426 189q-178 0 -286.5 -86t-108.5 -205
q0 -95 79 -159.5t263 -133.5q202 -75 291.5 -161.5t89.5 -215.5q0 -149 -113 -262q-74 -74 -181.5 -114.5t-238.5 -40.5z" />
    <glyph glyph-name="T" unicode="T" horiz-adv-x="1259" 
d="M428 0l358 1335h-499l26 99h1106l-26 -99h-500l-358 -1335h-107z" />
    <glyph glyph-name="U" unicode="U" horiz-adv-x="1548" 
d="M713 -23q-127 0 -226.5 34.5t-162 96t-95 143t-32.5 177.5q0 109 28 221l209 785h107l-222 -834q-18 -74 -18 -164q0 -162 106.5 -262t313.5 -100q203 0 350 147q134 134 201 381l223 832h107l-230 -854q-72 -267 -227 -422q-181 -181 -432 -181z" />
    <glyph glyph-name="V" unicode="V" horiz-adv-x="1462" 
d="M530 -10l-239 1444h110l203 -1319l914 1319h120l-1013 -1444h-95z" />
    <glyph glyph-name="W" unicode="W" horiz-adv-x="2199" 
d="M440 -10l-133 1444h111l108 -1276l762 1280h82l78 -1280l793 1276h118l-907 -1444h-86l-86 1245l-754 -1245h-86z" />
    <glyph glyph-name="X" unicode="X" horiz-adv-x="1417" 
d="M-47 0l749 741l-380 693h114l342 -631l635 631h137l-721 -711l394 -723h-115l-354 662l-664 -662h-137z" />
    <glyph glyph-name="Y" unicode="Y" horiz-adv-x="1368" 
d="M479 0l156 582l-375 852h117l330 -770l745 770h143l-862 -879l-147 -555h-107z" />
    <glyph glyph-name="Z" unicode="Z" horiz-adv-x="1355" 
d="M-39 0l16 59l1303 1278h-926l27 97h1092l-17 -60l-1302 -1278h966l-26 -96h-1133z" />
    <glyph glyph-name="bracketleft" unicode="[" horiz-adv-x="880" 
d="M33 -266l456 1700h560l-23 -78h-465l-414 -1544h465l-20 -78h-559z" />
    <glyph glyph-name="backslash" unicode="\" horiz-adv-x="1024" 
d="M754 -262l-453 1896h90l453 -1896h-90z" />
    <glyph glyph-name="bracketright" unicode="]" horiz-adv-x="882" 
d="M883 1434l-457 -1700h-559l22 78h465l414 1544h-465l21 78h559z" />
    <glyph glyph-name="asciicircum" unicode="^" horiz-adv-x="1024" 
d="M264 1010l438 430h91l208 -430h-96l-170 342l-354 -342h-117z" />
    <glyph glyph-name="underscore" unicode="_" 
d="M-233 -328l24 90h1239l-24 -90h-1239z" />
    <glyph glyph-name="grave" unicode="`" horiz-adv-x="1024" 
d="M754 1219l-162 211l127 61l106 -272h-71z" />
    <glyph glyph-name="a" unicode="a" horiz-adv-x="1169" 
d="M389 -25q-90 0 -166 31.5t-126 100t-50 161.5q0 148 100 248q131 131 371 131q204 0 402 -59l8 28q14 54 14 105q0 119 -81 182.5t-234 63.5q-143 0 -303 -56l-19 90q160 60 330 60q191 0 298 -86.5t107 -239.5q0 -70 -20 -137l-160 -598h-98l47 180q-169 -205 -420 -205
zM408 68q153 0 288 97t178 251l25 92q-192 49 -395 49q-179 0 -277 -98q-73 -73 -73 -178q0 -98 68.5 -155.5t185.5 -57.5z" />
    <glyph glyph-name="b" unicode="b" horiz-adv-x="1339" 
d="M639 -27q-85 0 -156 24t-120.5 66.5t-83.5 92.5t-56 110l-71 -266h-101l402 1495h100l-178 -655q191 229 434 229q181 0 300.5 -124.5t119.5 -315.5q0 -144 -52 -268.5t-145 -217.5q-81 -81 -182.5 -125.5t-210.5 -44.5zM635 68q186 0 321 135q78 78 121 186.5t43 226.5
q0 161 -90 260t-233 99q-95 0 -186.5 -42.5t-166.5 -117.5q-78 -78 -124 -178t-46 -205q0 -155 101 -259.5t260 -104.5z" />
    <glyph glyph-name="c" unicode="c" horiz-adv-x="1153" 
d="M557 -25q-69 0 -135 19t-124 57.5t-101.5 91.5t-69 126t-25.5 157q0 131 51 249.5t144 211.5q182 182 420 182q150 0 251.5 -70.5t157.5 -181.5l-86 -49q-58 98 -133 152.5t-196 54.5q-92 0 -178.5 -39.5t-155.5 -108.5q-77 -77 -121.5 -179.5t-44.5 -215.5
q0 -168 104 -265t248 -97q179 0 338 149l68 -65q-182 -179 -412 -179z" />
    <glyph glyph-name="d" unicode="d" horiz-adv-x="1341" 
d="M909 0l56 203q-191 -230 -435 -230q-181 0 -300 125t-119 316q0 289 196 485q81 81 182.5 125.5t210.5 44.5q85 0 156 -24t120.5 -66.5t83.5 -92.5t56 -110l193 719h100l-399 -1495h-101zM543 68q95 0 186 42t166 117q78 78 124 178t46 205q0 155 -100.5 260t-259.5 105
q-187 0 -322 -135q-78 -78 -121 -186.5t-43 -227.5q0 -160 90.5 -259t233.5 -99z" />
    <glyph glyph-name="e" unicode="e" horiz-adv-x="1193" 
d="M1073 487h-858q-4 -17 -4 -69q0 -155 93 -252.5t243 -97.5q110 0 198 36t170 103l58 -70q-93 -79 -194 -120.5t-234 -41.5q-194 0 -318.5 124t-124.5 315q0 132 54 258t149 221q176 176 402 176q126 0 217.5 -55.5t134.5 -144.5t43 -199q0 -94 -29 -183zM383 838
q-109 -109 -150 -260h758q8 24 8 86q0 135 -74.5 224t-219.5 89q-183 0 -322 -139z" />
    <glyph glyph-name="f" unicode="f" horiz-adv-x="741" 
d="M113 0l256 952h-152l25 92h151l41 152q35 135 113 213q86 86 221 86q119 0 209 -49l-25 -90q-107 49 -188 49q-178 0 -236 -231l-34 -130h376l-24 -92h-377l-256 -952h-100z" />
    <glyph glyph-name="g" unicode="g" horiz-adv-x="1339" 
d="M483 -332q-139 0 -269 52t-224 143l73 74q190 -175 424 -175q205 0 322 117q51 51 84 116t59 159l37 131q-194 -207 -430 -207q-84 0 -162 28t-139.5 78.5t-98 128.5t-36.5 170q0 238 170 408q86 86 195.5 132t226.5 46q287 0 407 -278l68 253h100l-243 -915
q-54 -201 -164 -311q-150 -150 -400 -150zM578 172q202 0 358 156q141 141 141 311q0 132 -101 233t-265 101q-94 0 -182 -37t-156 -105q-142 -142 -142 -342q0 -99 51 -173t128.5 -109t167.5 -35z" />
    <glyph glyph-name="h" unicode="h" horiz-adv-x="1251" 
d="M51 0l402 1495h100l-174 -645q92 107 182 163t213 56q156 0 249 -90t93 -242q0 -70 -22 -147l-156 -590h-100l159 598q17 66 17 129q0 117 -72 184.5t-197 67.5q-89 0 -178 -49t-159 -139.5t-99 -200.5l-157 -590h-101z" />
    <glyph glyph-name="i" unicode="i" horiz-adv-x="512" 
d="M66 0l280 1044h100l-280 -1044h-100zM408 1317l36 137h125l-37 -137h-124z" />
    <glyph glyph-name="j" unicode="j" horiz-adv-x="512" 
d="M-106 -334q-66 0 -130 21l25 90q66 -17 96 -17q115 0 154 142l307 1142h100l-309 -1150q-29 -109 -92.5 -168.5t-150.5 -59.5zM408 1317l36 137h125l-37 -137h-124z" />
    <glyph glyph-name="k" unicode="k" horiz-adv-x="1146" 
d="M51 0l402 1495h100l-297 -1108l811 657h145l-581 -466l311 -578h-117l-278 516l-328 -262l-67 -254h-101z" />
    <glyph glyph-name="l" unicode="l" horiz-adv-x="512" 
d="M66 0l401 1495h100l-401 -1495h-100z" />
    <glyph glyph-name="m" unicode="m" horiz-adv-x="1953" 
d="M51 0l279 1044h100l-51 -194q44 53 80 88t82 67.5t98.5 48t114.5 15.5q68 0 123.5 -22t91.5 -59.5t58.5 -81.5t31.5 -93q158 256 438 256q142 0 234 -93t92 -239q0 -53 -27 -147l-156 -590h-100l160 598q16 62 16 129q0 117 -66.5 184.5t-181.5 67.5
q-128 0 -249.5 -112.5t-165.5 -276.5l-156 -590h-100l159 598q17 66 17 129q0 117 -66.5 184.5t-181.5 67.5q-128 0 -250 -112.5t-166 -276.5l-157 -590h-101z" />
    <glyph glyph-name="n" unicode="n" horiz-adv-x="1251" 
d="M51 0l279 1044h100l-51 -194q92 107 182 163t213 56q156 0 249 -90t93 -242q0 -70 -22 -147l-156 -590h-100l159 598q17 66 17 129q0 117 -72 184.5t-197 67.5q-89 0 -178 -49t-159 -139.5t-99 -200.5l-157 -590h-101z" />
    <glyph glyph-name="o" unicode="o" horiz-adv-x="1294" 
d="M569 -25q-206 0 -335.5 130.5t-129.5 332.5q0 125 50.5 240t140.5 205q88 88 198.5 137t231.5 49q206 0 335.5 -130.5t129.5 -332.5q0 -125 -50.5 -239.5t-140.5 -204.5q-88 -88 -199 -137.5t-231 -49.5zM580 70q189 0 338 149q77 77 120 176t43 207q0 176 -99.5 274.5
t-266.5 98.5q-188 0 -338 -150q-77 -77 -120.5 -176t-43.5 -207q0 -176 100 -274t267 -98z" />
    <glyph glyph-name="p" unicode="p" horiz-adv-x="1339" 
d="M639 -27q-85 0 -156 24t-120.5 66.5t-83.5 92.5t-56 110l-160 -594h-100l367 1372h100l-55 -204q191 229 434 229q181 0 300.5 -124.5t119.5 -315.5q0 -144 -52 -268.5t-145 -217.5q-81 -81 -182.5 -125.5t-210.5 -44.5zM635 68q186 0 321 135q78 78 121 186.5t43 226.5
q0 161 -90 260t-233 99q-95 0 -186.5 -42.5t-166.5 -117.5q-78 -78 -124 -178t-46 -205q0 -155 101 -259.5t260 -104.5z" />
    <glyph glyph-name="q" unicode="q" horiz-adv-x="1339" 
d="M530 -27q-181 0 -300 125t-119 316q0 289 196 485q81 81 182.5 125.5t210.5 44.5q85 0 156 -24t120.5 -66.5t83.5 -92.5t56 -110l72 268h100l-366 -1372h-101l144 531q-191 -230 -435 -230zM543 68q95 0 186 42t166 117q78 78 124 178t46 205q0 155 -100.5 260
t-259.5 105q-187 0 -322 -135q-78 -78 -121 -186.5t-43 -227.5q0 -160 90.5 -259t233.5 -99z" />
    <glyph glyph-name="r" unicode="r" horiz-adv-x="811" 
d="M51 0l279 1044h100l-78 -296q232 327 537 313l-29 -111h-8q-91 0 -181.5 -35t-169 -100t-141 -165t-94.5 -222l-114 -428h-101z" />
    <glyph glyph-name="s" unicode="s" horiz-adv-x="1013" 
d="M444 -23q-261 0 -442 181l72 71q162 -159 383 -159q105 0 187.5 58t82.5 148q0 64 -49 112t-178 95q-156 58 -224.5 120t-68.5 161q0 128 107 215.5t280 87.5q104 0 205 -39.5t172 -99.5l-66 -76q-65 54 -149.5 88.5t-171.5 34.5q-125 0 -198 -58t-73 -137
q0 -63 47.5 -106.5t188.5 -98.5q155 -62 220 -126t65 -156q0 -135 -114 -225.5t-276 -90.5z" />
    <glyph glyph-name="t" unicode="t" horiz-adv-x="811" 
d="M422 -18q-111 0 -180.5 51.5t-69.5 154.5q0 47 12 101l178 663h-151l25 92h151l90 334h101l-91 -334h361l-25 -92h-360l-178 -665q-11 -50 -11 -88q0 -125 170 -125q73 0 152 32l-27 -98q-62 -26 -147 -26z" />
    <glyph glyph-name="u" unicode="u" horiz-adv-x="1253" 
d="M477 -25q-156 0 -249 90t-93 242q0 67 23 148l155 589h101l-160 -598q-16 -62 -16 -129q0 -117 71.5 -184t196.5 -67q89 0 178 49t159 139.5t99 200.5l158 589h100l-278 -1044h-101l51 195q-86 -105 -179 -162.5t-216 -57.5z" />
    <glyph glyph-name="v" unicode="v" horiz-adv-x="1140" 
d="M367 -8l-185 1052h109l145 -931l639 931h123l-745 -1052h-86z" />
    <glyph glyph-name="w" unicode="w" horiz-adv-x="1730" 
d="M303 -8l-100 1052h102l76 -909l559 914h80l72 -914l563 909h110l-665 -1052h-88l-72 895l-553 -895h-84z" />
    <glyph glyph-name="x" unicode="x" horiz-adv-x="1144" 
d="M360 1044l230 -440l459 440h135l-549 -512l289 -532h-115l-242 469l-491 -469h-135l581 541l-276 503h114z" />
    <glyph glyph-name="y" unicode="y" horiz-adv-x="1163" 
d="M387 2l-213 1042h109l180 -933l627 933h122l-743 -1081q-114 -163 -212 -230t-216 -67q-117 0 -221 72l55 78q84 -60 178 -60q83 0 162 55.5t172 190.5z" />
    <glyph glyph-name="z" unicode="z" horiz-adv-x="1118" 
d="M-35 0l17 57l972 897h-704l24 90h869l-17 -57l-972 -897h739l-25 -90h-903z" />
    <glyph glyph-name="braceleft" unicode="{" horiz-adv-x="983" 
d="M668 -225l-29 -64q-87 18 -151.5 53.5t-101 82t-54 98t-17.5 108.5q0 34 6 72t12.5 64t28.5 110q19 68 19 113q0 68 -46 102.5t-149 34.5h-53l21 78h53q148 0 223 75q78 78 125 312q22 100 52.5 172t88.5 133q125 125 412 145l-6 -75q-220 -11 -328 -119
q-76 -76 -117 -248q-35 -162 -59 -223q-32 -83 -80 -131q-62 -62 -180 -84q141 -43 141 -170q0 -64 -18 -117q-45 -141 -45 -236q0 -107 58.5 -178t193.5 -108z" />
    <glyph glyph-name="bar" unicode="|" horiz-adv-x="585" 
d="M39 -262l508 1896h90l-510 -1896h-88z" />
    <glyph glyph-name="braceright" unicode="}" horiz-adv-x="983" 
d="M352 1401l29 63q114 -23 189 -78.5t105 -121t30 -142.5q0 -13 -1 -26t-2 -23.5t-4 -26t-4.5 -25t-7 -30.5t-8 -31.5t-10 -39t-11.5 -43.5q-18 -65 -18 -113q0 -68 46 -102.5t149 -34.5h53l-21 -78h-53q-147 0 -223 -76q-78 -79 -125 -311q-22 -100 -52.5 -172t-88.5 -133
q-126 -126 -412 -146l6 76q220 11 328 119q74 74 116 248q36 164 62 229q31 78 78 125q62 62 180 84q-141 44 -141 170q0 64 18 117q45 141 45 235q0 218 -252 287z" />
    <glyph glyph-name="asciitilde" unicode="~" horiz-adv-x="942" 
d="M256 502l-78 30q51 103 100 150t113 47q30 0 55.5 -11.5t37 -20.5t44.5 -40q52 -47 68 -55q15 -6 31 -6q31 0 57 28.5t64 94.5l77 -31q-51 -103 -100 -149.5t-113 -46.5q-18 0 -34.5 4t-26 7.5t-27 17t-22.5 18t-27 24.5q-5 5 -16 15t-14.5 13t-11.5 10t-11.5 9.5t-10 6
t-11 5t-10.5 2.5t-13 1q-31 0 -57 -28.5t-64 -94.5z" />
    <glyph glyph-name="uni00A0" unicode="&#xa0;" horiz-adv-x="0" 
 />
    <glyph glyph-name="exclamdown" unicode="&#xa1;" horiz-adv-x="514" 
d="M432 1059l-215 -916l-39 -143h-119l39 143l277 916h57zM571 1434l-47 -174h-135l47 174h135z" />
    <glyph glyph-name="cent" unicode="&#xa2;" horiz-adv-x="1142" 
d="M903 1446h103l-78 -193q192 -52 276 -231l-84 -47q-41 74 -94.5 121t-138.5 69l-348 -886q40 -7 73 -7q197 0 367 150l68 -66q-193 -178 -441 -178q-62 0 -98 8l-78 -198h-102l90 227q-123 51 -193.5 158.5t-70.5 247.5q0 135 51 256t143 213q182 182 430 182q9 0 28 -1
t28 -1zM262 623q0 -111 51 -195t144 -125l344 873q-5 0 -14.5 1t-14.5 1q-196 0 -344 -148q-166 -166 -166 -407z" />
    <glyph glyph-name="sterling" unicode="&#xa3;" horiz-adv-x="1277" 
d="M-4 0l14 51l187 41l143 533h-176l26 98h177l71 268q56 210 164 318q139 139 334 139q257 0 381 -225l-88 -54q-58 93 -126 138t-173 45q-145 0 -248 -103q-93 -93 -143 -276l-68 -250h610l-26 -98h-611l-141 -529h766l-27 -96h-1046z" />
    <glyph glyph-name="yen" unicode="&#xa5;" horiz-adv-x="1433" 
d="M514 0l68 256h-430l24 92h430l53 201h-430l25 92h389l-348 793h121l329 -770l746 770h139l-778 -793h377l-25 -92h-438l-53 -201h438l-25 -92h-438l-67 -256h-107z" />
    <glyph glyph-name="section" unicode="&#xa7;" horiz-adv-x="1294" 
d="M1208 692q0 -81 -57 -141.5t-147.5 -90.5t-198.5 -30h-4q78 -35 119 -86t41 -111q0 -115 -107 -184t-264 -69q-135 0 -259 48.5t-194 118.5l68 76q67 -65 172 -108t227 -43q106 0 178 44t72 115q0 63 -64.5 108.5t-220.5 102.5q-204 72 -294.5 138t-90.5 161q0 81 57 142
t148 91t199 30h2q-76 36 -117 86.5t-41 109.5q0 115 107 184.5t264 69.5q135 0 256.5 -48.5t195.5 -119.5l-67 -76q-67 65 -172.5 108.5t-227.5 43.5q-106 0 -177.5 -44.5t-71.5 -115.5q0 -63 64.5 -108.5t219.5 -102.5q204 -72 294.5 -138t90.5 -161zM291 750
q0 -60 62 -107t210 -98q114 -43 240 -43q127 0 213 53.5t86 128.5q0 60 -62.5 107t-210.5 98q-117 43 -239 43q-127 0 -213 -53.5t-86 -128.5z" />
    <glyph glyph-name="dieresis" unicode="&#xa8;" horiz-adv-x="1024" 
d="M436 1219l45 163h142l-45 -163h-142zM770 1219l45 163h141l-45 -163h-141z" />
    <glyph glyph-name="copyright" unicode="&#xa9;" horiz-adv-x="1699" 
d="M840 340q-129 0 -217 82.5t-88 220.5q0 98 36.5 187t104.5 157q129 129 297 129q197 0 280 -162l-75 -43q-73 123 -205 123q-134 0 -232 -98q-116 -116 -116 -287q0 -110 62.5 -168.5t158.5 -58.5q72 0 123 26t106 78l58 -57q-122 -129 -293 -129zM1638 805
q0 -165 -63.5 -320.5t-179.5 -271.5q-238 -238 -572 -238q-147 0 -271 50.5t-208 138t-131 207.5t-47 258q0 165 63.5 320t180.5 272q237 237 571 237q196 0 347 -86.5t230.5 -234.5t79.5 -332zM231 627q0 -122 40.5 -229.5t115 -189t189 -128.5t253.5 -47q299 0 514 215
q230 230 230 559q0 122 -40.5 229.5t-115 189t-189 128.5t-253.5 47q-299 0 -514 -215q-230 -230 -230 -559z" />
    <glyph glyph-name="ordfeminine" unicode="&#xaa;" horiz-adv-x="798" 
d="M391 840q-74 0 -124 41.5t-50 111.5q0 97 75 157t193 60q81 0 199 -30l4 12q8 19 8 55q0 119 -159 119q-76 0 -164 -31l-15 72q87 35 193 35q109 0 168 -47.5t59 -132.5q0 -26 -12 -80l-88 -330h-82l29 102q-102 -114 -234 -114zM412 905q78 0 154 56.5t96 132.5l8 28
q-91 25 -185 25q-80 0 -131 -40.5t-51 -105.5q0 -43 30 -69.5t79 -26.5zM119 600l20 82h500l-21 -82h-499z" />
    <glyph glyph-name="guillemotleft" unicode="&#xab;" horiz-adv-x="1054" 
d="M305 86l-213 428l4 16l443 428l73 -57l-393 -393l170 -377zM723 86l-213 428l4 16l442 428l74 -57l-393 -393l170 -377z" />
    <glyph glyph-name="registered" unicode="&#xae;" horiz-adv-x="851" 
d="M618 1454q140 0 229 -90t89 -223q0 -170 -117 -287t-276 -117q-142 0 -230 90.5t-88 223.5q0 169 117 286t276 117zM547 776q138 0 239 101q109 109 109 260q0 121 -75 199.5t-206 78.5q-139 0 -239 -100q-109 -109 -109 -260q0 -121 75 -200t206 -79zM492 1055l-35 -131
h-58l97 358h129q73 0 102 -31t29 -71q0 -44 -30.5 -78.5t-88.5 -44.5l61 -133h-59l-57 131h-90zM504 1102h84q64 0 90 26q18 18 18 48q0 55 -78 55h-79z" />
    <glyph glyph-name="macron" unicode="&#xaf;" horiz-adv-x="1024" 
d="M401 1272l27 96h623l-27 -96h-623z" />
    <glyph glyph-name="degree" unicode="&#xb0;" horiz-adv-x="749" 
d="M520 1444q113 0 185.5 -73.5t72.5 -184.5q0 -140 -102 -242t-238 -102q-113 0 -185.5 73.5t-72.5 184.5q0 138 103 241t237 103zM449 928q92 0 161 69q76 76 76 181q0 84 -48.5 132t-127.5 48q-92 0 -162 -70q-76 -76 -76 -180q0 -83 49 -131.5t128 -48.5z" />
    <glyph glyph-name="plusminus" unicode="&#xb1;" horiz-adv-x="1269" 
d="M528 317l113 416h-424l27 98h424l110 416h103l-111 -416h424l-27 -98h-424l-112 -416h-103zM23 0l26 98h948l-26 -98h-948z" />
    <glyph glyph-name="two.sup" unicode="&#xb2;" horiz-adv-x="819" 
d="M227 872l17 68l444 338q71 54 107 100t36 103q0 61 -43 96t-116 35q-66 0 -118 -29.5t-103 -83.5l-52 45q125 139 281 139q104 0 167.5 -54t63.5 -142q0 -69 -41.5 -126.5t-132.5 -127.5l-375 -285h443l-21 -76h-557z" />
    <glyph glyph-name="three.sup" unicode="&#xb3;" horiz-adv-x="819" 
d="M535 852q-99 0 -168.5 40.5t-106.5 111.5l64 36q33 -55 86 -85.5t120 -30.5q100 0 163 48.5t63 129.5q0 73 -52 109t-147 36h-35l-24 47l344 293h-408l23 76h512l-19 -66l-342 -288q97 -5 163.5 -55.5t66.5 -143.5q0 -110 -90 -184t-213 -74z" />
    <glyph glyph-name="acute" unicode="&#xb4;" horiz-adv-x="1024" 
d="M514 1219l254 272l127 -61l-277 -211h-104z" />
    <glyph glyph-name="mu" unicode="&#xb5;" horiz-adv-x="1353" 
d="M545 -25q-131 0 -223 68.5t-123 192.5h-2q-23 -148 -66 -312l-68 -252h-100l367 1372h100l-143 -536q-23 -90 -23 -154q0 -135 75 -210.5t210 -75.5q141 0 250.5 90.5t150.5 244.5l172 641h101l-207 -770q-15 -62 -15 -98q0 -100 115 -100q43 0 88 10l-24 -92
q-45 -10 -82 -10q-98 0 -148.5 45t-50.5 131q-132 -185 -354 -185z" />
    <glyph glyph-name="paragraph" unicode="&#xb6;" horiz-adv-x="995" 
d="M532 0l144 539q-253 13 -375 135q-92 92 -92 239q0 209 131 340q178 181 537 181h149l-385 -1434h-109z" />
    <glyph glyph-name="periodcentered" unicode="&#xb7;" horiz-adv-x="471" 
d="M166 522l47 174h135l-47 -174h-135z" />
    <glyph glyph-name="cedilla" unicode="&#xb8;" horiz-adv-x="1024" 
d="M242 -303l-99 53l256 270h88z" />
    <glyph glyph-name="one.sup" unicode="&#xb9;" horiz-adv-x="665" 
d="M432 872l191 717l-201 -69v75l237 82h68l-215 -805h-80z" />
    <glyph glyph-name="ordmasculine" unicode="&#xba;" horiz-adv-x="798" 
d="M123 600l20 82h549l-20 -82h-549zM322 1102q0 -87 52 -140t134 -53q96 0 170 74q36 36 58 87.5t22 105.5q0 87 -52 139.5t-135 52.5q-96 0 -170 -74q-79 -79 -79 -192zM844 1180q0 -68 -27.5 -132t-75.5 -112q-102 -102 -239 -102q-120 0 -193 73.5t-73 190.5
q0 141 102 243q103 103 240 103q120 0 193 -73.5t73 -190.5z" />
    <glyph glyph-name="guillemotright" unicode="&#xbb;" horiz-adv-x="1054" 
d="M750 956l213 -428l-5 -16l-442 -428l-74 57l394 394l-170 376zM332 956l213 -428l-4 -16l-443 -428l-73 57l393 394l-170 376z" />
    <glyph glyph-name="onequarter" unicode="&#xbc;" horiz-adv-x="1689" 
d="M1206 -4l49 186h-389l-6 72l537 549h100l-147 -551h112l-18 -70h-113l-49 -186h-76zM954 252h320l119 444zM92 0l696 729l662 705h98l-698 -729l-660 -705h-98zM311 643l191 717l-201 -70v76l238 82h67l-215 -805h-80z" />
    <glyph glyph-name="onehalf" unicode="&#xbd;" horiz-adv-x="1689" 
d="M834 0l16 68l444 338q72 54 108 99.5t36 102.5q0 61 -43.5 96t-116.5 35q-67 0 -119 -29t-102 -83l-51 45q125 139 280 139q104 0 168 -54.5t64 -142.5q0 -69 -42 -126.5t-133 -127.5l-374 -284h442l-20 -76h-557zM72 0l696 729l662 705h98l-699 -729l-659 -705h-98z
M311 643l191 717l-201 -70v76l238 82h67l-215 -805h-80z" />
    <glyph glyph-name="threequarters" unicode="&#xbe;" horiz-adv-x="1843" 
d="M1360 -4l49 186h-389l-6 72l536 549h101l-148 -551h113l-19 -70h-112l-49 -186h-76zM1108 252h319l119 444zM236 0l696 729l661 705h99l-699 -729l-659 -705h-98zM420 623q-196 0 -275 151l64 37q33 -55 87 -86t120 -31q99 0 162 48.5t63 129.5q0 73 -52 109.5t-147 36.5
h-34l-25 47l344 293h-408l23 76h512l-18 -66l-342 -289q97 -5 163 -55t66 -143q0 -110 -90 -184t-213 -74z" />
    <glyph glyph-name="questiondown" unicode="&#xbf;" horiz-adv-x="1093" 
d="M803 1059l-62 -332l-14 -10q-232 -18 -372 -116.5t-140 -258.5q0 -125 88 -194.5t223 -69.5q116 0 220 51t182 129l65 -70q-206 -206 -475 -206q-188 0 -300 100t-112 258q0 99 43.5 180.5t120 137.5t172 92t207.5 53l88 256h66zM938 1434l-47 -174h-135l47 174h135z" />
    <glyph glyph-name="Agrave" unicode="&#xc0;" horiz-adv-x="1554" 
d="M-70 0l1055 1444h102l281 -1444h-108l-74 401h-846l-291 -401h-119zM410 498h755l-153 829zM1010 1587l-170 185l118 57l127 -242h-75z" />
    <glyph glyph-name="Aacute" unicode="&#xc1;" horiz-adv-x="1554" 
d="M-70 0l1055 1444h102l281 -1444h-108l-74 401h-846l-291 -401h-119zM410 498h755l-153 829zM1016 1587l254 242l123 -57l-269 -185h-108z" />
    <glyph glyph-name="Acircumflex" unicode="&#xc2;" horiz-adv-x="1554" 
d="M-70 0l1055 1444h102l281 -1444h-108l-74 401h-846l-291 -401h-119zM410 498h755l-153 829zM805 1587l270 219h94l152 -219h-102l-115 125l-184 -125h-115z" />
    <glyph glyph-name="Atilde" unicode="&#xc3;" horiz-adv-x="1554" 
d="M-70 0l1055 1444h102l281 -1444h-108l-74 401h-846l-291 -401h-119zM410 498h755l-153 829zM858 1569l-74 20q47 98 92 139t105 41q40 0 127 -38q5 -2 25 -10.5t27 -11.5t22 -8t25.5 -7t19.5 -2q37 0 62 20t57 74l73 -21q-47 -98 -91.5 -138t-104.5 -40q-38 0 -127 39
q-5 2 -25 10.5t-27 11.5t-22 8t-25.5 7t-19.5 2q-36 0 -61 -20.5t-58 -75.5z" />
    <glyph glyph-name="Adieresis" unicode="&#xc4;" horiz-adv-x="1554" 
d="M-70 0l1055 1444h102l281 -1444h-108l-74 401h-846l-291 -401h-119zM410 498h755l-153 829zM823 1587l43 156h152l-43 -156h-152zM1184 1587l43 156h149l-43 -156h-149z" />
    <glyph glyph-name="Aring" unicode="&#xc5;" horiz-adv-x="1554" 
d="M-70 0l1002 1370q-92 50 -92 148q0 92 74.5 155.5t172.5 63.5q86 0 139.5 -48t53.5 -122q0 -75 -50.5 -132.5t-125.5 -78.5l264 -1356h-108l-74 401h-846l-291 -401h-119zM410 498h755l-153 829zM1040 1413q64 0 112 42t48 106q0 49 -31.5 79.5t-89.5 30.5
q-64 0 -111.5 -41.5t-47.5 -105.5q0 -51 33 -81t87 -30z" />
    <glyph glyph-name="AE" unicode="&#xc6;" horiz-adv-x="2154" 
d="M-66 0l1252 1434h1108l-27 -99h-883l-151 -563h790l-26 -98h-791l-153 -576h893l-27 -98h-999l108 401h-616l-349 -401h-129zM496 498h557l225 839h-55z" />
    <glyph glyph-name="Ccedilla" unicode="&#xc7;" horiz-adv-x="1511" 
d="M555 -303l-98 53l217 232q-210 30 -348 184.5t-138 388.5q0 183 73 352.5t204 300.5q118 118 266.5 184t312.5 66q187 0 322 -85t205 -224l-92 -49q-76 130 -178 196t-263 66q-139 0 -264 -55.5t-225 -155.5q-118 -118 -184 -273t-66 -319q0 -222 136 -354.5t349 -132.5
q151 0 265.5 54.5t220.5 160.5l71 -66q-112 -115 -248 -181.5t-319 -66.5h-10z" />
    <glyph glyph-name="Egrave" unicode="&#xc8;" horiz-adv-x="1329" 
d="M74 0l385 1434h1009l-26 -99h-903l-152 -563h811l-27 -98h-811l-153 -576h913l-26 -98h-1020zM920 1567l-170 184l118 57l127 -241h-75z" />
    <glyph glyph-name="Eacute" unicode="&#xc9;" horiz-adv-x="1329" 
d="M74 0l385 1434h1009l-26 -99h-903l-152 -563h811l-27 -98h-811l-153 -576h913l-26 -98h-1020zM926 1567l254 241l123 -57l-269 -184h-108z" />
    <glyph glyph-name="Ecircumflex" unicode="&#xca;" horiz-adv-x="1329" 
d="M74 0l385 1434h1009l-26 -99h-903l-152 -563h811l-27 -98h-811l-153 -576h913l-26 -98h-1020zM715 1567l270 219h94l152 -219h-103l-114 125l-185 -125h-114z" />
    <glyph glyph-name="Edieresis" unicode="&#xcb;" horiz-adv-x="1329" 
d="M74 0l385 1434h1009l-26 -99h-903l-152 -563h811l-27 -98h-811l-153 -576h913l-26 -98h-1020zM731 1567l43 155h152l-43 -155h-152zM1092 1567l43 155h149l-43 -155h-149z" />
    <glyph glyph-name="Igrave" unicode="&#xcc;" horiz-adv-x="561" 
d="M88 0l385 1434h107l-385 -1434h-107zM496 1567l-170 184l118 57l127 -241h-75z" />
    <glyph glyph-name="Iacute" unicode="&#xcd;" horiz-adv-x="561" 
d="M88 0l385 1434h107l-385 -1434h-107zM502 1567l254 241l123 -57l-269 -184h-108z" />
    <glyph glyph-name="Icircumflex" unicode="&#xce;" horiz-adv-x="561" 
d="M88 0l385 1434h107l-385 -1434h-107zM291 1567l270 219h94l152 -219h-102l-115 125l-184 -125h-115z" />
    <glyph glyph-name="Idieresis" unicode="&#xcf;" horiz-adv-x="561" 
d="M88 0l385 1434h107l-385 -1434h-107zM307 1567l43 155h152l-43 -155h-152zM668 1567l43 155h149l-43 -155h-149z" />
    <glyph glyph-name="Eth" unicode="&#xd0;" horiz-adv-x="1640" 
d="M162 672l26 98h154l178 664h322q172 0 316.5 -48.5t240.5 -144.5q157 -157 157 -410q0 -332 -223 -555q-131 -131 -320 -203.5t-409 -72.5h-469l180 672h-153zM1313 1174q-161 161 -477 161h-236l-151 -565h475l-27 -98h-475l-154 -574h350q389 0 635 246
q193 193 193 479q0 221 -133 351z" />
    <glyph glyph-name="Ntilde" unicode="&#xd1;" horiz-adv-x="1611" 
d="M74 0l385 1434h98l645 -1256l338 1256h102l-385 -1434h-77l-660 1282l-344 -1282h-102zM864 1540l-73 21q47 98 91.5 139t104.5 41q38 0 127 -39q5 -2 25 -10.5t27 -11.5t22 -8t25.5 -7t19.5 -2q37 0 62 20t57 74l73 -20q-47 -98 -91.5 -138t-104.5 -40q-40 0 -127 38
q-5 2 -25 10.5t-27 11.5t-22 8t-25.5 7t-19.5 2q-36 0 -61 -20.5t-58 -75.5z" />
    <glyph glyph-name="Ograve" unicode="&#xd2;" horiz-adv-x="1732" 
d="M1022 1458q176 0 318.5 -82t221 -222.5t78.5 -311.5q0 -176 -69.5 -339t-194.5 -288q-113 -113 -258.5 -177.5t-302.5 -64.5q-132 0 -248 48.5t-196.5 131t-127 196t-46.5 241.5q0 176 69.5 339t194.5 288q113 113 258 177t303 64zM815 70q137 0 259.5 54.5t219.5 151.5
q111 111 173.5 259.5t62.5 306.5q0 223 -142 371.5t-366 148.5q-137 0 -259.5 -55t-219.5 -152q-111 -111 -173.5 -259t-62.5 -306q0 -223 142 -371.5t366 -148.5zM1057 1587l-170 185l119 57l127 -242h-76z" />
    <glyph glyph-name="Oacute" unicode="&#xd3;" horiz-adv-x="1732" 
d="M1022 1458q176 0 318.5 -82t221 -222.5t78.5 -311.5q0 -176 -69.5 -339t-194.5 -288q-113 -113 -258.5 -177.5t-302.5 -64.5q-132 0 -248 48.5t-196.5 131t-127 196t-46.5 241.5q0 176 69.5 339t194.5 288q113 113 258 177t303 64zM815 70q137 0 259.5 54.5t219.5 151.5
q111 111 173.5 259.5t62.5 306.5q0 223 -142 371.5t-366 148.5q-137 0 -259.5 -55t-219.5 -152q-111 -111 -173.5 -259t-62.5 -306q0 -223 142 -371.5t366 -148.5zM1063 1587l254 242l123 -57l-269 -185h-108z" />
    <glyph glyph-name="Ocircumflex" unicode="&#xd4;" horiz-adv-x="1732" 
d="M1022 1458q176 0 318.5 -82t221 -222.5t78.5 -311.5q0 -176 -69.5 -339t-194.5 -288q-113 -113 -258.5 -177.5t-302.5 -64.5q-132 0 -248 48.5t-196.5 131t-127 196t-46.5 241.5q0 176 69.5 339t194.5 288q113 113 258 177t303 64zM815 70q137 0 259.5 54.5t219.5 151.5
q111 111 173.5 259.5t62.5 306.5q0 223 -142 371.5t-366 148.5q-137 0 -259.5 -55t-219.5 -152q-111 -111 -173.5 -259t-62.5 -306q0 -223 142 -371.5t366 -148.5zM852 1587l270 219h95l151 -219h-102l-115 125l-184 -125h-115z" />
    <glyph glyph-name="Otilde" unicode="&#xd5;" horiz-adv-x="1732" 
d="M1022 1458q176 0 318.5 -82t221 -222.5t78.5 -311.5q0 -176 -69.5 -339t-194.5 -288q-113 -113 -258.5 -177.5t-302.5 -64.5q-132 0 -248 48.5t-196.5 131t-127 196t-46.5 241.5q0 176 69.5 339t194.5 288q113 113 258 177t303 64zM815 70q137 0 259.5 54.5t219.5 151.5
q111 111 173.5 259.5t62.5 306.5q0 223 -142 371.5t-366 148.5q-137 0 -259.5 -55t-219.5 -152q-111 -111 -173.5 -259t-62.5 -306q0 -223 142 -371.5t366 -148.5zM905 1569l-74 20q47 98 92 139t105 41q40 0 127 -38q5 -2 25 -10.5t27 -11.5t22 -8t25.5 -7t19.5 -2
q37 0 62 20t57 74l73 -21q-47 -98 -91.5 -138t-104.5 -40q-38 0 -127 39q-5 2 -25 10.5t-27 11.5t-22 8t-25.5 7t-19.5 2q-36 0 -61 -20.5t-58 -75.5z" />
    <glyph glyph-name="Odieresis" unicode="&#xd6;" horiz-adv-x="1732" 
d="M1022 1458q176 0 318.5 -82t221 -222.5t78.5 -311.5q0 -176 -69.5 -339t-194.5 -288q-113 -113 -258.5 -177.5t-302.5 -64.5q-132 0 -248 48.5t-196.5 131t-127 196t-46.5 241.5q0 176 69.5 339t194.5 288q113 113 258 177t303 64zM815 70q137 0 259.5 54.5t219.5 151.5
q111 111 173.5 259.5t62.5 306.5q0 223 -142 371.5t-366 148.5q-137 0 -259.5 -55t-219.5 -152q-111 -111 -173.5 -259t-62.5 -306q0 -223 142 -371.5t366 -148.5zM868 1587l43 156h152l-43 -156h-152zM1229 1587l43 156h149l-43 -156h-149z" />
    <glyph glyph-name="multiply" unicode="&#xd7;" horiz-adv-x="1269" 
d="M203 279l-56 75l476 375l-275 369l84 63l270 -373l474 377l55 -78l-475 -372l274 -369l-84 -63l-270 372z" />
    <glyph glyph-name="Oslash" unicode="&#xd8;" horiz-adv-x="1732" 
d="M1022 1458q288 0 469 -207l227 193h142l-316 -264q96 -146 96 -338q0 -176 -69.5 -339t-194.5 -288q-113 -113 -258.5 -177.5t-302.5 -64.5q-289 0 -469 205l-227 -190h-142l314 262q-94 153 -94 340q0 176 69.5 339t194.5 288q113 113 258 177t303 64zM307 590
q0 -150 66 -273l1040 871q-144 174 -391 174q-137 0 -259.5 -55t-219.5 -152q-111 -111 -173.5 -259t-62.5 -306zM815 70q137 0 259.5 54.5t219.5 151.5q111 111 173.5 259.5t62.5 306.5q0 145 -68 272l-1038 -872q143 -172 391 -172z" />
    <glyph glyph-name="Ugrave" unicode="&#xd9;" horiz-adv-x="1548" 
d="M713 -23q-127 0 -226.5 34.5t-162 96t-95 143t-32.5 177.5q0 109 28 221l209 785h107l-222 -834q-18 -74 -18 -164q0 -162 106.5 -262t313.5 -100q203 0 350 147q134 134 201 381l223 832h107l-230 -854q-72 -267 -227 -422q-181 -181 -432 -181zM963 1559l-170 184
l118 57l127 -241h-75z" />
    <glyph glyph-name="Uacute" unicode="&#xda;" horiz-adv-x="1548" 
d="M713 -23q-127 0 -226.5 34.5t-162 96t-95 143t-32.5 177.5q0 109 28 221l209 785h107l-222 -834q-18 -74 -18 -164q0 -162 106.5 -262t313.5 -100q203 0 350 147q134 134 201 381l223 832h107l-230 -854q-72 -267 -227 -422q-181 -181 -432 -181zM969 1559l254 241
l123 -57l-269 -184h-108z" />
    <glyph glyph-name="Ucircumflex" unicode="&#xdb;" horiz-adv-x="1548" 
d="M713 -23q-127 0 -226.5 34.5t-162 96t-95 143t-32.5 177.5q0 109 28 221l209 785h107l-222 -834q-18 -74 -18 -164q0 -162 106.5 -262t313.5 -100q203 0 350 147q134 134 201 381l223 832h107l-230 -854q-72 -267 -227 -422q-181 -181 -432 -181zM758 1559l270 219h94
l152 -219h-103l-114 124l-185 -124h-114z" />
    <glyph glyph-name="Udieresis" unicode="&#xdc;" horiz-adv-x="1548" 
d="M713 -23q-127 0 -226.5 34.5t-162 96t-95 143t-32.5 177.5q0 109 28 221l209 785h107l-222 -834q-18 -74 -18 -164q0 -162 106.5 -262t313.5 -100q203 0 350 147q134 134 201 381l223 832h107l-230 -854q-72 -267 -227 -422q-181 -181 -432 -181zM776 1559l43 155h152
l-43 -155h-152zM1137 1559l43 155h149l-43 -155h-149z" />
    <glyph glyph-name="Yacute" unicode="&#xdd;" horiz-adv-x="1368" 
d="M479 0l156 582l-375 852h117l330 -770l745 770h143l-862 -879l-147 -555h-107zM870 1559l254 241l123 -57l-268 -184h-109z" />
    <glyph glyph-name="Thorn" unicode="&#xde;" horiz-adv-x="1357" 
d="M74 0l385 1434h104l-67 -260h340q265 0 395 -130q98 -98 98 -256q0 -196 -129 -325q-187 -187 -579 -187h-365l-76 -276h-106zM281 373h344q346 0 497 151q101 101 101 260q0 117 -74 191q-100 100 -315 100h-365z" />
    <glyph glyph-name="germandbls" unicode="&#xdf;" horiz-adv-x="1269" 
d="M451 -4l24 90q137 2 242 29.5t167.5 73.5t94 102.5t31.5 122.5q0 114 -93.5 183.5t-277.5 102.5l25 93q237 56 345.5 150.5t108.5 232.5q0 107 -75 173t-207 66q-150 0 -256.5 -110t-161.5 -312l-266 -993h-101l275 1024q64 228 178 342q143 143 340 143
q166 0 274.5 -93.5t108.5 -235.5q0 -89 -33.5 -161t-96 -123t-136 -86.5t-168.5 -61.5q148 -40 236.5 -122.5t88.5 -213.5q0 -183 -180.5 -301.5t-486.5 -114.5z" />
    <glyph glyph-name="agrave" unicode="&#xe0;" horiz-adv-x="1169" 
d="M389 -25q-90 0 -166 31.5t-126 100t-50 161.5q0 148 100 248q131 131 371 131q204 0 402 -59l8 28q14 54 14 105q0 119 -81 182.5t-234 63.5q-143 0 -303 -56l-19 90q160 60 330 60q191 0 298 -86.5t107 -239.5q0 -70 -20 -137l-160 -598h-98l47 180q-169 -205 -420 -205
zM408 68q153 0 288 97t178 251l25 92q-192 49 -395 49q-179 0 -277 -98q-73 -73 -73 -178q0 -98 68.5 -155.5t185.5 -57.5zM674 1219l-162 211l127 61l106 -272h-71z" />
    <glyph glyph-name="aacute" unicode="&#xe1;" horiz-adv-x="1169" 
d="M389 -25q-90 0 -166 31.5t-126 100t-50 161.5q0 148 100 248q131 131 371 131q204 0 402 -59l8 28q14 54 14 105q0 119 -81 182.5t-234 63.5q-143 0 -303 -56l-19 90q160 60 330 60q191 0 298 -86.5t107 -239.5q0 -70 -20 -137l-160 -598h-98l47 180q-169 -205 -420 -205
zM408 68q153 0 288 97t178 251l25 92q-192 49 -395 49q-179 0 -277 -98q-73 -73 -73 -178q0 -98 68.5 -155.5t185.5 -57.5zM670 1219l254 272l127 -61l-277 -211h-104z" />
    <glyph glyph-name="acircumflex" unicode="&#xe2;" horiz-adv-x="1169" 
d="M389 -25q-90 0 -166 31.5t-126 100t-50 161.5q0 148 100 248q131 131 371 131q204 0 402 -59l8 28q14 54 14 105q0 119 -81 182.5t-234 63.5q-143 0 -303 -56l-19 90q160 60 330 60q191 0 298 -86.5t107 -239.5q0 -70 -20 -137l-160 -598h-98l47 180q-169 -205 -420 -205
zM408 68q153 0 288 97t178 251l25 92q-192 49 -395 49q-179 0 -277 -98q-73 -73 -73 -178q0 -98 68.5 -155.5t185.5 -57.5zM475 1219l273 249h81l138 -249h-90l-107 139l-197 -139h-98z" />
    <glyph glyph-name="atilde" unicode="&#xe3;" horiz-adv-x="1169" 
d="M389 -25q-90 0 -166 31.5t-126 100t-50 161.5q0 148 100 248q131 131 371 131q204 0 402 -59l8 28q14 54 14 105q0 119 -81 182.5t-234 63.5q-143 0 -303 -56l-19 90q160 60 330 60q191 0 298 -86.5t107 -239.5q0 -70 -20 -137l-160 -598h-98l47 180q-169 -205 -420 -205
zM408 68q153 0 288 97t178 251l25 92q-192 49 -395 49q-179 0 -277 -98q-73 -73 -73 -178q0 -98 68.5 -155.5t185.5 -57.5zM1004 1427l71 -18q-48 -107 -94 -148.5t-109 -41.5q-41 0 -129 43q-73 41 -116 41q-37 0 -63 -22t-58 -81l-72 19q48 107 94 148.5t109 41.5
q41 0 129 -43q73 -41 117 -41q37 0 63 21.5t58 80.5z" />
    <glyph glyph-name="adieresis" unicode="&#xe4;" horiz-adv-x="1169" 
d="M389 -25q-90 0 -166 31.5t-126 100t-50 161.5q0 148 100 248q131 131 371 131q204 0 402 -59l8 28q14 54 14 105q0 119 -81 182.5t-234 63.5q-143 0 -303 -56l-19 90q160 60 330 60q191 0 298 -86.5t107 -239.5q0 -70 -20 -137l-160 -598h-98l47 180q-169 -205 -420 -205
zM408 68q153 0 288 97t178 251l25 92q-192 49 -395 49q-179 0 -277 -98q-73 -73 -73 -178q0 -98 68.5 -155.5t185.5 -57.5zM492 1219l45 163h141l-45 -163h-141zM825 1219l45 163h142l-45 -163h-142z" />
    <glyph glyph-name="aring" unicode="&#xe5;" horiz-adv-x="1169" 
d="M389 -25q-90 0 -166 31.5t-126 100t-50 161.5q0 148 100 248q131 131 371 131q204 0 402 -59l8 28q14 54 14 105q0 119 -81 182.5t-234 63.5q-143 0 -303 -56l-19 90q160 60 330 60q191 0 298 -86.5t107 -239.5q0 -70 -20 -137l-160 -598h-98l47 180q-169 -205 -420 -205
zM408 68q153 0 288 97t178 251l25 92q-192 49 -395 49q-179 0 -277 -98q-73 -73 -73 -178q0 -98 68.5 -155.5t185.5 -57.5zM1008 1436q0 -89 -74 -155.5t-168 -66.5q-91 0 -148 54t-57 135q0 89 74 155t168 66q91 0 148 -53.5t57 -134.5zM635 1405q0 -55 35.5 -90t97.5 -35
q67 0 116.5 45t49.5 109q0 55 -35.5 90t-97.5 35q-67 0 -116.5 -45t-49.5 -109z" />
    <glyph glyph-name="ae" unicode="&#xe6;" horiz-adv-x="1980" 
d="M397 -25q-93 0 -171 31.5t-128.5 100t-50.5 161.5q0 148 100 248q131 131 371 131q204 0 402 -59l8 28q14 54 14 105q0 119 -81 182.5t-234 63.5q-143 0 -303 -56l-19 90q160 60 330 60q165 0 268 -65t129 -183q86 116 206 186t255 70q126 0 217.5 -55.5t134.5 -144.5
t43 -199q0 -97 -28 -183h-859q-4 -17 -4 -69q0 -159 95.5 -254.5t250.5 -95.5q110 0 192.5 35t166.5 104l57 -70q-196 -162 -409 -162q-155 0 -262 68.5t-156 187.5q-246 -256 -535 -256zM414 68q259 0 491 256q-15 83 -2 182q-181 51 -399 51q-179 0 -277 -98
q-73 -73 -73 -178q0 -98 70.5 -155.5t189.5 -57.5zM1169 838q-108 -108 -149 -260h758q8 24 8 86q0 135 -75 224t-220 89q-183 0 -322 -139z" />
    <glyph glyph-name="ccedilla" unicode="&#xe7;" horiz-adv-x="1153" 
d="M340 -303l-98 53l221 236q-73 15 -137 51t-114.5 90t-80 131.5t-29.5 167.5q0 131 51 249.5t144 211.5q182 182 420 182q150 0 251.5 -70.5t157.5 -181.5l-86 -49q-58 98 -133 152.5t-196 54.5q-92 0 -178.5 -39.5t-155.5 -108.5q-77 -77 -121.5 -179.5t-44.5 -215.5
q0 -168 104 -265t248 -97q179 0 338 149l68 -65q-182 -179 -412 -179h-6z" />
    <glyph glyph-name="egrave" unicode="&#xe8;" horiz-adv-x="1193" 
d="M1073 487h-858q-4 -17 -4 -69q0 -155 93 -252.5t243 -97.5q110 0 198 36t170 103l58 -70q-93 -79 -194 -120.5t-234 -41.5q-194 0 -318.5 124t-124.5 315q0 132 54 258t149 221q176 176 402 176q126 0 217.5 -55.5t134.5 -144.5t43 -199q0 -94 -29 -183zM383 838
q-109 -109 -150 -260h758q8 24 8 86q0 135 -74.5 224t-219.5 89q-183 0 -322 -139zM733 1219l-162 211l127 61l107 -272h-72z" />
    <glyph glyph-name="eacute" unicode="&#xe9;" horiz-adv-x="1193" 
d="M1073 487h-858q-4 -17 -4 -69q0 -155 93 -252.5t243 -97.5q110 0 198 36t170 103l58 -70q-93 -79 -194 -120.5t-234 -41.5q-194 0 -318.5 124t-124.5 315q0 132 54 258t149 221q176 176 402 176q126 0 217.5 -55.5t134.5 -144.5t43 -199q0 -94 -29 -183zM383 838
q-109 -109 -150 -260h758q8 24 8 86q0 135 -74.5 224t-219.5 89q-183 0 -322 -139zM729 1219l254 272l127 -61l-276 -211h-105z" />
    <glyph glyph-name="ecircumflex" unicode="&#xea;" horiz-adv-x="1193" 
d="M1073 487h-858q-4 -17 -4 -69q0 -155 93 -252.5t243 -97.5q110 0 198 36t170 103l58 -70q-93 -79 -194 -120.5t-234 -41.5q-194 0 -318.5 124t-124.5 315q0 132 54 258t149 221q176 176 402 176q126 0 217.5 -55.5t134.5 -144.5t43 -199q0 -94 -29 -183zM383 838
q-109 -109 -150 -260h758q8 24 8 86q0 135 -74.5 224t-219.5 89q-183 0 -322 -139zM532 1219l273 249h82l137 -249h-90l-107 139l-196 -139h-99z" />
    <glyph glyph-name="edieresis" unicode="&#xeb;" horiz-adv-x="1193" 
d="M1073 487h-858q-4 -17 -4 -69q0 -155 93 -252.5t243 -97.5q110 0 198 36t170 103l58 -70q-93 -79 -194 -120.5t-234 -41.5q-194 0 -318.5 124t-124.5 315q0 132 54 258t149 221q176 176 402 176q126 0 217.5 -55.5t134.5 -144.5t43 -199q0 -94 -29 -183zM383 838
q-109 -109 -150 -260h758q8 24 8 86q0 135 -74.5 224t-219.5 89q-183 0 -322 -139zM551 1219l45 163h141l-45 -163h-141zM885 1219l45 163h141l-45 -163h-141z" />
    <glyph glyph-name="igrave" unicode="&#xec;" horiz-adv-x="512" 
d="M66 0l280 1044h100l-280 -1044h-100zM387 1219l-162 211l127 61l107 -272h-72z" />
    <glyph glyph-name="iacute" unicode="&#xed;" horiz-adv-x="512" 
d="M66 0l280 1044h100l-280 -1044h-100zM385 1219l254 272l127 -61l-277 -211h-104z" />
    <glyph glyph-name="icircumflex" unicode="&#xee;" horiz-adv-x="512" 
d="M66 0l280 1044h100l-280 -1044h-100zM188 1219l273 249h82l137 -249h-90l-107 139l-196 -139h-99z" />
    <glyph glyph-name="idieresis" unicode="&#xef;" horiz-adv-x="512" 
d="M66 0l280 1044h100l-280 -1044h-100zM207 1219l45 163h141l-45 -163h-141zM541 1219l45 163h141l-45 -163h-141z" />
    <glyph glyph-name="eth" unicode="&#xf0;" horiz-adv-x="1273" 
d="M539 1167l-41 80l274 125q-54 72 -98 123h131l59 -82l221 100l41 -79l-211 -97q265 -405 265 -712q0 -150 -47 -264t-140 -207q-179 -179 -428 -179q-208 0 -335.5 135t-127.5 336q0 124 47.5 234t131.5 194q80 80 182 125t215 45q250 0 397 -225q-28 94 -92.5 219
t-157.5 258zM575 70q198 0 347 149q70 70 109.5 161t39.5 193q0 163 -108 272t-283 109q-185 0 -318 -133q-72 -72 -111.5 -167.5t-39.5 -200.5q0 -173 97.5 -278t266.5 -105z" />
    <glyph glyph-name="ntilde" unicode="&#xf1;" horiz-adv-x="1251" 
d="M51 0l279 1044h100l-51 -194q92 107 182 163t213 56q156 0 249 -90t93 -242q0 -70 -22 -147l-156 -590h-100l159 598q17 66 17 129q0 117 -72 184.5t-197 67.5q-89 0 -178 -49t-159 -139.5t-99 -200.5l-157 -590h-101zM1083 1427l72 -18q-48 -107 -94 -148.5t-109 -41.5
q-41 0 -129 43q-73 41 -116 41q-37 0 -63 -22t-58 -81l-72 19q48 107 94 148.5t109 41.5q41 0 129 -43q73 -41 117 -41q37 0 62.5 21.5t57.5 80.5z" />
    <glyph glyph-name="ograve" unicode="&#xf2;" horiz-adv-x="1294" 
d="M569 -25q-206 0 -335.5 130.5t-129.5 332.5q0 125 50.5 240t140.5 205q88 88 198.5 137t231.5 49q206 0 335.5 -130.5t129.5 -332.5q0 -125 -50.5 -239.5t-140.5 -204.5q-88 -88 -199 -137.5t-231 -49.5zM580 70q189 0 338 149q77 77 120 176t43 207q0 176 -99.5 274.5
t-266.5 98.5q-188 0 -338 -150q-77 -77 -120.5 -176t-43.5 -207q0 -176 100 -274t267 -98zM764 1219l-162 211l127 61l107 -272h-72z" />
    <glyph glyph-name="oacute" unicode="&#xf3;" horiz-adv-x="1294" 
d="M569 -25q-206 0 -335.5 130.5t-129.5 332.5q0 125 50.5 240t140.5 205q88 88 198.5 137t231.5 49q206 0 335.5 -130.5t129.5 -332.5q0 -125 -50.5 -239.5t-140.5 -204.5q-88 -88 -199 -137.5t-231 -49.5zM580 70q189 0 338 149q77 77 120 176t43 207q0 176 -99.5 274.5
t-266.5 98.5q-188 0 -338 -150q-77 -77 -120.5 -176t-43.5 -207q0 -176 100 -274t267 -98zM762 1219l254 272l127 -61l-277 -211h-104z" />
    <glyph glyph-name="ocircumflex" unicode="&#xf4;" horiz-adv-x="1294" 
d="M569 -25q-206 0 -335.5 130.5t-129.5 332.5q0 125 50.5 240t140.5 205q88 88 198.5 137t231.5 49q206 0 335.5 -130.5t129.5 -332.5q0 -125 -50.5 -239.5t-140.5 -204.5q-88 -88 -199 -137.5t-231 -49.5zM580 70q189 0 338 149q77 77 120 176t43 207q0 176 -99.5 274.5
t-266.5 98.5q-188 0 -338 -150q-77 -77 -120.5 -176t-43.5 -207q0 -176 100 -274t267 -98zM565 1219l273 249h82l137 -249h-90l-107 139l-196 -139h-99z" />
    <glyph glyph-name="otilde" unicode="&#xf5;" horiz-adv-x="1294" 
d="M569 -25q-206 0 -335.5 130.5t-129.5 332.5q0 125 50.5 240t140.5 205q88 88 198.5 137t231.5 49q206 0 335.5 -130.5t129.5 -332.5q0 -125 -50.5 -239.5t-140.5 -204.5q-88 -88 -199 -137.5t-231 -49.5zM580 70q189 0 338 149q77 77 120 176t43 207q0 176 -99.5 274.5
t-266.5 98.5q-188 0 -338 -150q-77 -77 -120.5 -176t-43.5 -207q0 -176 100 -274t267 -98zM1096 1427l71 -18q-48 -108 -93.5 -149t-108.5 -41q-41 0 -129 43q-73 41 -117 41q-37 0 -63 -22t-58 -81l-72 19q48 107 94 148.5t109 41.5q41 0 129 -43q73 -41 117 -41
q37 0 63 21.5t58 80.5z" />
    <glyph glyph-name="odieresis" unicode="&#xf6;" horiz-adv-x="1294" 
d="M569 -25q-206 0 -335.5 130.5t-129.5 332.5q0 125 50.5 240t140.5 205q88 88 198.5 137t231.5 49q206 0 335.5 -130.5t129.5 -332.5q0 -125 -50.5 -239.5t-140.5 -204.5q-88 -88 -199 -137.5t-231 -49.5zM580 70q189 0 338 149q77 77 120 176t43 207q0 176 -99.5 274.5
t-266.5 98.5q-188 0 -338 -150q-77 -77 -120.5 -176t-43.5 -207q0 -176 100 -274t267 -98zM584 1219l45 163h141l-45 -163h-141zM918 1219l45 163h141l-45 -163h-141z" />
    <glyph glyph-name="divide" unicode="&#xf7;" horiz-adv-x="1269" 
d="M477 236l49 182h164l-49 -182h-164zM180 672l27 98h991l-27 -98h-991zM688 1024l49 182h164l-49 -182h-164z" />
    <glyph glyph-name="oslash" unicode="&#xf8;" horiz-adv-x="1294" 
d="M-74 -12l244 198q-66 111 -66 252q0 125 50.5 240t140.5 205q88 88 198.5 137t231.5 49q218 0 348 -143l158 131h137l-244 -201q66 -116 66 -250q0 -125 -50.5 -239.5t-140.5 -204.5q-88 -88 -199 -137.5t-231 -49.5q-217 0 -348 144l-158 -131h-137zM213 442
q0 -116 39 -190l743 610q-101 113 -280 113q-188 0 -338 -150q-77 -77 -120.5 -176t-43.5 -207zM580 70q189 0 338 149q77 77 120 176t43 207q0 110 -39 189l-743 -611q98 -110 281 -110z" />
    <glyph glyph-name="ugrave" unicode="&#xf9;" horiz-adv-x="1253" 
d="M477 -25q-156 0 -249 90t-93 242q0 67 23 148l155 589h101l-160 -598q-16 -62 -16 -129q0 -117 71.5 -184t196.5 -67q89 0 178 49t159 139.5t99 200.5l158 589h100l-278 -1044h-101l51 195q-86 -105 -179 -162.5t-216 -57.5zM729 1219l-162 211l127 61l107 -272h-72z" />
    <glyph glyph-name="uacute" unicode="&#xfa;" horiz-adv-x="1253" 
d="M477 -25q-156 0 -249 90t-93 242q0 67 23 148l155 589h101l-160 -598q-16 -62 -16 -129q0 -117 71.5 -184t196.5 -67q89 0 178 49t159 139.5t99 200.5l158 589h100l-278 -1044h-101l51 195q-86 -105 -179 -162.5t-216 -57.5zM725 1219l254 272l127 -61l-277 -211h-104z
" />
    <glyph glyph-name="ucircumflex" unicode="&#xfb;" horiz-adv-x="1253" 
d="M477 -25q-156 0 -249 90t-93 242q0 67 23 148l155 589h101l-160 -598q-16 -62 -16 -129q0 -117 71.5 -184t196.5 -67q89 0 178 49t159 139.5t99 200.5l158 589h100l-278 -1044h-101l51 195q-86 -105 -179 -162.5t-216 -57.5zM530 1219l273 249h82l137 -249h-90l-107 139
l-196 -139h-99z" />
    <glyph glyph-name="udieresis" unicode="&#xfc;" horiz-adv-x="1253" 
d="M477 -25q-156 0 -249 90t-93 242q0 67 23 148l155 589h101l-160 -598q-16 -62 -16 -129q0 -117 71.5 -184t196.5 -67q89 0 178 49t159 139.5t99 200.5l158 589h100l-278 -1044h-101l51 195q-86 -105 -179 -162.5t-216 -57.5zM547 1219l45 163h141l-45 -163h-141z
M881 1219l45 163h141l-45 -163h-141z" />
    <glyph glyph-name="yacute" unicode="&#xfd;" horiz-adv-x="1163" 
d="M387 2l-213 1042h109l180 -933l627 933h122l-743 -1081q-114 -163 -212 -230t-216 -67q-117 0 -221 72l55 78q84 -60 178 -60q83 0 162 55.5t172 190.5zM649 1219l254 272l127 -61l-276 -211h-105z" />
    <glyph glyph-name="thorn" unicode="&#xfe;" horiz-adv-x="1339" 
d="M639 -27q-85 0 -156 24t-120.5 66.5t-83.5 92.5t-56 110l-160 -594h-100l490 1823h100l-178 -655q191 229 434 229q181 0 300.5 -124.5t119.5 -315.5q0 -144 -52 -268.5t-145 -217.5q-81 -81 -182.5 -125.5t-210.5 -44.5zM635 68q186 0 321 135q78 78 121 186.5t43 226.5
q0 161 -90 260t-233 99q-95 0 -186.5 -42.5t-166.5 -117.5q-78 -78 -124 -178t-46 -205q0 -155 101 -259.5t260 -104.5z" />
    <glyph glyph-name="ydieresis" unicode="&#xff;" horiz-adv-x="1163" 
d="M387 2l-213 1042h109l180 -933l627 933h122l-743 -1081q-114 -163 -212 -230t-216 -67q-117 0 -221 72l55 78q84 -60 178 -60q83 0 162 55.5t172 190.5zM471 1219l45 163h141l-45 -163h-141zM805 1219l45 163h141l-45 -163h-141z" />
    <glyph glyph-name="Amacron" unicode="&#x100;" horiz-adv-x="1554" 
d="M-70 0l1055 1444h102l281 -1444h-108l-74 401h-846l-291 -401h-119zM410 498h755l-153 829zM776 1640l27 101h635l-27 -101h-635z" />
    <glyph glyph-name="amacron" unicode="&#x101;" horiz-adv-x="1169" 
d="M389 -25q-90 0 -166 31.5t-126 100t-50 161.5q0 148 100 248q131 131 371 131q204 0 402 -59l8 28q14 54 14 105q0 119 -81 182.5t-234 63.5q-143 0 -303 -56l-19 90q160 60 330 60q191 0 298 -86.5t107 -239.5q0 -70 -20 -137l-160 -598h-98l47 180q-169 -205 -420 -205
zM408 68q153 0 288 97t178 251l25 92q-192 49 -395 49q-179 0 -277 -98q-73 -73 -73 -178q0 -98 68.5 -155.5t185.5 -57.5zM434 1272l27 96h622l-26 -96h-623z" />
    <glyph glyph-name="Abreve" unicode="&#x102;" horiz-adv-x="1554" 
d="M-70 0l1055 1444h102l281 -1444h-108l-74 401h-846l-291 -401h-119zM410 498h755l-153 829zM1085 1583q-117 0 -176 54t-41 151h86q2 -54 36.5 -80.5t117.5 -26.5q145 0 211 107h94q-35 -97 -123 -151t-205 -54z" />
    <glyph glyph-name="abreve" unicode="&#x103;" horiz-adv-x="1169" 
d="M389 -25q-90 0 -166 31.5t-126 100t-50 161.5q0 148 100 248q131 131 371 131q204 0 402 -59l8 28q14 54 14 105q0 119 -81 182.5t-234 63.5q-143 0 -303 -56l-19 90q160 60 330 60q191 0 298 -86.5t107 -239.5q0 -70 -20 -137l-160 -598h-98l47 180q-169 -205 -420 -205
zM408 68q153 0 288 97t178 251l25 92q-192 49 -395 49q-179 0 -277 -98q-73 -73 -73 -178q0 -98 68.5 -155.5t185.5 -57.5zM737 1214q-119 0 -177.5 61.5t-35.5 168.5h78q-2 -65 34 -98t120 -33q144 0 225 131h88q-36 -108 -125.5 -169t-206.5 -61z" />
    <glyph glyph-name="Aogonek" unicode="&#x104;" horiz-adv-x="1554" 
d="M1317 -262l-19 -74h-2q-222 15 -219 135q0 58 46.5 110.5t131.5 106.5l-69 385h-846l-291 -401h-119l1055 1444h102l281 -1444h-22q-164 -108 -164 -184q0 -34 30 -50.5t105 -27.5zM410 498h755l-153 829z" />
    <glyph glyph-name="aogonek" unicode="&#x105;" horiz-adv-x="1169" 
d="M823 -262l-18 -74h-2q-222 15 -219 135q0 59 47.5 111.5t134.5 107.5l43 162q-169 -205 -420 -205q-90 0 -166 31.5t-126 100t-50 161.5q0 148 100 248q131 131 371 131q204 0 402 -59l8 28q14 54 14 105q0 119 -81 182.5t-234 63.5q-143 0 -303 -56l-19 90
q160 60 330 60q191 0 298 -86.5t107 -239.5q0 -70 -20 -137l-160 -598h-8q-164 -108 -164 -184q0 -34 30 -50.5t105 -27.5zM408 68q153 0 288 97t178 251l25 92q-192 49 -395 49q-179 0 -277 -98q-73 -73 -73 -178q0 -98 68.5 -155.5t185.5 -57.5z" />
    <glyph glyph-name="Cacute" unicode="&#x106;" horiz-adv-x="1511" 
d="M774 -27q-119 0 -225.5 40.5t-186.5 114t-127 184.5t-47 243q0 183 73 352.5t204 300.5q118 118 266.5 184t312.5 66q187 0 322 -85t205 -224l-92 -49q-76 130 -178 196t-263 66q-139 0 -264 -55.5t-225 -155.5q-118 -118 -184 -273t-66 -319q0 -222 136 -354.5
t349 -132.5q151 0 265.5 54.5t220.5 160.5l71 -66q-112 -115 -248 -181.5t-319 -66.5zM1018 1587l254 242l123 -57l-269 -185h-108z" />
    <glyph glyph-name="cacute" unicode="&#x107;" horiz-adv-x="1153" 
d="M557 -25q-69 0 -135 19t-124 57.5t-101.5 91.5t-69 126t-25.5 157q0 131 51 249.5t144 211.5q182 182 420 182q150 0 251.5 -70.5t157.5 -181.5l-86 -49q-58 98 -133 152.5t-196 54.5q-92 0 -178.5 -39.5t-155.5 -108.5q-77 -77 -121.5 -179.5t-44.5 -215.5
q0 -168 104 -265t248 -97q179 0 338 149l68 -65q-182 -179 -412 -179zM707 1219l254 272l126 -61l-276 -211h-104z" />
    <glyph glyph-name="Cdotaccent" unicode="&#x10a;" horiz-adv-x="1511" 
d="M774 -27q-119 0 -225.5 40.5t-186.5 114t-127 184.5t-47 243q0 183 73 352.5t204 300.5q118 118 266.5 184t312.5 66q187 0 322 -85t205 -224l-92 -49q-76 130 -178 196t-263 66q-139 0 -264 -55.5t-225 -155.5q-118 -118 -184 -273t-66 -319q0 -222 136 -354.5
t349 -132.5q151 0 265.5 54.5t220.5 160.5l71 -66q-112 -115 -248 -181.5t-319 -66.5zM1001 1587l43 156h156l-43 -156h-156z" />
    <glyph glyph-name="cdotaccent" unicode="&#x10b;" horiz-adv-x="1153" 
d="M557 -25q-69 0 -135 19t-124 57.5t-101.5 91.5t-69 126t-25.5 157q0 131 51 249.5t144 211.5q182 182 420 182q150 0 251.5 -70.5t157.5 -181.5l-86 -49q-58 98 -133 152.5t-196 54.5q-92 0 -178.5 -39.5t-155.5 -108.5q-77 -77 -121.5 -179.5t-44.5 -215.5
q0 -168 104 -265t248 -97q179 0 338 149l68 -65q-182 -179 -412 -179zM698 1214l47 175h136l-47 -175h-136z" />
    <glyph glyph-name="Ccaron" unicode="&#x10c;" horiz-adv-x="1511" 
d="M774 -27q-119 0 -225.5 40.5t-186.5 114t-127 184.5t-47 243q0 183 73 352.5t204 300.5q118 118 266.5 184t312.5 66q187 0 322 -85t205 -224l-92 -49q-76 130 -178 196t-263 66q-139 0 -264 -55.5t-225 -155.5q-118 -118 -184 -273t-66 -319q0 -222 136 -354.5
t349 -132.5q151 0 265.5 54.5t220.5 160.5l71 -66q-112 -115 -248 -181.5t-319 -66.5zM1411 1806l-270 -219h-94l-152 219h102l115 -125l184 125h115z" />
    <glyph glyph-name="ccaron" unicode="&#x10d;" horiz-adv-x="1153" 
d="M557 -25q-69 0 -135 19t-124 57.5t-101.5 91.5t-69 126t-25.5 157q0 131 51 249.5t144 211.5q182 182 420 182q150 0 251.5 -70.5t157.5 -181.5l-86 -49q-58 98 -133 152.5t-196 54.5q-92 0 -178.5 -39.5t-155.5 -108.5q-77 -77 -121.5 -179.5t-44.5 -215.5
q0 -168 104 -265t248 -97q179 0 338 149l68 -65q-182 -179 -412 -179zM690 1219l-137 249h90l107 -139l196 139h98l-272 -249h-82z" />
    <glyph glyph-name="Dcaron" unicode="&#x10e;" horiz-adv-x="1579" 
d="M74 0l385 1434h321q172 0 316.5 -48.5t240.5 -144.5q158 -158 158 -410q0 -332 -223 -555q-131 -131 -320 -203.5t-409 -72.5h-469zM1251 1174q-161 161 -477 161h-235l-332 -1237h350q389 0 635 246q192 192 192 479q0 221 -133 351zM1323 1786l-270 -219h-95l-151 219
h102l115 -125l184 125h115z" />
    <glyph glyph-name="dcaron" unicode="&#x10f;" horiz-adv-x="1341" 
d="M909 0l56 203q-191 -230 -435 -230q-181 0 -300 125t-119 316q0 289 196 485q81 81 182.5 125.5t210.5 44.5q85 0 156 -24t120.5 -66.5t83.5 -92.5t56 -110l193 719h100l-399 -1495h-101zM543 68q95 0 186 42t166 117q78 78 124 178t46 205q0 155 -100.5 260t-259.5 105
q-187 0 -322 -135q-78 -78 -121 -186.5t-43 -227.5q0 -160 90.5 -259t233.5 -99zM1475 1190l114 305h125v-6l-180 -299h-59z" />
    <glyph glyph-name="Dcroat" unicode="&#x110;" horiz-adv-x="1640" 
d="M162 672l26 98h154l178 664h322q172 0 316.5 -48.5t240.5 -144.5q157 -157 157 -410q0 -332 -223 -555q-131 -131 -320 -203.5t-409 -72.5h-469l180 672h-153zM1313 1174q-161 161 -477 161h-236l-151 -565h475l-27 -98h-475l-154 -574h350q389 0 635 246
q193 193 193 479q0 221 -133 351z" />
    <glyph glyph-name="dcroat" unicode="&#x111;" horiz-adv-x="1339" 
d="M868 1266l25 92h379l37 137h100l-37 -137h144l-25 -92h-143l-338 -1266h-101l56 203q-191 -230 -435 -230q-181 0 -300 125t-119 316q0 289 196 485q81 81 182.5 125.5t210.5 44.5q85 0 156 -24t120.5 -66.5t83.5 -92.5t56 -110l131 490h-379zM543 68q95 0 186 42
t166 117q78 78 124 178t46 205q0 155 -100.5 260t-259.5 105q-187 0 -322 -135q-78 -78 -121 -186.5t-43 -227.5q0 -160 90.5 -259t233.5 -99z" />
    <glyph glyph-name="Emacron" unicode="&#x112;" horiz-adv-x="1329" 
d="M74 0l385 1434h1009l-26 -99h-903l-152 -563h811l-27 -98h-811l-153 -576h913l-26 -98h-1020zM686 1620l27 100h635l-27 -100h-635z" />
    <glyph glyph-name="emacron" unicode="&#x113;" horiz-adv-x="1193" 
d="M1073 487h-858q-4 -17 -4 -69q0 -155 93 -252.5t243 -97.5q110 0 198 36t170 103l58 -70q-93 -79 -194 -120.5t-234 -41.5q-194 0 -318.5 124t-124.5 315q0 132 54 258t149 221q176 176 402 176q126 0 217.5 -55.5t134.5 -144.5t43 -199q0 -94 -29 -183zM383 838
q-109 -109 -150 -260h758q8 24 8 86q0 135 -74.5 224t-219.5 89q-183 0 -322 -139zM492 1272l26 96h623l-27 -96h-622z" />
    <glyph glyph-name="Ebreve" unicode="&#x114;" horiz-adv-x="1329" 
d="M74 0l385 1434h1009l-26 -99h-903l-152 -563h811l-27 -98h-811l-153 -576h913l-26 -98h-1020zM993 1563q-117 0 -176 53.5t-41 150.5h86q2 -54 36.5 -80t117.5 -26q145 0 211 106h94q-35 -97 -123 -150.5t-205 -53.5z" />
    <glyph glyph-name="ebreve" unicode="&#x115;" horiz-adv-x="1193" 
d="M1073 487h-858q-4 -17 -4 -69q0 -155 93 -252.5t243 -97.5q110 0 198 36t170 103l58 -70q-93 -79 -194 -120.5t-234 -41.5q-194 0 -318.5 124t-124.5 315q0 132 54 258t149 221q176 176 402 176q126 0 217.5 -55.5t134.5 -144.5t43 -199q0 -94 -29 -183zM383 838
q-109 -109 -150 -260h758q8 24 8 86q0 135 -74.5 224t-219.5 89q-183 0 -322 -139zM795 1214q-119 0 -177.5 61.5t-35.5 168.5h77q-2 -65 34 -98t120 -33q144 0 225 131h88q-36 -108 -125 -169t-206 -61z" />
    <glyph glyph-name="Edotaccent" unicode="&#x116;" horiz-adv-x="1329" 
d="M74 0l385 1434h1009l-26 -99h-903l-152 -563h811l-27 -98h-811l-153 -576h913l-26 -98h-1020zM909 1567l43 155h156l-43 -155h-156z" />
    <glyph glyph-name="edotaccent" unicode="&#x117;" horiz-adv-x="1193" 
d="M1073 487h-858q-4 -17 -4 -69q0 -155 93 -252.5t243 -97.5q110 0 198 36t170 103l58 -70q-93 -79 -194 -120.5t-234 -41.5q-194 0 -318.5 124t-124.5 315q0 132 54 258t149 221q176 176 402 176q126 0 217.5 -55.5t134.5 -144.5t43 -199q0 -94 -29 -183zM383 838
q-109 -109 -150 -260h758q8 24 8 86q0 135 -74.5 224t-219.5 89q-183 0 -322 -139zM721 1214l47 175h135l-47 -175h-135z" />
    <glyph glyph-name="Eogonek" unicode="&#x118;" horiz-adv-x="1329" 
d="M74 0l385 1434h1009l-26 -99h-903l-152 -563h811l-27 -98h-811l-153 -576h913l-26 -98h-4q-164 -108 -164 -184q0 -34 30 -50.5t105 -27.5l-19 -74h-2q-222 15 -219 135q0 53 39.5 100.5t114.5 100.5h-901z" />
    <glyph glyph-name="eogonek" unicode="&#x119;" horiz-adv-x="1193" 
d="M915 207l58 -70q-234 -174 -281 -221q-55 -55 -55 -100q0 -34 30 -50.5t105 -27.5l-18 -74h-2q-223 15 -220 135q0 93 132 187q-72 -11 -119 -11q-194 0 -318.5 124t-124.5 315q0 132 54 258t149 221q176 176 402 176q126 0 217.5 -55.5t134.5 -144.5t43 -199
q0 -94 -29 -183h-858q-4 -17 -4 -69q0 -155 93 -252.5t243 -97.5q110 0 198 36t170 103zM383 838q-109 -109 -150 -260h758q8 24 8 86q0 135 -74.5 224t-219.5 89q-183 0 -322 -139z" />
    <glyph glyph-name="Ecaron" unicode="&#x11a;" horiz-adv-x="1329" 
d="M74 0l385 1434h1009l-26 -99h-903l-152 -563h811l-27 -98h-811l-153 -576h913l-26 -98h-1020zM1319 1786l-270 -219h-95l-151 219h102l115 -125l184 125h115z" />
    <glyph glyph-name="ecaron" unicode="&#x11b;" horiz-adv-x="1193" 
d="M1073 487h-858q-4 -17 -4 -69q0 -155 93 -252.5t243 -97.5q110 0 198 36t170 103l58 -70q-93 -79 -194 -120.5t-234 -41.5q-194 0 -318.5 124t-124.5 315q0 132 54 258t149 221q176 176 402 176q126 0 217.5 -55.5t134.5 -144.5t43 -199q0 -94 -29 -183zM383 838
q-109 -109 -150 -260h758q8 24 8 86q0 135 -74.5 224t-219.5 89q-183 0 -322 -139zM713 1219l-138 249h91l106 -139l197 139h98l-272 -249h-82z" />
    <glyph glyph-name="Gbreve" unicode="&#x11e;" horiz-adv-x="1609" 
d="M811 -27q-178 0 -318 73.5t-220 212t-80 319.5q0 172 70 334t198 290q256 256 606 256q106 0 192.5 -21.5t148.5 -61t104.5 -83t78.5 -100.5l-84 -55q-34 51 -70.5 88.5t-89.5 70t-126 49.5t-164 17q-295 0 -514 -219q-113 -113 -176.5 -260.5t-63.5 -300.5
q0 -236 142 -374t372 -138q237 0 414 116l131 459h-477l26 98h582l-176 -616q-121 -78 -242 -116t-264 -38zM1112 1583q-117 0 -176 54t-41 151h86q2 -54 36.5 -80.5t117.5 -26.5q145 0 211 107h94q-35 -97 -123 -151t-205 -54z" />
    <glyph glyph-name="gbreve" unicode="&#x11f;" horiz-adv-x="1339" 
d="M483 -332q-139 0 -269 52t-224 143l73 74q190 -175 424 -175q205 0 322 117q51 51 84 116t59 159l37 131q-194 -207 -430 -207q-84 0 -162 28t-139.5 78.5t-98 128.5t-36.5 170q0 238 170 408q86 86 195.5 132t226.5 46q287 0 407 -278l68 253h100l-243 -915
q-54 -201 -164 -311q-150 -150 -400 -150zM578 172q202 0 358 156q141 141 141 311q0 132 -101 233t-265 101q-94 0 -182 -37t-156 -105q-142 -142 -142 -342q0 -99 51 -173t128.5 -109t167.5 -35zM856 1214q-119 0 -177.5 61.5t-35.5 168.5h78q-2 -65 33.5 -98t119.5 -33
q145 0 226 131h88q-36 -108 -125.5 -169t-206.5 -61z" />
    <glyph glyph-name="Gdotaccent" unicode="&#x120;" horiz-adv-x="1609" 
d="M811 -27q-178 0 -318 73.5t-220 212t-80 319.5q0 172 70 334t198 290q256 256 606 256q106 0 192.5 -21.5t148.5 -61t104.5 -83t78.5 -100.5l-84 -55q-34 51 -70.5 88.5t-89.5 70t-126 49.5t-164 17q-295 0 -514 -219q-113 -113 -176.5 -260.5t-63.5 -300.5
q0 -236 142 -374t372 -138q237 0 414 116l131 459h-477l26 98h582l-176 -616q-121 -78 -242 -116t-264 -38zM1028 1587l43 156h156l-43 -156h-156z" />
    <glyph glyph-name="gdotaccent" unicode="&#x121;" horiz-adv-x="1339" 
d="M483 -332q-139 0 -269 52t-224 143l73 74q190 -175 424 -175q205 0 322 117q51 51 84 116t59 159l37 131q-194 -207 -430 -207q-84 0 -162 28t-139.5 78.5t-98 128.5t-36.5 170q0 238 170 408q86 86 195.5 132t226.5 46q287 0 407 -278l68 253h100l-243 -915
q-54 -201 -164 -311q-150 -150 -400 -150zM578 172q202 0 358 156q141 141 141 311q0 132 -101 233t-265 101q-94 0 -182 -37t-156 -105q-142 -142 -142 -342q0 -99 51 -173t128.5 -109t167.5 -35zM782 1214l47 175h136l-47 -175h-136z" />
    <glyph glyph-name="Gcommaaccent" unicode="&#x122;" horiz-adv-x="1609" 
d="M811 -27q-178 0 -318 73.5t-220 212t-80 319.5q0 172 70 334t198 290q256 256 606 256q106 0 192.5 -21.5t148.5 -61t104.5 -83t78.5 -100.5l-84 -55q-34 51 -70.5 88.5t-89.5 70t-126 49.5t-164 17q-295 0 -514 -219q-113 -113 -176.5 -260.5t-63.5 -300.5
q0 -236 142 -374t372 -138q237 0 414 116l131 459h-477l26 98h582l-176 -616q-121 -78 -242 -116t-264 -38zM508 -461v49q66 12 98.5 38t46.5 77h-65l39 145h147l-35 -127q-24 -90 -77 -130.5t-154 -51.5z" />
    <glyph glyph-name="gcommaaccent" unicode="&#x123;" horiz-adv-x="1339" 
d="M483 -332q-139 0 -269 52t-224 143l73 74q190 -175 424 -175q205 0 322 117q51 51 84 116t59 159l37 131q-194 -207 -430 -207q-84 0 -162 28t-139.5 78.5t-98 128.5t-36.5 170q0 238 170 408q86 86 195.5 132t226.5 46q287 0 407 -278l68 253h100l-243 -915
q-54 -201 -164 -311q-150 -150 -400 -150zM578 172q202 0 358 156q141 141 141 311q0 132 -101 233t-265 101q-94 0 -182 -37t-156 -105q-142 -142 -142 -342q0 -99 51 -173t128.5 -109t167.5 -35zM1036 1524v-49q-66 -12 -98.5 -38t-46.5 -77h65l-38 -146h-148l35 127
q24 91 77.5 131.5t153.5 51.5z" />
    <glyph glyph-name="Hbar" unicode="&#x126;" horiz-adv-x="1548" 
d="M201 1042l24 93h152l82 299h106l-80 -299h908l80 299h106l-82 -299h156l-25 -93h-155l-279 -1042h-107l179 662h-908l-178 -662h-106l278 1042h-151zM385 760h907l76 282h-907z" />
    <glyph glyph-name="hbar" unicode="&#x127;" horiz-adv-x="1251" 
d="M248 1266l24 92h144l37 137h100l-37 -137h379l-25 -92h-378l-113 -416q92 107 182 163t213 56q156 0 249 -90t93 -242q0 -70 -22 -147l-156 -590h-100l159 598q17 66 17 129q0 117 -72 184.5t-197 67.5q-89 0 -178 -49t-159 -139.5t-99 -200.5l-157 -590h-101l340 1266
h-143z" />
    <glyph glyph-name="Imacron" unicode="&#x12a;" horiz-adv-x="561" 
d="M88 0l385 1434h107l-385 -1434h-107zM262 1620l27 100h635l-27 -100h-635z" />
    <glyph glyph-name="imacron" unicode="&#x12b;" horiz-adv-x="512" 
d="M66 0l280 1044h100l-280 -1044h-100zM147 1272l27 96h623l-27 -96h-623z" />
    <glyph glyph-name="Ibreve" unicode="&#x12c;" horiz-adv-x="561" 
d="M88 0l385 1434h107l-385 -1434h-107zM569 1563q-117 0 -176 53.5t-41 150.5h86q2 -54 36.5 -80t117.5 -26q145 0 211 106h94q-35 -97 -123 -150.5t-205 -53.5z" />
    <glyph glyph-name="ibreve" unicode="&#x12d;" horiz-adv-x="512" 
d="M66 0l280 1044h100l-280 -1044h-100zM451 1214q-119 0 -177.5 61.5t-35.5 168.5h77q-2 -65 34 -98t120 -33q144 0 225 131h88q-36 -108 -125 -169t-206 -61z" />
    <glyph glyph-name="Iogonek" unicode="&#x12e;" horiz-adv-x="561" 
d="M160 -262l-19 -74h-2q-222 15 -219 135q0 56 44.5 107t125.5 104l383 1424h107l-385 -1434h-7q-163 -108 -163 -184q0 -34 30 -50.5t105 -27.5z" />
    <glyph glyph-name="iogonek" unicode="&#x12f;" horiz-adv-x="512" 
d="M131 -262l-18 -74h-2q-223 15 -220 135q0 58 46.5 110.5t132.5 106.5l276 1028h100l-280 -1044h-6q-164 -108 -164 -184q0 -34 30 -50.5t105 -27.5zM408 1317l36 137h125l-37 -137h-124z" />
    <glyph glyph-name="Idotaccent" unicode="&#x130;" horiz-adv-x="561" 
d="M88 0l385 1434h107l-385 -1434h-107zM485 1567l43 155h156l-43 -155h-156z" />
    <glyph glyph-name="dotlessi" unicode="&#x131;" horiz-adv-x="512" 
d="M66 0l280 1044h100l-280 -1044h-100z" />
    <glyph glyph-name="Kcommaaccent" unicode="&#x136;" horiz-adv-x="1462" 
d="M74 0l385 1434h106l-250 -932l1147 932h158l-797 -641l434 -793h-122l-400 731l-459 -373l-96 -358h-106zM399 -451v50q66 12 99.5 37.5t46.5 76.5h-66l39 146h148l-35 -127q-24 -90 -78 -131t-154 -52z" />
    <glyph glyph-name="kcommaaccent" unicode="&#x137;" horiz-adv-x="1146" 
d="M51 0l402 1495h100l-297 -1108l811 657h145l-581 -466l311 -578h-117l-278 516l-328 -262l-67 -254h-101zM229 -461v49q66 12 99.5 38t46.5 77h-66l39 145h148l-35 -127q-24 -90 -77.5 -130.5t-154.5 -51.5z" />
    <glyph glyph-name="Lacute" unicode="&#x139;" 
d="M74 0l385 1434h106l-358 -1336h842l-27 -98h-948zM520 1567l254 241l123 -57l-268 -184h-109z" />
    <glyph glyph-name="lacute" unicode="&#x13a;" horiz-adv-x="512" 
d="M66 0l401 1495h100l-401 -1495h-100zM508 1614l254 241l123 -57l-269 -184h-108z" />
    <glyph glyph-name="Lcommaaccent" unicode="&#x13b;" 
d="M74 0l385 1434h106l-358 -1336h842l-27 -98h-948zM291 -461v49q66 12 98.5 38t46.5 77h-65l39 145h147l-35 -127q-24 -90 -77 -130.5t-154 -51.5z" />
    <glyph glyph-name="lcommaaccent" unicode="&#x13c;" horiz-adv-x="512" 
d="M66 0l401 1495h100l-401 -1495h-100zM-98 -461v49q66 12 98.5 38t46.5 77h-65l38 145h148l-35 -127q-24 -90 -77 -130.5t-154 -51.5z" />
    <glyph glyph-name="Lcaron" unicode="&#x13d;" 
d="M74 0l385 1434h106l-358 -1336h842l-27 -98h-948zM655 1130l115 306h125v-6l-180 -300h-60z" />
    <glyph glyph-name="lcaron" unicode="&#x13e;" horiz-adv-x="512" 
d="M66 0l401 1495h100l-401 -1495h-100zM633 1190l115 305h124v-6l-180 -299h-59z" />
    <glyph glyph-name="Ldot" unicode="&#x13f;" horiz-adv-x="1265" 
d="M899 659l45 166h148l-45 -166h-148zM74 0l385 1434h106l-358 -1336h842l-27 -98h-948z" />
    <glyph glyph-name="ldot" unicode="&#x140;" horiz-adv-x="634" 
d="M539 666l43 165h147l-43 -165h-147zM66 0l401 1495h100l-401 -1495h-100z" />
    <glyph glyph-name="Lslash" unicode="&#x141;" horiz-adv-x="1290" 
d="M145 600l25 98l166 47l184 689h107l-176 -656l497 142l-26 -99l-498 -143l-156 -580h842l-27 -98h-948l174 645z" />
    <glyph glyph-name="lslash" unicode="&#x142;" horiz-adv-x="632" 
d="M145 639l27 102l166 47l190 707h101l-183 -676l172 49l-28 -102l-170 -49l-193 -717h-100l184 686z" />
    <glyph glyph-name="Nacute" unicode="&#x143;" horiz-adv-x="1611" 
d="M74 0l385 1434h98l645 -1256l338 1256h102l-385 -1434h-77l-660 1282l-344 -1282h-102zM1022 1559l254 241l123 -57l-269 -184h-108z" />
    <glyph glyph-name="nacute" unicode="&#x144;" horiz-adv-x="1251" 
d="M51 0l279 1044h100l-51 -194q92 107 182 163t213 56q156 0 249 -90t93 -242q0 -70 -22 -147l-156 -590h-100l159 598q17 66 17 129q0 117 -72 184.5t-197 67.5q-89 0 -178 -49t-159 -139.5t-99 -200.5l-157 -590h-101zM750 1219l254 272l126 -61l-276 -211h-104z" />
    <glyph glyph-name="Ncommaaccent" unicode="&#x145;" horiz-adv-x="1611" 
d="M74 0l385 1434h98l645 -1256l338 1256h102l-385 -1434h-77l-660 1282l-344 -1282h-102zM453 -451v50q66 12 99 37.5t46 76.5h-66l39 146h148l-35 -127q-24 -91 -77.5 -131.5t-153.5 -51.5z" />
    <glyph glyph-name="ncommaaccent" unicode="&#x146;" horiz-adv-x="1251" 
d="M51 0l279 1044h100l-51 -194q92 107 182 163t213 56q156 0 249 -90t93 -242q0 -70 -22 -147l-156 -590h-100l159 598q17 66 17 129q0 117 -72 184.5t-197 67.5q-89 0 -178 -49t-159 -139.5t-99 -200.5l-157 -590h-101zM268 -461v49q66 12 99.5 38t46.5 77h-66l39 145h148
l-35 -127q-24 -90 -77.5 -130.5t-154.5 -51.5z" />
    <glyph glyph-name="Ncaron" unicode="&#x147;" horiz-adv-x="1611" 
d="M74 0l385 1434h98l645 -1256l338 1256h102l-385 -1434h-77l-660 1282l-344 -1282h-102zM1413 1778l-270 -219h-94l-152 219h102l115 -125l184 125h115z" />
    <glyph glyph-name="ncaron" unicode="&#x148;" horiz-adv-x="1251" 
d="M51 0l279 1044h100l-51 -194q92 107 182 163t213 56q156 0 249 -90t93 -242q0 -70 -22 -147l-156 -590h-100l159 598q17 66 17 129q0 117 -72 184.5t-197 67.5q-89 0 -178 -49t-159 -139.5t-99 -200.5l-157 -590h-101zM735 1219l-137 249h90l107 -139l196 139h99
l-273 -249h-82z" />
    <glyph glyph-name="Omacron" unicode="&#x14c;" horiz-adv-x="1732" 
d="M1022 1458q176 0 318.5 -82t221 -222.5t78.5 -311.5q0 -176 -69.5 -339t-194.5 -288q-113 -113 -258.5 -177.5t-302.5 -64.5q-132 0 -248 48.5t-196.5 131t-127 196t-46.5 241.5q0 176 69.5 339t194.5 288q113 113 258 177t303 64zM815 70q137 0 259.5 54.5t219.5 151.5
q111 111 173.5 259.5t62.5 306.5q0 223 -142 371.5t-366 148.5q-137 0 -259.5 -55t-219.5 -152q-111 -111 -173.5 -259t-62.5 -306q0 -223 142 -371.5t366 -148.5zM823 1640l27 101h635l-27 -101h-635z" />
    <glyph glyph-name="omacron" unicode="&#x14d;" horiz-adv-x="1294" 
d="M569 -25q-206 0 -335.5 130.5t-129.5 332.5q0 125 50.5 240t140.5 205q88 88 198.5 137t231.5 49q206 0 335.5 -130.5t129.5 -332.5q0 -125 -50.5 -239.5t-140.5 -204.5q-88 -88 -199 -137.5t-231 -49.5zM580 70q189 0 338 149q77 77 120 176t43 207q0 176 -99.5 274.5
t-266.5 98.5q-188 0 -338 -150q-77 -77 -120.5 -176t-43.5 -207q0 -176 100 -274t267 -98zM524 1272l27 96h623l-27 -96h-623z" />
    <glyph glyph-name="Obreve" unicode="&#x14e;" horiz-adv-x="1732" 
d="M1022 1458q176 0 318.5 -82t221 -222.5t78.5 -311.5q0 -176 -69.5 -339t-194.5 -288q-113 -113 -258.5 -177.5t-302.5 -64.5q-132 0 -248 48.5t-196.5 131t-127 196t-46.5 241.5q0 176 69.5 339t194.5 288q113 113 258 177t303 64zM815 70q137 0 259.5 54.5t219.5 151.5
q111 111 173.5 259.5t62.5 306.5q0 223 -142 371.5t-366 148.5q-137 0 -259.5 -55t-219.5 -152q-111 -111 -173.5 -259t-62.5 -306q0 -223 142 -371.5t366 -148.5zM1130 1583q-117 0 -176 54t-41 151h86q2 -54 36.5 -80.5t117.5 -26.5q145 0 211 107h94q-35 -97 -123 -151
t-205 -54z" />
    <glyph glyph-name="obreve" unicode="&#x14f;" horiz-adv-x="1294" 
d="M569 -25q-206 0 -335.5 130.5t-129.5 332.5q0 125 50.5 240t140.5 205q88 88 198.5 137t231.5 49q206 0 335.5 -130.5t129.5 -332.5q0 -125 -50.5 -239.5t-140.5 -204.5q-88 -88 -199 -137.5t-231 -49.5zM580 70q189 0 338 149q77 77 120 176t43 207q0 176 -99.5 274.5
t-266.5 98.5q-188 0 -338 -150q-77 -77 -120.5 -176t-43.5 -207q0 -176 100 -274t267 -98zM827 1214q-119 0 -177.5 61.5t-35.5 168.5h78q-2 -65 34 -98t120 -33q144 0 225 131h88q-36 -108 -125.5 -169t-206.5 -61z" />
    <glyph glyph-name="Ohungarumlaut" unicode="&#x150;" horiz-adv-x="1732" 
d="M1022 1458q176 0 318.5 -82t221 -222.5t78.5 -311.5q0 -176 -69.5 -339t-194.5 -288q-113 -113 -258.5 -177.5t-302.5 -64.5q-132 0 -248 48.5t-196.5 131t-127 196t-46.5 241.5q0 176 69.5 339t194.5 288q113 113 258 177t303 64zM815 70q137 0 259.5 54.5t219.5 151.5
q111 111 173.5 259.5t62.5 306.5q0 223 -142 371.5t-366 148.5q-137 0 -259.5 -55t-219.5 -152q-111 -111 -173.5 -259t-62.5 -306q0 -223 142 -371.5t366 -148.5zM891 1587l254 242l123 -57l-269 -185h-108zM1178 1587l254 242l122 -57l-268 -185h-108z" />
    <glyph glyph-name="ohungarumlaut" unicode="&#x151;" horiz-adv-x="1294" 
d="M569 -25q-206 0 -335.5 130.5t-129.5 332.5q0 125 50.5 240t140.5 205q88 88 198.5 137t231.5 49q206 0 335.5 -130.5t129.5 -332.5q0 -125 -50.5 -239.5t-140.5 -204.5q-88 -88 -199 -137.5t-231 -49.5zM580 70q189 0 338 149q77 77 120 176t43 207q0 176 -99.5 274.5
t-266.5 98.5q-188 0 -338 -150q-77 -77 -120.5 -176t-43.5 -207q0 -176 100 -274t267 -98zM592 1219l256 272l96 -59l-264 -213h-88zM903 1219l256 272l96 -59l-264 -213h-88z" />
    <glyph glyph-name="OE" unicode="&#x152;" horiz-adv-x="2330" 
d="M2095 0h-1192q-172 0 -316.5 48.5t-240.5 144.5q-158 158 -158 409q0 331 224 555q131 131 320 204t409 73h1329l-27 -99h-880l-152 -563h789l-27 -98h-789l-153 -576h891zM432 260q162 -162 477 -162h215l332 1237h-330q-389 0 -634 -245q-193 -193 -193 -480
q0 -217 133 -350z" />
    <glyph glyph-name="oe" unicode="&#x153;" horiz-adv-x="2146" 
d="M565 -25q-202 0 -331.5 130.5t-129.5 332.5q0 125 50.5 240t140.5 205q88 88 198.5 137t231.5 49q172 0 283 -94t147 -240q36 69 83.5 126.5t109 105.5t141.5 75t170 27q126 0 217.5 -55.5t134.5 -144.5t43 -199q0 -94 -29 -183h-858q-4 -17 -4 -69q0 -159 95.5 -254.5
t250.5 -95.5q110 0 192.5 35t166.5 104l57 -70q-196 -162 -409 -162q-166 0 -283 87t-150 231q-86 -141 -217.5 -229.5t-300.5 -88.5zM580 70q189 0 338 149q77 77 120 176t43 207q0 176 -99.5 274.5t-266.5 98.5q-188 0 -338 -150q-77 -77 -120.5 -176t-43.5 -207
q0 -176 100 -274t267 -98zM1335 838q-108 -108 -149 -260h758q8 24 8 86q0 135 -75 224t-220 89q-183 0 -322 -139z" />
    <glyph glyph-name="Racute" unicode="&#x154;" horiz-adv-x="1460" 
d="M1092 0l-308 594h-59h-385l-160 -594h-106l385 1434h514q258 0 385 -127q90 -90 90 -234q0 -172 -127 -299q-139 -139 -422 -170l315 -604h-122zM365 690h430q304 0 450 146q96 96 96 231q0 107 -63 170q-98 98 -309 98h-430zM874 1567l254 241l123 -57l-268 -184h-109z
" />
    <glyph glyph-name="racute" unicode="&#x155;" horiz-adv-x="811" 
d="M51 0l279 1044h100l-78 -296q232 327 537 313l-29 -111h-8q-91 0 -181.5 -35t-169 -100t-141 -165t-94.5 -222l-114 -428h-101zM526 1219l254 272l127 -61l-276 -211h-105z" />
    <glyph glyph-name="Rcommaaccent" unicode="&#x156;" horiz-adv-x="1460" 
d="M1092 0l-308 594h-59h-385l-160 -594h-106l385 1434h514q258 0 385 -127q90 -90 90 -234q0 -172 -127 -299q-139 -139 -422 -170l315 -604h-122zM365 690h430q304 0 450 146q96 96 96 231q0 107 -63 170q-98 98 -309 98h-430zM375 -451v50q66 12 99 37.5t46 76.5h-65
l39 146h147l-35 -127q-24 -91 -77.5 -131.5t-153.5 -51.5z" />
    <glyph glyph-name="rcommaaccent" unicode="&#x157;" horiz-adv-x="811" 
d="M51 0l279 1044h100l-78 -296q232 327 537 313l-29 -111h-8q-91 0 -181.5 -35t-169 -100t-141 -165t-94.5 -222l-114 -428h-101zM-98 -461v49q66 12 98.5 38t46.5 77h-65l38 145h148l-35 -127q-24 -90 -77 -130.5t-154 -51.5z" />
    <glyph glyph-name="Rcaron" unicode="&#x158;" horiz-adv-x="1460" 
d="M1092 0l-308 594h-59h-385l-160 -594h-106l385 1434h514q258 0 385 -127q90 -90 90 -234q0 -172 -127 -299q-139 -139 -422 -170l315 -604h-122zM365 690h430q304 0 450 146q96 96 96 231q0 107 -63 170q-98 98 -309 98h-430zM1268 1786l-271 -219h-94l-151 219h102
l115 -125l184 125h115z" />
    <glyph glyph-name="rcaron" unicode="&#x159;" horiz-adv-x="811" 
d="M51 0l279 1044h100l-78 -296q232 327 537 313l-29 -111h-8q-91 0 -181.5 -35t-169 -100t-141 -165t-94.5 -222l-114 -428h-101zM512 1219l-137 249h90l106 -139l197 139h98l-272 -249h-82z" />
    <glyph glyph-name="Sacute" unicode="&#x15a;" horiz-adv-x="1306" 
d="M612 -20q-376 0 -571 274l82 59q94 -121 213 -179t287 -58q177 0 295 89t118 224q0 94 -68.5 155.5t-244.5 133.5q-228 89 -319 170.5t-91 210.5q0 141 105 246q149 149 409 149q157 0 287 -59.5t211 -159.5l-82 -66q-160 189 -426 189q-178 0 -286.5 -86t-108.5 -205
q0 -95 79 -159.5t263 -133.5q202 -75 291.5 -161.5t89.5 -215.5q0 -149 -113 -262q-74 -74 -181.5 -114.5t-238.5 -40.5zM854 1587l254 242l123 -57l-268 -185h-109z" />
    <glyph glyph-name="sacute" unicode="&#x15b;" horiz-adv-x="1013" 
d="M444 -23q-261 0 -442 181l72 71q162 -159 383 -159q105 0 187.5 58t82.5 148q0 64 -49 112t-178 95q-156 58 -224.5 120t-68.5 161q0 128 107 215.5t280 87.5q104 0 205 -39.5t172 -99.5l-66 -76q-65 54 -149.5 88.5t-171.5 34.5q-125 0 -198 -58t-73 -137
q0 -63 47.5 -106.5t188.5 -98.5q155 -62 220 -126t65 -156q0 -135 -114 -225.5t-276 -90.5zM612 1219l254 272l127 -61l-276 -211h-105z" />
    <glyph glyph-name="Scedilla" unicode="&#x15e;" horiz-adv-x="1306" 
d="M375 -303l-99 53l224 238q-301 37 -459 266l82 59q94 -121 213 -179t287 -58q177 0 295 89t118 224q0 94 -68.5 155.5t-244.5 133.5q-228 89 -319 170.5t-91 210.5q0 141 105 246q149 149 409 149q157 0 287 -59.5t211 -159.5l-82 -66q-160 189 -426 189
q-178 0 -286.5 -86t-108.5 -205q0 -95 79 -159.5t263 -133.5q202 -75 291.5 -161.5t89.5 -215.5q0 -149 -113 -262q-74 -74 -181.5 -114.5t-238.5 -40.5h-22z" />
    <glyph glyph-name="scedilla" unicode="&#x15f;" horiz-adv-x="1013" 
d="M209 -303l-98 53l223 238q-199 37 -332 170l72 71q162 -159 383 -159q105 0 187.5 58t82.5 148q0 64 -49 112t-178 95q-156 58 -224.5 120t-68.5 161q0 128 107 215.5t280 87.5q104 0 205 -39.5t172 -99.5l-66 -76q-65 54 -149.5 88.5t-171.5 34.5q-125 0 -198 -58
t-73 -137q0 -63 47.5 -106.5t188.5 -98.5q155 -62 220 -126t65 -156q0 -135 -114 -225.5t-276 -90.5h-22z" />
    <glyph glyph-name="Scaron" unicode="&#x160;" horiz-adv-x="1306" 
d="M612 -20q-376 0 -571 274l82 59q94 -121 213 -179t287 -58q177 0 295 89t118 224q0 94 -68.5 155.5t-244.5 133.5q-228 89 -319 170.5t-91 210.5q0 141 105 246q149 149 409 149q157 0 287 -59.5t211 -159.5l-82 -66q-160 189 -426 189q-178 0 -286.5 -86t-108.5 -205
q0 -95 79 -159.5t263 -133.5q202 -75 291.5 -161.5t89.5 -215.5q0 -149 -113 -262q-74 -74 -181.5 -114.5t-238.5 -40.5zM1245 1806l-270 -219h-94l-152 219h102l115 -125l184 125h115z" />
    <glyph glyph-name="scaron" unicode="&#x161;" horiz-adv-x="1013" 
d="M444 -23q-261 0 -442 181l72 71q162 -159 383 -159q105 0 187.5 58t82.5 148q0 64 -49 112t-178 95q-156 58 -224.5 120t-68.5 161q0 128 107 215.5t280 87.5q104 0 205 -39.5t172 -99.5l-66 -76q-65 54 -149.5 88.5t-171.5 34.5q-125 0 -198 -58t-73 -137
q0 -63 47.5 -106.5t188.5 -98.5q155 -62 220 -126t65 -156q0 -135 -114 -225.5t-276 -90.5zM598 1219l-137 249h90l106 -139l197 139h98l-272 -249h-82z" />
    <glyph glyph-name="Tcommaaccent" unicode="&#x162;" horiz-adv-x="1259" 
d="M428 0l358 1335h-499l26 99h1106l-26 -99h-500l-358 -1335h-107zM266 -461v49q66 12 99.5 38t46.5 77h-66l39 145h147l-34 -127q-24 -90 -77.5 -130.5t-154.5 -51.5z" />
    <glyph glyph-name="Tcommaaccent" unicode="&#x21a;" horiz-adv-x="1259" 
d="M428 0l358 1335h-499l26 99h1106l-26 -99h-500l-358 -1335h-107zM266 -461v49q66 12 99.5 38t46.5 77h-66l39 145h147l-34 -127q-24 -90 -77.5 -130.5t-154.5 -51.5z" />
    <glyph glyph-name="tcommaaccent" unicode="&#x163;" horiz-adv-x="811" 
d="M422 -18q-111 0 -180.5 51.5t-69.5 154.5q0 47 12 101l178 663h-151l25 92h151l90 334h101l-91 -334h361l-25 -92h-360l-178 -665q-11 -50 -11 -88q0 -125 170 -125q73 0 152 32l-27 -98q-62 -26 -147 -26zM115 -461v49q66 12 98.5 38t46.5 77h-65l38 145h148l-35 -127
q-24 -90 -77 -130.5t-154 -51.5z" />
    <glyph glyph-name="tcommaaccent" unicode="&#x21b;" horiz-adv-x="811" 
d="M422 -18q-111 0 -180.5 51.5t-69.5 154.5q0 47 12 101l178 663h-151l25 92h151l90 334h101l-91 -334h361l-25 -92h-360l-178 -665q-11 -50 -11 -88q0 -125 170 -125q73 0 152 32l-27 -98q-62 -26 -147 -26zM115 -461v49q66 12 98.5 38t46.5 77h-65l38 145h148l-35 -127
q-24 -90 -77 -130.5t-154 -51.5z" />
    <glyph glyph-name="Tcaron" unicode="&#x164;" horiz-adv-x="1259" 
d="M428 0l358 1335h-499l26 99h1106l-26 -99h-500l-358 -1335h-107zM1233 1786l-270 -219h-95l-151 219h102l115 -125l184 125h115z" />
    <glyph glyph-name="tcaron" unicode="&#x165;" horiz-adv-x="811" 
d="M422 -18q-111 0 -180.5 51.5t-69.5 154.5q0 47 12 101l178 663h-151l25 92h151l90 334h101l-91 -334h361l-25 -92h-360l-178 -665q-11 -50 -11 -88q0 -125 170 -125q73 0 152 32l-27 -98q-62 -26 -147 -26zM711 1190l114 305h125v-6l-180 -299h-59z" />
    <glyph glyph-name="Umacron" unicode="&#x16a;" horiz-adv-x="1548" 
d="M713 -23q-127 0 -226.5 34.5t-162 96t-95 143t-32.5 177.5q0 109 28 221l209 785h107l-222 -834q-18 -74 -18 -164q0 -162 106.5 -262t313.5 -100q203 0 350 147q134 134 201 381l223 832h107l-230 -854q-72 -267 -227 -422q-181 -181 -432 -181zM729 1612l27 100h635
l-27 -100h-635z" />
    <glyph glyph-name="umacron" unicode="&#x16b;" horiz-adv-x="1253" 
d="M477 -25q-156 0 -249 90t-93 242q0 67 23 148l155 589h101l-160 -598q-16 -62 -16 -129q0 -117 71.5 -184t196.5 -67q89 0 178 49t159 139.5t99 200.5l158 589h100l-278 -1044h-101l51 195q-86 -105 -179 -162.5t-216 -57.5zM489 1272l27 96h623l-27 -96h-623z" />
    <glyph glyph-name="Ubreve" unicode="&#x16c;" horiz-adv-x="1548" 
d="M713 -23q-127 0 -226.5 34.5t-162 96t-95 143t-32.5 177.5q0 109 28 221l209 785h107l-222 -834q-18 -74 -18 -164q0 -162 106.5 -262t313.5 -100q203 0 350 147q134 134 201 381l223 832h107l-230 -854q-72 -267 -227 -422q-181 -181 -432 -181zM1038 1554
q-117 0 -176 54t-41 151h86q2 -54 36.5 -80t117.5 -26q145 0 211 106h94q-35 -97 -123 -151t-205 -54z" />
    <glyph glyph-name="ubreve" unicode="&#x16d;" horiz-adv-x="1253" 
d="M477 -25q-156 0 -249 90t-93 242q0 67 23 148l155 589h101l-160 -598q-16 -62 -16 -129q0 -117 71.5 -184t196.5 -67q89 0 178 49t159 139.5t99 200.5l158 589h100l-278 -1044h-101l51 195q-86 -105 -179 -162.5t-216 -57.5zM793 1214q-119 0 -177.5 61.5t-35.5 168.5h77
q-2 -65 34 -98t120 -33q144 0 225 131h88q-36 -108 -125 -169t-206 -61z" />
    <glyph glyph-name="Uring" unicode="&#x16e;" horiz-adv-x="1548" 
d="M713 -23q-127 0 -226.5 34.5t-162 96t-95 143t-32.5 177.5q0 109 28 221l209 785h107l-222 -834q-18 -74 -18 -164q0 -162 106.5 -262t313.5 -100q203 0 350 147q134 134 201 381l223 832h107l-230 -854q-72 -267 -227 -422q-181 -181 -432 -181zM1110 1923
q86 0 139.5 -48t53.5 -122q0 -93 -75 -156t-173 -63q-86 0 -139.5 48t-53.5 122q0 92 75 155.5t173 63.5zM1063 1599q64 0 112 42t48 106q0 49 -31.5 80t-89.5 31q-64 0 -112 -42t-48 -106q0 -51 33.5 -81t87.5 -30z" />
    <glyph glyph-name="uring" unicode="&#x16f;" horiz-adv-x="1253" 
d="M477 -25q-156 0 -249 90t-93 242q0 67 23 148l155 589h101l-160 -598q-16 -62 -16 -129q0 -117 71.5 -184t196.5 -67q89 0 178 49t159 139.5t99 200.5l158 589h100l-278 -1044h-101l51 195q-86 -105 -179 -162.5t-216 -57.5zM1061 1427q0 -89 -74 -155t-168 -66
q-91 0 -148 54t-57 135q0 89 74 155t168 66q91 0 148 -54t57 -135zM688 1397q0 -55 35.5 -90t97.5 -35q67 0 116.5 44.5t49.5 108.5q0 55 -35.5 90t-97.5 35q-67 0 -116.5 -44.5t-49.5 -108.5z" />
    <glyph glyph-name="Uhungarumlaut" unicode="&#x170;" horiz-adv-x="1548" 
d="M713 -23q-127 0 -226.5 34.5t-162 96t-95 143t-32.5 177.5q0 109 28 221l209 785h107l-222 -834q-18 -74 -18 -164q0 -162 106.5 -262t313.5 -100q203 0 350 147q134 134 201 381l223 832h107l-230 -854q-72 -267 -227 -422q-181 -181 -432 -181zM797 1559l254 241
l123 -57l-269 -184h-108zM1083 1559l254 241l123 -57l-268 -184h-109z" />
    <glyph glyph-name="uhungarumlaut" unicode="&#x171;" horiz-adv-x="1253" 
d="M477 -25q-156 0 -249 90t-93 242q0 67 23 148l155 589h101l-160 -598q-16 -62 -16 -129q0 -117 71.5 -184t196.5 -67q89 0 178 49t159 139.5t99 200.5l158 589h100l-278 -1044h-101l51 195q-86 -105 -179 -162.5t-216 -57.5zM555 1219l256 272l96 -59l-264 -213h-88z
M866 1219l256 272l97 -59l-265 -213h-88z" />
    <glyph glyph-name="Uogonek" unicode="&#x172;" horiz-adv-x="1548" 
d="M698 -262l-18 -74h-2q-222 15 -219 135q0 93 135 189q-195 28 -296 147t-101 293q0 109 28 221l209 785h107l-222 -834q-18 -74 -18 -164q0 -162 106.5 -262t313.5 -100q203 0 350 147q134 134 201 381l223 832h107l-230 -854q-72 -267 -227 -422q-181 -181 -432 -181
h-19q-131 -91 -131 -161q0 -34 30 -50.5t105 -27.5z" />
    <glyph glyph-name="uogonek" unicode="&#x173;" horiz-adv-x="1253" 
d="M881 -262l-19 -74h-2q-222 15 -219 135q0 58 48 110.5t138 110.5l45 175q-86 -105 -179 -162.5t-216 -57.5q-156 0 -249 90t-93 242q0 67 23 148l155 589h101l-160 -598q-16 -62 -16 -129q0 -117 71.5 -184t196.5 -67q89 0 178 49t159 139.5t99 200.5l158 589h100
l-278 -1044h-13q-164 -108 -164 -184q0 -34 30.5 -50.5t105.5 -27.5z" />
    <glyph glyph-name="Wcircumflex" unicode="&#x174;" horiz-adv-x="2199" 
d="M440 -10l-133 1444h111l108 -1276l762 1280h82l78 -1280l793 1276h118l-907 -1444h-86l-86 1245l-754 -1245h-86zM1085 1567l271 219h94l152 -219h-103l-115 125l-184 -125h-115z" />
    <glyph glyph-name="wcircumflex" unicode="&#x175;" horiz-adv-x="1730" 
d="M303 -8l-100 1052h102l76 -909l559 914h80l72 -914l563 909h110l-665 -1052h-88l-72 895l-553 -895h-84zM774 1219l273 249h81l138 -249h-90l-107 139l-197 -139h-98z" />
    <glyph glyph-name="Ycircumflex" unicode="&#x176;" horiz-adv-x="1368" 
d="M479 0l156 582l-375 852h117l330 -770l745 770h143l-862 -879l-147 -555h-107zM657 1559l271 219h94l152 -219h-103l-115 124l-184 -124h-115z" />
    <glyph glyph-name="ycircumflex" unicode="&#x177;" horiz-adv-x="1163" 
d="M387 2l-213 1042h109l180 -933l627 933h122l-743 -1081q-114 -163 -212 -230t-216 -67q-117 0 -221 72l55 78q84 -60 178 -60q83 0 162 55.5t172 190.5zM455 1219l272 249h82l137 -249h-90l-106 139l-197 -139h-98z" />
    <glyph glyph-name="Ydieresis" unicode="&#x178;" horiz-adv-x="1368" 
d="M479 0l156 582l-375 852h117l330 -770l745 770h143l-862 -879l-147 -555h-107zM676 1559l43 155h151l-43 -155h-151zM1036 1559l43 155h150l-43 -155h-150z" />
    <glyph glyph-name="Zacute" unicode="&#x179;" horiz-adv-x="1355" 
d="M-39 0l16 59l1303 1278h-926l27 97h1092l-17 -60l-1302 -1278h966l-26 -96h-1133zM846 1567l254 241l123 -57l-269 -184h-108z" />
    <glyph glyph-name="zacute" unicode="&#x17a;" horiz-adv-x="1118" 
d="M-35 0l17 57l972 897h-704l24 90h869l-17 -57l-972 -897h739l-25 -90h-903zM645 1219l254 272l127 -61l-276 -211h-105z" />
    <glyph glyph-name="Zdotaccent" unicode="&#x17b;" horiz-adv-x="1355" 
d="M-39 0l16 59l1303 1278h-926l27 97h1092l-17 -60l-1302 -1278h966l-26 -96h-1133zM829 1567l43 155h156l-43 -155h-156z" />
    <glyph glyph-name="zdotaccent" unicode="&#x17c;" horiz-adv-x="1118" 
d="M-35 0l17 57l972 897h-704l24 90h869l-17 -57l-972 -897h739l-25 -90h-903zM637 1214l47 175h135l-47 -175h-135z" />
    <glyph glyph-name="Zcaron" unicode="&#x17d;" horiz-adv-x="1355" 
d="M-39 0l16 59l1303 1278h-926l27 97h1092l-17 -60l-1302 -1278h966l-26 -96h-1133zM1239 1786l-270 -219h-95l-151 219h102l115 -125l184 125h115z" />
    <glyph glyph-name="zcaron" unicode="&#x17e;" horiz-adv-x="1118" 
d="M-35 0l17 57l972 897h-704l24 90h869l-17 -57l-972 -897h739l-25 -90h-903zM631 1219l-137 249h90l106 -139l197 139h98l-272 -249h-82z" />
    <glyph glyph-name="uni018F" unicode="&#x18f;" horiz-adv-x="1650" 
d="M195 522q0 127 41 248h1208q6 46 6 92q0 233 -135 366.5t-363 133.5q-260 0 -520 -199l-59 80q276 215 583 215q271 0 437 -161.5t166 -434.5q0 -175 -75 -354.5t-200 -296.5q-245 -236 -557 -236q-106 0 -194 28.5t-150 79t-104.5 119.5t-63 149.5t-20.5 170.5z
M1200 270q166 163 227 404h-1108q-16 -66 -16 -158t25.5 -170t76.5 -140t137.5 -97t200.5 -35q126 0 243.5 52.5t213.5 143.5z" />
    <glyph glyph-name="florin" unicode="&#x192;" horiz-adv-x="1077" 
d="M68 -20q-61 0 -115 16l27 88q42 -14 96 -14q72 0 126 51.5t105 167.5l219 497h-219l25 93h233l121 274q66 155 154.5 228t210.5 73q86 0 170 -31l-31 -86q-79 27 -143 27q-86 0 -150.5 -56.5t-118.5 -179.5l-110 -249h331l-24 -93h-346l-230 -522q-68 -156 -146.5 -220
t-184.5 -64z" />
    <glyph glyph-name="Aringacute" unicode="&#x1fa;" horiz-adv-x="1554" 
d="M-70 0l1002 1370q-92 50 -92 148q0 92 74.5 155.5t172.5 63.5q86 0 139.5 -48t53.5 -122q0 -75 -50.5 -132.5t-125.5 -78.5l264 -1356h-108l-74 401h-846l-291 -401h-119zM410 498h755l-153 829zM1040 1413q64 0 112 42t48 106q0 49 -31.5 79.5t-89.5 30.5
q-64 0 -111.5 -41.5t-47.5 -105.5q0 -51 33 -81t87 -30zM1071 1798l250 221l117 -57l-258 -164h-109z" />
    <glyph glyph-name="aringacute" unicode="&#x1fb;" horiz-adv-x="1169" 
d="M807 1679l248 242l112 -61l-262 -181h-98zM389 -25q-90 0 -166 31.5t-126 100t-50 161.5q0 148 100 248q131 131 371 131q204 0 402 -59l8 28q14 54 14 105q0 119 -81 182.5t-234 63.5q-143 0 -303 -56l-19 90q160 60 330 60q191 0 298 -86.5t107 -239.5q0 -70 -20 -137
l-160 -598h-98l47 180q-169 -205 -420 -205zM408 68q153 0 288 97t178 251l25 92q-192 49 -395 49q-179 0 -277 -98q-73 -73 -73 -178q0 -98 68.5 -155.5t185.5 -57.5zM1014 1436q0 -89 -74 -155.5t-168 -66.5q-91 0 -148 54t-57 135q0 89 74 155t168 66q91 0 148 -53.5
t57 -134.5zM641 1405q0 -55 35.5 -90t97.5 -35q67 0 116.5 45t49.5 109q0 55 -35.5 90t-97.5 35q-67 0 -116.5 -45t-49.5 -109z" />
    <glyph glyph-name="AEacute" unicode="&#x1fc;" horiz-adv-x="2154" 
d="M-66 0l1252 1434h1108l-27 -99h-883l-151 -563h790l-26 -98h-791l-153 -576h893l-27 -98h-999l108 401h-616l-349 -401h-129zM496 498h557l225 839h-55zM1485 1567l254 241l123 -57l-269 -184h-108z" />
    <glyph glyph-name="aeacute" unicode="&#x1fd;" horiz-adv-x="1980" 
d="M397 -25q-93 0 -171 31.5t-128.5 100t-50.5 161.5q0 148 100 248q131 131 371 131q204 0 402 -59l8 28q14 54 14 105q0 119 -81 182.5t-234 63.5q-143 0 -303 -56l-19 90q160 60 330 60q165 0 268 -65t129 -183q86 116 206 186t255 70q126 0 217.5 -55.5t134.5 -144.5
t43 -199q0 -97 -28 -183h-859q-4 -17 -4 -69q0 -159 95.5 -254.5t250.5 -95.5q110 0 192.5 35t166.5 104l57 -70q-196 -162 -409 -162q-155 0 -262 68.5t-156 187.5q-246 -256 -535 -256zM414 68q259 0 491 256q-15 83 -2 182q-181 51 -399 51q-179 0 -277 -98
q-73 -73 -73 -178q0 -98 70.5 -155.5t189.5 -57.5zM1169 838q-108 -108 -149 -260h758q8 24 8 86q0 135 -75 224t-220 89q-183 0 -322 -139zM1065 1219l254 272l127 -61l-277 -211h-104z" />
    <glyph glyph-name="Oslashacute" unicode="&#x1fe;" horiz-adv-x="1732" 
d="M1022 1458q288 0 469 -207l227 193h142l-316 -264q96 -146 96 -338q0 -176 -69.5 -339t-194.5 -288q-113 -113 -258.5 -177.5t-302.5 -64.5q-289 0 -469 205l-227 -190h-142l314 262q-94 153 -94 340q0 176 69.5 339t194.5 288q113 113 258 177t303 64zM307 590
q0 -150 66 -273l1040 871q-144 174 -391 174q-137 0 -259.5 -55t-219.5 -152q-111 -111 -173.5 -259t-62.5 -306zM815 70q137 0 259.5 54.5t219.5 151.5q111 111 173.5 259.5t62.5 306.5q0 145 -68 272l-1038 -872q143 -172 391 -172zM1063 1587l254 242l123 -57l-269 -185
h-108z" />
    <glyph glyph-name="oslashacute" unicode="&#x1ff;" horiz-adv-x="1294" 
d="M-74 -12l244 198q-66 111 -66 252q0 125 50.5 240t140.5 205q88 88 198.5 137t231.5 49q218 0 348 -143l158 131h137l-244 -201q66 -116 66 -250q0 -125 -50.5 -239.5t-140.5 -204.5q-88 -88 -199 -137.5t-231 -49.5q-217 0 -348 144l-158 -131h-137zM213 442
q0 -116 39 -190l743 610q-101 113 -280 113q-188 0 -338 -150q-77 -77 -120.5 -176t-43.5 -207zM580 70q189 0 338 149q77 77 120 176t43 207q0 110 -39 189l-743 -611q98 -110 281 -110zM762 1219l254 272l127 -61l-277 -211h-104z" />
    <glyph glyph-name="Scommaaccent" unicode="&#x218;" horiz-adv-x="1306" 
d="M612 -20q-376 0 -571 274l82 59q94 -121 213 -179t287 -58q177 0 295 89t118 224q0 94 -68.5 155.5t-244.5 133.5q-228 89 -319 170.5t-91 210.5q0 141 105 246q149 149 409 149q157 0 287 -59.5t211 -159.5l-82 -66q-160 189 -426 189q-178 0 -286.5 -86t-108.5 -205
q0 -95 79 -159.5t263 -133.5q202 -75 291.5 -161.5t89.5 -215.5q0 -149 -113 -262q-74 -74 -181.5 -114.5t-238.5 -40.5zM274 -461v49q66 12 99.5 38t46.5 77h-66l39 145h148l-35 -127q-24 -90 -77.5 -130.5t-154.5 -51.5z" />
    <glyph glyph-name="scommaaccent" unicode="&#x219;" horiz-adv-x="1013" 
d="M444 -23q-261 0 -442 181l72 71q162 -159 383 -159q105 0 187.5 58t82.5 148q0 64 -49 112t-178 95q-156 58 -224.5 120t-68.5 161q0 128 107 215.5t280 87.5q104 0 205 -39.5t172 -99.5l-66 -76q-65 54 -149.5 88.5t-171.5 34.5q-125 0 -198 -58t-73 -137
q0 -63 47.5 -106.5t188.5 -98.5q155 -62 220 -126t65 -156q0 -135 -114 -225.5t-276 -90.5zM131 -461v49q66 12 98.5 38t46.5 77h-65l39 145h147l-35 -127q-24 -90 -77 -130.5t-154 -51.5z" />
    <glyph glyph-name="schwa" unicode="&#x259;" horiz-adv-x="1193" 
d="M94 375q0 93 29 182h858q4 46 4 70q0 155 -93 252.5t-243 97.5q-110 0 -198 -36t-170 -103l-58 69q93 79 194 120.5t234 41.5q194 0 318.5 -123.5t124.5 -314.5q0 -132 -54 -258t-149 -221q-177 -177 -402 -177q-95 0 -171.5 32t-124.5 87.5t-73.5 127t-25.5 153.5z
M813 207q99 99 150 260h-758q-8 -24 -8 -86q0 -135 75 -224t220 -89q182 0 321 139z" />
    <glyph glyph-name="circumflex" unicode="&#x2c6;" horiz-adv-x="1024" 
d="M455 1219l272 249h82l137 -249h-90l-106 139l-197 -139h-98z" />
    <glyph glyph-name="caron" unicode="&#x2c7;" horiz-adv-x="1024" 
d="M657 1219l-137 249h90l107 -139l196 139h99l-273 -249h-82z" />
    <glyph glyph-name="breve" unicode="&#x2d8;" horiz-adv-x="1024" 
d="M696 1214q-119 0 -177.5 61.5t-35.5 168.5h78q-2 -65 34 -98t120 -33q144 0 225 131h88q-36 -108 -125.5 -169t-206.5 -61z" />
    <glyph glyph-name="dotaccent" unicode="&#x2d9;" horiz-adv-x="1024" 
d="M629 1214l47 175h135l-47 -175h-135z" />
    <glyph glyph-name="ring" unicode="&#x2da;" horiz-adv-x="1024" 
d="M979 1436q0 -89 -74 -155.5t-168 -66.5q-91 0 -148 54t-57 135q0 89 74 155t168 66q91 0 148 -53.5t57 -134.5zM606 1405q0 -55 35.5 -90t97.5 -35q67 0 116.5 45t49.5 109q0 55 -35.5 90t-97.5 35q-67 0 -116.5 -45t-49.5 -109z" />
    <glyph glyph-name="ogonek" unicode="&#x2db;" horiz-adv-x="1024" 
d="M449 -262l-19 -74h-2q-222 15 -219 135q0 63 54.5 119.5t156.5 118.5l61 -35q-168 -110 -168 -186q0 -34 30.5 -50.5t105.5 -27.5z" />
    <glyph glyph-name="tilde" unicode="&#x2dc;" horiz-adv-x="1024" 
d="M969 1427l71 -18q-48 -108 -93.5 -149t-108.5 -41q-41 0 -129 43q-73 41 -117 41q-37 0 -63 -22t-58 -81l-72 19q48 107 94 148.5t109 41.5q41 0 129 -43q73 -41 117 -41q37 0 63 21.5t58 80.5z" />
    <glyph glyph-name="hungarumlaut" unicode="&#x2dd;" horiz-adv-x="1024" 
d="M393 1219l256 272l96 -59l-264 -213h-88zM705 1219l256 272l96 -59l-264 -213h-88z" />
    <glyph glyph-name="commaaccent" unicode="&#x326;" horiz-adv-x="1024" 
d="M139 -461v49q66 12 99.5 38t46.5 77h-66l39 145h148l-35 -127q-24 -90 -77.5 -130.5t-154.5 -51.5z" />
    <glyph glyph-name="uni0384" unicode="&#x384;" horiz-adv-x="1024" 
d="M604 1219l207 294l131 -53l-242 -241h-96z" />
    <glyph glyph-name="uni0385" unicode="&#x385;" horiz-adv-x="1024" 
d="M860 1219l45 163h142l-46 -163h-141zM395 1219l45 163h142l-45 -163h-142zM610 1219l160 325l131 -28l-199 -297h-92z" />
    <glyph glyph-name="uni0386" unicode="&#x386;" horiz-adv-x="1554" 
d="M-70 0l1055 1444h102l281 -1444h-108l-74 401h-846l-291 -401h-119zM410 498h755l-153 829zM319 1094l132 340h141l-197 -340h-76z" />
    <glyph glyph-name="uni0387" unicode="&#x387;" horiz-adv-x="493" 
d="M272 870l47 174h136l-47 -174h-136z" />
    <glyph glyph-name="uni0388" unicode="&#x388;" horiz-adv-x="1329" 
d="M74 0l385 1434h1009l-26 -99h-903l-152 -563h811l-27 -98h-811l-153 -576h913l-26 -98h-1020zM53 1094l131 340h142l-197 -340h-76z" />
    <glyph glyph-name="uni0389" unicode="&#x389;" horiz-adv-x="1548" 
d="M74 0l385 1434h106l-178 -664h907l179 664h106l-385 -1434h-107l181 672h-908l-180 -672h-106zM53 1094l131 340h142l-197 -340h-76z" />
    <glyph glyph-name="uni038A" unicode="&#x38a;" horiz-adv-x="561" 
d="M88 0l385 1434h107l-385 -1434h-107zM53 1094l131 340h142l-197 -340h-76z" />
    <glyph glyph-name="uni038C" unicode="&#x38c;" horiz-adv-x="1732" 
d="M1022 1458q176 0 318.5 -82t221 -222.5t78.5 -311.5q0 -176 -69.5 -339t-194.5 -288q-113 -113 -258.5 -177.5t-302.5 -64.5q-132 0 -248 48.5t-196.5 131t-127 196t-46.5 241.5q0 176 69.5 339t194.5 288q113 113 258 177t303 64zM815 70q137 0 259.5 54.5t219.5 151.5
q111 111 173.5 259.5t62.5 306.5q0 223 -142 371.5t-366 148.5q-137 0 -259.5 -55t-219.5 -152q-111 -111 -173.5 -259t-62.5 -306q0 -223 142 -371.5t366 -148.5zM31 1094l131 340h141l-197 -340h-75z" />
    <glyph glyph-name="uni038E" unicode="&#x38e;" horiz-adv-x="1368" 
d="M479 0l156 582l-375 852h117l330 -770l745 770h143l-862 -879l-147 -555h-107zM-78 1094l131 340h142l-197 -340h-76z" />
    <glyph glyph-name="uni038F" unicode="&#x38f;" horiz-adv-x="1767" 
d="M1032 1362q-145 0 -270.5 -51t-218.5 -144q-193 -193 -193 -481q0 -169 70.5 -310.5t228.5 -287.5l-24 -88h-596l26 98l465 -4q-146 139 -213 283.5t-67 308.5q0 159 56.5 297t162.5 244q231 231 583 231q288 0 461.5 -160.5t173.5 -425.5q0 -233 -140.5 -424
t-418.5 -354l451 4l-27 -98h-618l24 88q150 85 259.5 167.5t191.5 177t124 201.5t44 228q3 144 -58 256.5t-184.5 178t-292.5 65.5zM16 1094l131 340h142l-197 -340h-76z" />
    <glyph glyph-name="uni0390" unicode="&#x390;" horiz-adv-x="559" 
d="M104 162q0 48 23 135l199 747h100l-205 -770q-14 -58 -14 -98q0 -100 115 -100q43 0 88 10l-25 -92q-45 -10 -82 -10q-98 0 -148.5 45.5t-50.5 132.5zM608 1219l45 163h142l-45 -163h-142zM143 1219l45 163h142l-45 -163h-142zM358 1219l160 325l131 -28l-198 -297h-93z
" />
    <glyph glyph-name="uni0391" unicode="&#x391;" horiz-adv-x="1554" 
d="M-70 0l1055 1444h102l281 -1444h-108l-74 401h-846l-291 -401h-119zM410 498h755l-153 829z" />
    <glyph glyph-name="uni0392" unicode="&#x392;" horiz-adv-x="1468" 
d="M74 0l385 1434h530q197 0 313.5 -87t116.5 -239t-107 -254t-272 -133q124 -32 199.5 -105.5t75.5 -193.5q0 -187 -161.5 -304.5t-434.5 -117.5h-645zM207 98h518q222 0 351.5 86.5t129.5 237.5q0 123 -104.5 187.5t-274.5 64.5h-467zM387 772h442q217 0 348.5 90
t131.5 236q0 117 -86.5 177t-243.5 60h-440z" />
    <glyph glyph-name="uni0393" unicode="&#x393;" 
d="M74 0l385 1434h948l-27 -99h-841l-359 -1335h-106z" />
    <glyph glyph-name="uni0394" unicode="&#x394;" horiz-adv-x="1546" 
d="M1083 1444l287 -1364l-31 -80h-1386l10 80l1018 1364h102zM1008 1317l-906 -1219h1153z" />
    <glyph glyph-name="uni0395" unicode="&#x395;" horiz-adv-x="1329" 
d="M74 0l385 1434h1009l-26 -99h-903l-152 -563h811l-27 -98h-811l-153 -576h913l-26 -98h-1020z" />
    <glyph glyph-name="uni0396" unicode="&#x396;" horiz-adv-x="1355" 
d="M-39 0l16 59l1303 1278h-926l27 97h1092l-17 -60l-1302 -1278h966l-26 -96h-1133z" />
    <glyph glyph-name="uni0397" unicode="&#x397;" horiz-adv-x="1548" 
d="M74 0l385 1434h106l-178 -664h907l179 664h106l-385 -1434h-107l181 672h-908l-180 -672h-106z" />
    <glyph glyph-name="uni0398" unicode="&#x398;" horiz-adv-x="1732" 
d="M197 590q0 176 69.5 339t194.5 288q113 113 258 177t303 64q176 0 318.5 -82t221 -222.5t78.5 -311.5q0 -176 -69.5 -339t-194.5 -288q-113 -113 -258.5 -177.5t-302.5 -64.5q-132 0 -248 48.5t-196.5 131t-127 196t-46.5 241.5zM307 590q0 -223 142 -371.5t366 -148.5
q137 0 259.5 54.5t219.5 151.5q111 111 173.5 259.5t62.5 306.5q0 223 -142 371.5t-366 148.5q-137 0 -259.5 -55t-219.5 -152q-111 -111 -173.5 -259t-62.5 -306zM1337 772l-26 -102h-809l26 102h809z" />
    <glyph glyph-name="uni0399" unicode="&#x399;" horiz-adv-x="561" 
d="M88 0l385 1434h107l-385 -1434h-107z" />
    <glyph glyph-name="uni039A" unicode="&#x39a;" horiz-adv-x="1462" 
d="M74 0l385 1434h106l-250 -932l1147 932h158l-797 -641l434 -793h-122l-400 731l-459 -373l-96 -358h-106z" />
    <glyph glyph-name="uni039B" unicode="&#x39b;" horiz-adv-x="1509" 
d="M1061 1444l262 -1444h-111l-227 1311l-934 -1311h-121l1035 1444h96z" />
    <glyph glyph-name="uni039C" unicode="&#x39c;" horiz-adv-x="1779" 
d="M74 0l385 1434h88l348 -848l803 848h112l-385 -1434h-106l334 1245l-789 -825h-8l-346 825l-334 -1245h-102z" />
    <glyph glyph-name="uni039D" unicode="&#x39d;" horiz-adv-x="1611" 
d="M74 0l385 1434h98l645 -1256l338 1256h102l-385 -1434h-77l-660 1282l-344 -1282h-102z" />
    <glyph glyph-name="uni039E" unicode="&#x39e;" horiz-adv-x="1294" 
d="M1085 102l-26 -102h-1102l27 102h1101zM1434 1434l-29 -103h-1081l28 103h1082zM1198 774l-27 -102h-966l26 102h967z" />
    <glyph glyph-name="uni039F" unicode="&#x39f;" horiz-adv-x="1732" 
d="M1022 1458q176 0 318.5 -82t221 -222.5t78.5 -311.5q0 -176 -69.5 -339t-194.5 -288q-113 -113 -258.5 -177.5t-302.5 -64.5q-132 0 -248 48.5t-196.5 131t-127 196t-46.5 241.5q0 176 69.5 339t194.5 288q113 113 258 177t303 64zM815 70q137 0 259.5 54.5t219.5 151.5
q111 111 173.5 259.5t62.5 306.5q0 223 -142 371.5t-366 148.5q-137 0 -259.5 -55t-219.5 -152q-111 -111 -173.5 -259t-62.5 -306q0 -223 142 -371.5t366 -148.5z" />
    <glyph glyph-name="uni03A0" unicode="&#x3a0;" horiz-adv-x="1550" 
d="M74 0l385 1434h1122l-385 -1434h-106l358 1335h-909l-359 -1335h-106z" />
    <glyph glyph-name="uni03A1" unicode="&#x3a1;" horiz-adv-x="1357" 
d="M74 0l385 1434h446q266 0 395 -129q99 -99 99 -256q0 -197 -129 -326q-186 -186 -580 -186h-364l-146 -537h-106zM1219 1235q-100 100 -316 100h-364l-189 -702h344q347 0 498 151q100 100 100 260q0 118 -73 191z" />
    <glyph glyph-name="uni03A3" unicode="&#x3a3;" horiz-adv-x="1337" 
d="M930 709l-752 -611h942l-26 -98h-1104l20 80l785 645l-439 629l23 80h1085l-26 -99h-949z" />
    <glyph glyph-name="uni03A4" unicode="&#x3a4;" horiz-adv-x="1259" 
d="M428 0l358 1335h-499l26 99h1106l-26 -99h-500l-358 -1335h-107z" />
    <glyph glyph-name="uni03A5" unicode="&#x3a5;" horiz-adv-x="1368" 
d="M479 0l156 582l-375 852h117l330 -770l745 770h143l-862 -879l-147 -555h-107z" />
    <glyph glyph-name="uni03A6" unicode="&#x3a6;" horiz-adv-x="1822" 
d="M1110 1464h107l-48 -176q273 -23 429 -154t157 -341q0 -230 -166 -396q-243 -243 -719 -243h-6l-49 -185h-106l49 189q-272 23 -427.5 154t-156.5 341q0 230 166 396q243 243 719 243h4zM1647 788q0 174 -135 283.5t-371 122.5l-254 -944q413 0 620 207q140 140 140 331z
M283 657q0 -174 133.5 -283t369.5 -122l254 944q-411 0 -618 -207q-139 -139 -139 -332z" />
    <glyph glyph-name="uni03A7" unicode="&#x3a7;" horiz-adv-x="1417" 
d="M-47 0l749 741l-380 693h114l342 -631l635 631h137l-721 -711l394 -723h-115l-354 662l-664 -662h-137z" />
    <glyph glyph-name="uni03A8" unicode="&#x3a8;" horiz-adv-x="1755" 
d="M1069 1434h107l-261 -967h5q177 0 302 34t208 117q108 108 163 314l136 502h106l-139 -521q-63 -230 -189 -356q-104 -104 -251 -146t-357 -42h-10l-98 -369h-107l98 371q-516 39 -516 426q0 122 47 280l97 357h106l-102 -381q-41 -152 -41 -250q0 -170 110 -245.5
t326 -88.5z" />
    <glyph glyph-name="uni03A9" unicode="&#x3a9;" horiz-adv-x="1767" 
d="M1032 1362q-145 0 -270.5 -51t-218.5 -144q-193 -193 -193 -481q0 -169 70.5 -310.5t228.5 -287.5l-24 -88h-596l26 98l465 -4q-146 139 -213 283.5t-67 308.5q0 159 56.5 297t162.5 244q231 231 583 231q288 0 461.5 -160.5t173.5 -425.5q0 -233 -140.5 -424
t-418.5 -354l451 4l-27 -98h-618l24 88q150 85 259.5 167.5t191.5 177t124 201.5t44 228q3 144 -58 256.5t-184.5 178t-292.5 65.5z" />
    <glyph glyph-name="uni03AA" unicode="&#x3aa;" horiz-adv-x="561" 
d="M88 0l385 1434h107l-385 -1434h-107zM307 1567l43 155h152l-43 -155h-152zM668 1567l43 155h149l-43 -155h-149z" />
    <glyph glyph-name="uni03AB" unicode="&#x3ab;" horiz-adv-x="1368" 
d="M479 0l156 582l-375 852h117l330 -770l745 770h143l-862 -879l-147 -555h-107zM676 1559l43 155h151l-43 -155h-151zM1036 1559l43 155h150l-43 -155h-150z" />
    <glyph glyph-name="uni03AC" unicode="&#x3ac;" horiz-adv-x="1421" 
d="M530 -27q-181 0 -300 125t-119 316q0 289 196 485q81 81 182.5 125.5t210.5 44.5q85 0 156 -24t120.5 -66.5t83.5 -92.5t56 -110l72 268h100l-205 -770q-14 -58 -14 -98q0 -100 115 -100q43 0 88 10l-25 -92q-45 -10 -82 -10q-98 0 -148 45.5t-50 132.5v31
q-193 -220 -437 -220zM543 68q95 0 186 42t166 117q78 78 124 178t46 205q0 155 -100.5 260t-259.5 105q-187 0 -322 -135q-78 -78 -121 -186.5t-43 -227.5q0 -160 90.5 -259t233.5 -99zM745 1219l207 294l131 -53l-241 -241h-97z" />
    <glyph glyph-name="uni03AD" unicode="&#x3ad;" horiz-adv-x="1140" 
d="M369 545q-154 68 -154 225q0 125 117.5 212t322.5 87q262 0 459 -154l-63 -73q-75 63 -179 100t-221 37q-160 0 -244.5 -58t-84.5 -153q0 -89 67.5 -141t198.5 -52h246l-25 -90h-291q-160 0 -250 -60.5t-90 -156.5q0 -93 83 -146.5t243 -53.5q203 0 422 100l41 -84
q-226 -109 -465 -109q-212 0 -321 80.5t-109 206.5q0 115 84 188t213 95zM674 1219l207 294l131 -53l-242 -241h-96z" />
    <glyph glyph-name="uni03AE" unicode="&#x3ae;" horiz-adv-x="1251" 
d="M51 0l279 1044h100l-51 -194q92 107 182 163t213 56q156 0 249 -90t93 -242q0 -70 -22 -147l-244 -918h-100l247 926q17 66 17 129q0 117 -72 184.5t-197 67.5q-89 0 -178 -49t-159 -139.5t-99 -200.5l-157 -590h-101zM780 1219l207 294l131 -53l-241 -241h-97z" />
    <glyph glyph-name="uni03AF" unicode="&#x3af;" horiz-adv-x="559" 
d="M104 162q0 48 23 135l199 747h100l-205 -770q-14 -58 -14 -98q0 -100 115 -100q43 0 88 10l-25 -92q-45 -10 -82 -10q-98 0 -148.5 45.5t-50.5 132.5zM352 1219l207 294l131 -53l-241 -241h-97z" />
    <glyph glyph-name="uni03B0" unicode="&#x3b0;" horiz-adv-x="1253" 
d="M526 -25q-174 0 -279.5 87.5t-105.5 254.5q0 82 31 197l141 530h101l-150 -559q-22 -87 -22 -166q0 -122 75 -186.5t215 -64.5q175 0 287 112q93 93 142 275l157 589h101l-164 -614q-54 -201 -160 -307q-77 -77 -166 -112.5t-203 -35.5zM991 1219l45 163h142l-45 -163
h-142zM526 1219l45 163h142l-45 -163h-142zM741 1219l160 325l131 -28l-198 -297h-93z" />
    <glyph glyph-name="uni03B1" unicode="&#x3b1;" horiz-adv-x="1421" 
d="M530 -27q-181 0 -300 125t-119 316q0 289 196 485q81 81 182.5 125.5t210.5 44.5q85 0 156 -24t120.5 -66.5t83.5 -92.5t56 -110l72 268h100l-205 -770q-14 -58 -14 -98q0 -100 115 -100q43 0 88 10l-25 -92q-45 -10 -82 -10q-98 0 -148 45.5t-50 132.5v31
q-193 -220 -437 -220zM543 68q95 0 186 42t166 117q78 78 124 178t46 205q0 155 -100.5 260t-259.5 105q-187 0 -322 -135q-78 -78 -121 -186.5t-43 -227.5q0 -160 90.5 -259t233.5 -99z" />
    <glyph glyph-name="uni03B2" unicode="&#x3b2;" horiz-adv-x="1329" 
d="M694 -25q-179 0 -299.5 79t-171.5 214l-160 -596h-100l363 1354q57 209 180 332q151 151 375 151q188 0 297.5 -99.5t109.5 -254.5q0 -162 -115.5 -275t-302.5 -143q136 -39 217.5 -126t81.5 -218q0 -83 -34 -158.5t-94.5 -133t-151 -92t-195.5 -34.5zM694 70
q163 0 265 92.5t102 226.5q0 138 -116 225.5t-335 87.5h-270l-43 -157q-18 -74 -18 -121q0 -148 113 -251t302 -103zM422 1008l-57 -215h282q304 0 443 139q90 90 90 219q0 120 -80.5 192t-218.5 72q-182 0 -303 -121q-107 -107 -156 -286z" />
    <glyph glyph-name="uni03B3" unicode="&#x3b3;" horiz-adv-x="1140" 
d="M373 -328h-101l90 338l-180 1034h109l145 -931l639 931h123l-737 -1040z" />
    <glyph glyph-name="uni03B4" unicode="&#x3b4;" horiz-adv-x="1280" 
d="M614 1405l308 -350q130 -150 187.5 -270.5t57.5 -266.5q0 -222 -157 -379q-77 -77 -181.5 -120.5t-224.5 -43.5q-147 0 -260.5 64t-173 172t-59.5 240q0 244 170.5 401.5t484.5 230.5l-295 340l21 72h792l-24 -90h-646zM852 985l-18 21q-311 -67 -463 -201.5t-152 -353.5
q0 -167 108 -275t277 -108q195 0 326 131q129 129 129 315q0 129 -49 236.5t-158 234.5z" />
    <glyph glyph-name="uni03B5" unicode="&#x3b5;" horiz-adv-x="1140" 
d="M369 545q-154 68 -154 225q0 125 117.5 212t322.5 87q262 0 459 -154l-63 -73q-75 63 -179 100t-221 37q-160 0 -244.5 -58t-84.5 -153q0 -89 67.5 -141t198.5 -52h246l-25 -90h-291q-160 0 -250 -60.5t-90 -156.5q0 -93 83 -146.5t243 -53.5q203 0 422 100l41 -84
q-226 -109 -465 -109q-212 0 -321 80.5t-109 206.5q0 115 84 188t213 95z" />
    <glyph glyph-name="uni03B6" unicode="&#x3b6;" horiz-adv-x="1087" 
d="M1282 1415l-664 -512q-237 -184 -322 -286.5t-85 -206.5q0 -109 82.5 -177.5t279.5 -103.5l345 -61l-97 -355h-98l74 277l-248 45q-232 41 -339.5 130t-107.5 236q0 73 23.5 135t84.5 132.5t140 138.5t215 172l555 424h-661l24 92h817z" />
    <glyph glyph-name="uni03B7" unicode="&#x3b7;" horiz-adv-x="1251" 
d="M51 0l279 1044h100l-51 -194q92 107 182 163t213 56q156 0 249 -90t93 -242q0 -70 -22 -147l-244 -918h-100l247 926q17 66 17 129q0 117 -72 184.5t-197 67.5q-89 0 -178 -49t-159 -139.5t-99 -200.5l-157 -590h-101z" />
    <glyph glyph-name="uni03B8" unicode="&#x3b8;" horiz-adv-x="1351" 
d="M580 -27q-188 0 -297 138.5t-109 400.5q0 219 83 444.5t228 366.5q178 178 404 178q188 0 296.5 -138t108.5 -400q0 -219 -83 -444.5t-228 -366.5q-182 -179 -403 -179zM580 68q95 0 172.5 34t160.5 117q86 86 148 210.5t94 264.5h-860q-14 -83 -14 -176
q0 -208 75.5 -329t223.5 -121zM555 1255q-171 -171 -242 -469h861q14 100 14 170q0 208 -75.5 329.5t-223.5 121.5q-94 0 -172.5 -34.5t-161.5 -117.5z" />
    <glyph glyph-name="uni03B9" unicode="&#x3b9;" horiz-adv-x="559" 
d="M104 162q0 48 23 135l199 747h100l-205 -770q-14 -58 -14 -98q0 -100 115 -100q43 0 88 10l-25 -92q-45 -10 -82 -10q-98 0 -148.5 45.5t-50.5 132.5z" />
    <glyph glyph-name="uni03BA" unicode="&#x3ba;" horiz-adv-x="1150" 
d="M942 0h-117l-276 514l-330 -260l-67 -254h-101l279 1044h100l-176 -657l821 657h146l-590 -469z" />
    <glyph glyph-name="uni03BB" unicode="&#x3bb;" horiz-adv-x="1189" 
d="M70 0h-123l768 1081l-6 52q-15 101 -30.5 155t-43.5 82q-37 37 -103 37q-68 0 -120 -21l16 95q59 18 123 18q101 0 156 -55q40 -40 60.5 -103.5t39.5 -181.5l176 -1159h-106l-138 952z" />
    <glyph glyph-name="uni03BC" unicode="&#x3bc;" horiz-adv-x="1353" 
d="M545 -25q-131 0 -223 68.5t-123 192.5h-2q-23 -148 -66 -312l-68 -252h-100l367 1372h100l-143 -536q-23 -90 -23 -154q0 -135 75 -210.5t210 -75.5q141 0 250.5 90.5t150.5 244.5l172 641h101l-207 -770q-15 -62 -15 -98q0 -100 115 -100q43 0 88 10l-24 -92
q-45 -10 -82 -10q-98 0 -148.5 45t-50.5 131q-132 -185 -354 -185z" />
    <glyph glyph-name="uni03BD" unicode="&#x3bd;" horiz-adv-x="1140" 
d="M367 -8l-185 1052h109l145 -931l639 931h123l-745 -1052h-86z" />
    <glyph glyph-name="uni03BE" unicode="&#x3be;" horiz-adv-x="1101" 
d="M911 68l-96 -355h-98l74 277l-224 39q-110 19 -192 47.5t-145 72t-95.5 106t-32.5 144.5q0 156 113 252.5t311 126.5q-86 42 -138 119.5t-52 192.5q0 80 34.5 155.5t95.5 134t154.5 94t202.5 35.5q262 0 439 -184l-74 -72q-75 78 -162.5 120t-204.5 42q-175 0 -276 -94
t-101 -229q0 -147 95 -219t254 -72h161l-24 -90h-238q-218 0 -349.5 -79t-131.5 -229q0 -117 94 -181.5t287 -98.5z" />
    <glyph glyph-name="uni03BF" unicode="&#x3bf;" horiz-adv-x="1294" 
d="M569 -25q-206 0 -335.5 130.5t-129.5 332.5q0 125 50.5 240t140.5 205q88 88 198.5 137t231.5 49q206 0 335.5 -130.5t129.5 -332.5q0 -125 -50.5 -239.5t-140.5 -204.5q-88 -88 -199 -137.5t-231 -49.5zM580 70q189 0 338 149q77 77 120 176t43 207q0 176 -99.5 274.5
t-266.5 98.5q-188 0 -338 -150q-77 -77 -120.5 -176t-43.5 -207q0 -176 100 -274t267 -98z" />
    <glyph glyph-name="uni03C0" unicode="&#x3c0;" horiz-adv-x="1409" 
d="M911 162q0 48 23 135l174 655h-602l-254 -952h-100l254 952h-232l25 92h1253l-25 -92h-219l-180 -678q-14 -58 -14 -98q0 -100 114 -100q44 0 89 10l-25 -92q-45 -10 -82 -10q-98 0 -148.5 45.5t-50.5 132.5z" />
    <glyph glyph-name="uni03C1" unicode="&#x3c1;" horiz-adv-x="1316" 
d="M612 -27q-85 0 -156 24t-121 66.5t-84 92.5t-56 110l-158 -594h-100l237 891q62 220 184 342q164 164 402 164q197 0 321.5 -120.5t124.5 -330.5q0 -136 -54.5 -261t-143.5 -214q-80 -80 -183.5 -125t-212.5 -45zM608 68q185 0 322 137q79 79 122.5 186t43.5 225
q0 166 -92 262.5t-252 96.5q-185 0 -320 -135q-81 -81 -126.5 -195.5t-45.5 -216.5q0 -159 95 -259.5t253 -100.5z" />
    <glyph glyph-name="uni03C2" unicode="&#x3c2;" horiz-adv-x="1132" 
d="M903 68l-96 -355h-98l73 277l-219 39q-235 41 -344.5 150.5t-109.5 297.5q0 242 180 422q170 170 407 170q268 0 424 -231l-84 -60q-71 98 -154 147.5t-194 49.5q-184 0 -319 -135q-69 -69 -110.5 -162t-41.5 -195q0 -159 93.5 -242.5t285.5 -117.5z" />
    <glyph glyph-name="uni03C3" unicode="&#x3c3;" horiz-adv-x="1366" 
d="M565 -25q-207 0 -334 130t-127 333q0 243 181 424q182 182 471 182h630l-24 -92h-377q92 -54 146.5 -155t54.5 -217q0 -120 -47 -229t-129 -191q-91 -91 -205.5 -138t-239.5 -47zM575 70q206 0 353 147q149 149 149 363q0 167 -97 268.5t-255 101.5q-212 0 -365 -153
q-68 -68 -107.5 -160.5t-39.5 -194.5q0 -175 99 -273.5t263 -98.5z" />
    <glyph glyph-name="uni03C4" unicode="&#x3c4;" horiz-adv-x="1128" 
d="M1194 1044l-25 -92h-456l-162 -604q-25 -91 -25 -143q0 -135 162 -135q85 0 166 26l-25 -92q-79 -27 -153 -27q-125 0 -187.5 58t-62.5 158q0 51 29 165l157 594h-454l24 92h1012z" />
    <glyph glyph-name="uni03C5" unicode="&#x3c5;" horiz-adv-x="1253" 
d="M526 -25q-174 0 -279.5 87.5t-105.5 254.5q0 82 31 197l141 530h101l-150 -559q-22 -87 -22 -166q0 -122 75 -186.5t215 -64.5q175 0 287 112q93 93 142 275l157 589h101l-164 -614q-54 -201 -160 -307q-77 -77 -166 -112.5t-203 -35.5z" />
    <glyph glyph-name="uni03C6" unicode="&#x3c6;" horiz-adv-x="1671" 
d="M557 -328l88 328q-252 26 -391 151t-139 318q0 214 151 365q105 105 266 161t361 56h12h21l121 444h100l-121 -451q251 -26 390.5 -151t139.5 -318q0 -213 -151 -364q-105 -105 -266 -161t-361 -56h-12h-23l-86 -322h-100zM1448 573q0 158 -114.5 259.5t-332.5 121.5
l-233 -868h16q357 0 537 180q127 127 127 307zM223 471q0 -159 114.5 -261t330.5 -120l235 868h-16q-357 0 -537 -180q-127 -127 -127 -307z" />
    <glyph glyph-name="uni03C7" unicode="&#x3c7;" horiz-adv-x="1181" 
d="M342 1044l223 -569l512 569h131l-602 -653l291 -719h-109l-256 654l-587 -654h-131l675 738l-256 634h109z" />
    <glyph glyph-name="uni03C8" unicode="&#x3c8;" horiz-adv-x="1624" 
d="M1122 1495l-379 -1409h9q161 0 266.5 34.5t183.5 112.5q104 104 154 299l137 512h100l-147 -550q-58 -210 -178 -330q-170 -170 -520 -170h-29l-86 -322h-101l86 326q-208 18 -332 120t-124 285q0 94 37 226l110 415h101l-123 -464q-25 -98 -25 -172q0 -140 97 -221.5
t284 -98.5l379 1407h100z" />
    <glyph glyph-name="uni03C9" unicode="&#x3c9;" horiz-adv-x="1802" 
d="M940 846h100l-71 -281q-25 -95 -25 -184q0 -66 15 -121.5t46 -99t83 -68t120 -24.5q70 0 134.5 34.5t116 98t82 162t30.5 217.5q0 111 -35.5 232.5t-101.5 231.5h116q53 -98 90 -227.5t37 -245.5q0 -137 -39 -251.5t-105.5 -188.5t-152.5 -115t-182 -41q-154 0 -240 85.5
t-100 236.5q-152 -322 -418 -322q-161 0 -249.5 109t-88.5 281q0 105 33.5 209t90.5 191t116.5 154t126.5 125h141q-75 -61 -139.5 -129t-126 -155t-97.5 -189t-36 -204q0 -138 60.5 -218.5t179.5 -80.5q140 0 245 125t166 356z" />
    <glyph glyph-name="uni03CA" unicode="&#x3ca;" horiz-adv-x="559" 
d="M104 162q0 48 23 135l199 747h100l-205 -770q-14 -58 -14 -98q0 -100 115 -100q43 0 88 10l-25 -92q-45 -10 -82 -10q-98 0 -148.5 45.5t-50.5 132.5zM188 1219l45 163h142l-45 -163h-142zM522 1219l45 163h142l-45 -163h-142z" />
    <glyph glyph-name="uni03CB" unicode="&#x3cb;" horiz-adv-x="1253" 
d="M526 -25q-174 0 -279.5 87.5t-105.5 254.5q0 82 31 197l141 530h101l-150 -559q-22 -87 -22 -166q0 -122 75 -186.5t215 -64.5q175 0 287 112q93 93 142 275l157 589h101l-164 -614q-54 -201 -160 -307q-77 -77 -166 -112.5t-203 -35.5zM569 1219l45 163h142l-45 -163
h-142zM903 1219l45 163h142l-46 -163h-141z" />
    <glyph glyph-name="uni03CC" unicode="&#x3cc;" horiz-adv-x="1294" 
d="M569 -25q-206 0 -335.5 130.5t-129.5 332.5q0 125 50.5 240t140.5 205q88 88 198.5 137t231.5 49q206 0 335.5 -130.5t129.5 -332.5q0 -125 -50.5 -239.5t-140.5 -204.5q-88 -88 -199 -137.5t-231 -49.5zM580 70q189 0 338 149q77 77 120 176t43 207q0 176 -99.5 274.5
t-266.5 98.5q-188 0 -338 -150q-77 -77 -120.5 -176t-43.5 -207q0 -176 100 -274t267 -98zM748 1219l206 294l131 -53l-241 -241h-96z" />
    <glyph glyph-name="uni03CD" unicode="&#x3cd;" horiz-adv-x="1253" 
d="M526 -25q-174 0 -279.5 87.5t-105.5 254.5q0 82 31 197l141 530h101l-150 -559q-22 -87 -22 -166q0 -122 75 -186.5t215 -64.5q175 0 287 112q93 93 142 275l157 589h101l-164 -614q-54 -201 -160 -307q-77 -77 -166 -112.5t-203 -35.5zM735 1219l207 294l131 -53
l-242 -241h-96z" />
    <glyph glyph-name="uni03CE" unicode="&#x3ce;" horiz-adv-x="1802" 
d="M940 846h100l-71 -281q-25 -95 -25 -184q0 -66 15 -121.5t46 -99t83 -68t120 -24.5q70 0 134.5 34.5t116 98t82 162t30.5 217.5q0 111 -35.5 232.5t-101.5 231.5h116q53 -98 90 -227.5t37 -245.5q0 -137 -39 -251.5t-105.5 -188.5t-152.5 -115t-182 -41q-154 0 -240 85.5
t-100 236.5q-152 -322 -418 -322q-161 0 -249.5 109t-88.5 281q0 105 33.5 209t90.5 191t116.5 154t126.5 125h141q-75 -61 -139.5 -129t-126 -155t-97.5 -189t-36 -204q0 -138 60.5 -218.5t179.5 -80.5q140 0 245 125t166 356zM1016 1219l207 294l131 -53l-242 -241h-96z
" />
    <glyph glyph-name="uni0400" unicode="&#x400;" horiz-adv-x="1329" 
d="M74 0l385 1434h1009l-26 -99h-903l-152 -563h811l-27 -98h-811l-153 -576h913l-26 -98h-1020zM920 1567l-170 184l118 57l127 -241h-75z" />
    <glyph glyph-name="uni0401" unicode="&#x401;" horiz-adv-x="1329" 
d="M74 0l385 1434h1009l-26 -99h-903l-152 -563h811l-27 -98h-811l-153 -576h913l-26 -98h-1020zM731 1567l43 155h152l-43 -155h-152zM1092 1567l43 155h149l-43 -155h-149z" />
    <glyph glyph-name="uni0402" unicode="&#x402;" horiz-adv-x="1720" 
d="M1487 504q0 297 -436 297q-146 0 -330 -41l-203 -760h-106l358 1335h-481l26 99h1098l-27 -99h-509l-127 -473q152 35 309 35q266 0 401 -100.5t135 -292.5q0 -193 -131 -324q-184 -184 -546 -184h-50l25 98h39q300 0 448 148q107 107 107 262z" />
    <glyph glyph-name="uni0403" unicode="&#x403;" 
d="M74 0l385 1434h948l-27 -99h-841l-359 -1335h-106zM864 1567l254 241l123 -57l-268 -184h-109z" />
    <glyph glyph-name="uni0404" unicode="&#x404;" horiz-adv-x="1538" 
d="M193 575q0 179 70 344t198 293q115 115 265.5 180.5t313.5 65.5q188 0 322.5 -82t210.5 -223l-90 -53q-81 133 -186.5 197.5t-260.5 64.5q-282 0 -489 -207q-158 -158 -219 -385h848l-27 -96h-840q-6 -53 -6 -101v-2q0 -227 134.5 -363t350.5 -136q152 0 266.5 53
t219.5 158l67 -66q-109 -114 -243 -179t-316 -65q-123 0 -230.5 41.5t-187 117.5t-125.5 190.5t-46 252.5z" />
    <glyph glyph-name="uni0405" unicode="&#x405;" horiz-adv-x="1306" 
d="M612 -20q-376 0 -571 274l82 59q94 -121 213 -179t287 -58q177 0 295 89t118 224q0 94 -68.5 155.5t-244.5 133.5q-228 89 -319 170.5t-91 210.5q0 141 105 246q149 149 409 149q157 0 287 -59.5t211 -159.5l-82 -66q-160 189 -426 189q-178 0 -286.5 -86t-108.5 -205
q0 -95 79 -159.5t263 -133.5q202 -75 291.5 -161.5t89.5 -215.5q0 -149 -113 -262q-74 -74 -181.5 -114.5t-238.5 -40.5z" />
    <glyph glyph-name="uni0406" unicode="&#x406;" horiz-adv-x="561" 
d="M88 0l385 1434h107l-385 -1434h-107z" />
    <glyph glyph-name="uni0407" unicode="&#x407;" horiz-adv-x="561" 
d="M88 0l385 1434h107l-385 -1434h-107zM307 1567l43 155h152l-43 -155h-152zM668 1567l43 155h149l-43 -155h-149z" />
    <glyph glyph-name="uni0408" unicode="&#x408;" horiz-adv-x="1122" 
d="M401 -20q-169 0 -270 90t-141 239l94 33q42 -134 117 -200t196 -66q154 0 260 106q99 99 160 314l252 938h107l-256 -953q-62 -237 -191 -366q-65 -65 -152 -100t-176 -35z" />
    <glyph glyph-name="uni0409" unicode="&#x409;" horiz-adv-x="2140" 
d="M870 0l359 1337h-6l-1160 -1337h-129l1252 1434h176l-145 -543h305q278 0 409 -131q97 -97 97 -252q0 -194 -130 -324q-184 -184 -579 -184h-449zM1921 506q0 114 -72 186q-101 101 -342 101h-317l-186 -695h319q345 0 496 148q102 102 102 260z" />
    <glyph glyph-name="uni040A" unicode="&#x40a;" horiz-adv-x="2336" 
d="M1067 0l180 672h-887l-180 -672h-106l385 1434h106l-178 -664h887l178 664h107l-146 -543h305q279 0 410 -131q96 -96 96 -252q0 -195 -129 -324q-184 -184 -579 -184h-449zM2118 506q0 114 -72 186q-101 101 -342 101h-318l-186 -695h320q344 0 495 148q103 103 103 260
z" />
    <glyph glyph-name="uni040B" unicode="&#x40b;" horiz-adv-x="1740" 
d="M412 0l358 1335h-481l26 99h1098l-27 -99h-509l-127 -473q170 39 356 39q223 0 353 -88t130 -270q0 -94 -33 -215l-88 -328h-106l92 340q29 101 29 197q0 132 -102.5 200t-286.5 68q-178 0 -373 -45l-203 -760h-106z" />
    <glyph glyph-name="uni040C" unicode="&#x40c;" horiz-adv-x="1462" 
d="M74 0l385 1434h106l-174 -648h275l796 648h158l-866 -699l530 -735h-123l-495 688h-301l-185 -688h-106zM938 1559l254 241l123 -57l-268 -184h-109z" />
    <glyph glyph-name="uni040D" unicode="&#x40d;" horiz-adv-x="1613" 
d="M1532 1434h113l-385 -1434h-107l340 1266l-1327 -1266h-92l385 1434h106l-334 -1241zM999 1559l-170 184l119 57l127 -241h-76z" />
    <glyph glyph-name="uni040E" unicode="&#x40e;" horiz-adv-x="1441" 
d="M1616 1434l-1219 -1434h-129l424 498l-381 936h111l344 -854l721 854h129zM961 1554q-117 0 -176.5 54t-41.5 151h86q2 -54 36.5 -80t117.5 -26q145 0 211 106h94q-35 -97 -122.5 -151t-204.5 -54z" />
    <glyph glyph-name="uni040F" unicode="&#x40f;" horiz-adv-x="1550" 
d="M1581 1434l-385 -1434h-508l-82 -303h-104l82 303h-510l385 1434h106l-358 -1336h909l359 1336h106z" />
    <glyph glyph-name="uni0410" unicode="&#x410;" horiz-adv-x="1554" 
d="M-70 0l1055 1444h102l281 -1444h-108l-74 401h-846l-291 -401h-119zM410 498h755l-153 829z" />
    <glyph glyph-name="uni0411" unicode="&#x411;" horiz-adv-x="1460" 
d="M1305 455q0 -168 -115 -283q-172 -172 -539 -172h-577l385 1434h991l-27 -99h-884l-144 -530h418q283 0 406 -123q86 -86 86 -227zM1198 455q0 96 -63 159q-93 93 -326 93h-440l-162 -609h450q315 0 453 138q88 88 88 219z" />
    <glyph glyph-name="uni0412" unicode="&#x412;" horiz-adv-x="1468" 
d="M74 0l385 1434h530q197 0 313.5 -87t116.5 -239t-107 -254t-272 -133q124 -32 199.5 -105.5t75.5 -193.5q0 -187 -161.5 -304.5t-434.5 -117.5h-645zM207 98h518q222 0 351.5 86.5t129.5 237.5q0 123 -104.5 187.5t-274.5 64.5h-467zM387 772h442q217 0 348.5 90
t131.5 236q0 117 -86.5 177t-243.5 60h-440z" />
    <glyph glyph-name="uni0413" unicode="&#x413;" 
d="M74 0l385 1434h948l-27 -99h-841l-359 -1335h-106z" />
    <glyph glyph-name="uni0414" unicode="&#x414;" horiz-adv-x="1728" 
d="M-33 98h135l955 1346h108l240 -1346h137l-108 -401h-105l82 303h-1366l-82 -303h-104zM1087 1323l-864 -1225h1075z" />
    <glyph glyph-name="uni0415" unicode="&#x415;" horiz-adv-x="1329" 
d="M74 0l385 1434h1009l-26 -99h-903l-152 -563h811l-27 -98h-811l-153 -576h913l-26 -98h-1020z" />
    <glyph glyph-name="uni0416" unicode="&#x416;" horiz-adv-x="2197" 
d="M1405 1434l-176 -648h219l754 648h147l-825 -697l481 -737h-117l-442 688h-242l-184 -688h-107l185 688h-219l-793 -688h-147l874 748l-461 686h121l426 -648h223l176 648h107z" />
    <glyph glyph-name="uni0417" unicode="&#x417;" horiz-adv-x="1382" 
d="M362 1214l-51 84q258 160 535 160q223 0 353 -103.5t130 -260.5q0 -79 -32 -146t-88 -113.5t-126.5 -77.5t-152.5 -46q123 -36 193.5 -115t70.5 -188q0 -131 -80.5 -231t-210 -151t-282.5 -51q-347 0 -590 222l71 75q221 -200 525 -200q125 0 226.5 36t165.5 112.5
t64 182.5q0 123 -105 197t-319 74h-213l27 96h234q244 0 378 82t134 238q0 113 -100 193.5t-281 80.5q-242 0 -476 -150z" />
    <glyph glyph-name="uni0418" unicode="&#x418;" horiz-adv-x="1613" 
d="M1532 1434h113l-385 -1434h-107l340 1266l-1327 -1266h-92l385 1434h106l-334 -1241z" />
    <glyph glyph-name="uni0419" unicode="&#x419;" horiz-adv-x="1613" 
d="M1532 1434h113l-385 -1434h-107l340 1266l-1327 -1266h-92l385 1434h106l-334 -1241zM1073 1554q-117 0 -176 54t-41 151h86q2 -54 36.5 -80t117.5 -26q145 0 211 106h94q-35 -97 -123 -151t-205 -54z" />
    <glyph glyph-name="uni041A" unicode="&#x41a;" horiz-adv-x="1462" 
d="M74 0l385 1434h106l-174 -648h275l796 648h158l-866 -699l530 -735h-123l-495 688h-301l-185 -688h-106z" />
    <glyph glyph-name="uni041B" unicode="&#x41b;" horiz-adv-x="1509" 
d="M1061 1444l262 -1444h-111l-227 1311l-934 -1311h-121l1035 1444h96z" />
    <glyph glyph-name="uni041C" unicode="&#x41c;" horiz-adv-x="1779" 
d="M74 0l385 1434h88l348 -848l803 848h112l-385 -1434h-106l334 1245l-789 -825h-8l-346 825l-334 -1245h-102z" />
    <glyph glyph-name="uni041D" unicode="&#x41d;" horiz-adv-x="1548" 
d="M74 0l385 1434h106l-178 -664h907l179 664h106l-385 -1434h-107l181 672h-908l-180 -672h-106z" />
    <glyph glyph-name="uni041E" unicode="&#x41e;" horiz-adv-x="1732" 
d="M1022 1458q176 0 318.5 -82t221 -222.5t78.5 -311.5q0 -176 -69.5 -339t-194.5 -288q-113 -113 -258.5 -177.5t-302.5 -64.5q-132 0 -248 48.5t-196.5 131t-127 196t-46.5 241.5q0 176 69.5 339t194.5 288q113 113 258 177t303 64zM815 70q137 0 259.5 54.5t219.5 151.5
q111 111 173.5 259.5t62.5 306.5q0 223 -142 371.5t-366 148.5q-137 0 -259.5 -55t-219.5 -152q-111 -111 -173.5 -259t-62.5 -306q0 -223 142 -371.5t366 -148.5z" />
    <glyph glyph-name="uni041F" unicode="&#x41f;" horiz-adv-x="1550" 
d="M74 0l385 1434h1122l-385 -1434h-106l358 1335h-909l-359 -1335h-106z" />
    <glyph glyph-name="uni0420" unicode="&#x420;" horiz-adv-x="1357" 
d="M74 0l385 1434h446q266 0 395 -129q99 -99 99 -256q0 -197 -129 -326q-186 -186 -580 -186h-364l-146 -537h-106zM1219 1235q-100 100 -316 100h-364l-189 -702h344q347 0 498 151q100 100 100 260q0 118 -73 191z" />
    <glyph glyph-name="uni0421" unicode="&#x421;" horiz-adv-x="1511" 
d="M774 -27q-119 0 -225.5 40.5t-186.5 114t-127 184.5t-47 243q0 183 73 352.5t204 300.5q118 118 266.5 184t312.5 66q187 0 322 -85t205 -224l-92 -49q-76 130 -178 196t-263 66q-139 0 -264 -55.5t-225 -155.5q-118 -118 -184 -273t-66 -319q0 -222 136 -354.5
t349 -132.5q151 0 265.5 54.5t220.5 160.5l71 -66q-112 -115 -248 -181.5t-319 -66.5z" />
    <glyph glyph-name="uni0422" unicode="&#x422;" horiz-adv-x="1259" 
d="M428 0l358 1335h-499l26 99h1106l-26 -99h-500l-358 -1335h-107z" />
    <glyph glyph-name="uni0423" unicode="&#x423;" horiz-adv-x="1441" 
d="M1616 1434l-1219 -1434h-129l424 498l-381 936h111l344 -854l721 854h129z" />
    <glyph glyph-name="uni0424" unicode="&#x424;" horiz-adv-x="1822" 
d="M1110 1464h107l-48 -176q273 -23 429 -154t157 -341q0 -230 -166 -396q-243 -243 -719 -243h-6l-49 -185h-106l49 189q-272 23 -427.5 154t-156.5 341q0 230 166 396q243 243 719 243h4zM1647 788q0 174 -135 283.5t-371 122.5l-254 -944q413 0 620 207q140 140 140 331z
M283 657q0 -174 133.5 -283t369.5 -122l254 944q-411 0 -618 -207q-139 -139 -139 -332z" />
    <glyph glyph-name="uni0425" unicode="&#x425;" horiz-adv-x="1417" 
d="M-47 0l749 741l-380 693h114l342 -631l635 631h137l-721 -711l394 -723h-115l-354 662l-664 -662h-137z" />
    <glyph glyph-name="uni0426" unicode="&#x426;" horiz-adv-x="1570" 
d="M1581 1434l-358 -1336h141l-109 -401h-104l82 303h-1159l385 1434h106l-358 -1336h909l359 1336h106z" />
    <glyph glyph-name="uni0427" unicode="&#x427;" horiz-adv-x="1402" 
d="M942 0l152 569q-175 -37 -355 -37q-108 0 -194.5 20.5t-152 63t-101 112.5t-35.5 163q0 94 33 215l88 328h106l-92 -340q-29 -101 -29 -197q0 -132 103 -200t287 -68q175 0 370 45l205 760h107l-385 -1434h-107z" />
    <glyph glyph-name="uni0428" unicode="&#x428;" horiz-adv-x="2308" 
d="M2339 1434l-385 -1434h-1880l385 1434h106l-358 -1336h780l359 1336h106l-358 -1336h780l358 1336h107z" />
    <glyph glyph-name="uni0429" unicode="&#x429;" horiz-adv-x="2328" 
d="M2339 1434l-359 -1336h142l-109 -401h-104l82 303h-1917l385 1434h106l-358 -1336h780l359 1336h106l-358 -1336h780l358 1336h107z" />
    <glyph glyph-name="uni042A" unicode="&#x42a;" horiz-adv-x="1693" 
d="M279 1335l26 99h590l-145 -543h325q279 0 410 -131q96 -96 96 -252q0 -195 -129 -324q-184 -184 -580 -184h-469l359 1335h-483zM1475 506q0 114 -72 186q-101 101 -342 101h-338l-186 -695h340q344 0 495 148q103 103 103 260z" />
    <glyph glyph-name="uni042B" unicode="&#x42b;" horiz-adv-x="1886" 
d="M74 0l385 1434h106l-145 -543h325q279 0 410 -131q96 -96 96 -252q0 -195 -129 -324q-184 -184 -579 -184h-469zM1145 506q0 114 -72 186q-101 101 -342 101h-338l-186 -695h340q344 0 495 148q103 103 103 260zM1425 0l385 1434h107l-385 -1434h-107z" />
    <glyph glyph-name="uni042C" unicode="&#x42c;" horiz-adv-x="1363" 
d="M74 0l385 1434h106l-145 -543h325q279 0 410 -131q96 -96 96 -252q0 -195 -129 -324q-184 -184 -579 -184h-469zM1145 506q0 114 -72 186q-101 101 -342 101h-338l-186 -695h340q344 0 495 148q103 103 103 260z" />
    <glyph glyph-name="uni042D" unicode="&#x42d;" horiz-adv-x="1531" 
d="M1444 854q0 -181 -70 -347t-196 -292q-114 -114 -259.5 -178t-306.5 -64q-187 0 -324.5 77t-224.5 210l80 64q177 -254 465 -254q282 0 486 204q163 163 217 400h-846l27 96h835q6 44 6 88v2q0 226 -133.5 363t-343.5 137q-141 0 -256 -50.5t-231 -150.5l-64 72
q248 227 555 227q123 0 230 -42.5t185.5 -119.5t123.5 -191.5t45 -250.5z" />
    <glyph glyph-name="uni042E" unicode="&#x42e;" horiz-adv-x="2205" 
d="M74 0l385 1434h106l-178 -664h352q55 266 242 453q235 235 545 235q174 0 308.5 -81t205.5 -220.5t71 -314.5q0 -176 -67.5 -342t-194.5 -293q-110 -110 -248.5 -172t-293.5 -62q-174 0 -308.5 81.5t-206 221t-71.5 314.5q0 61 4 82h-365l-180 -672h-106zM1307 70
q265 0 460 198q110 110 172 260t62 314q0 224 -131 372t-344 148q-265 0 -461 -199q-110 -110 -172 -259.5t-62 -313.5q0 -224 131.5 -372t344.5 -148z" />
    <glyph glyph-name="uni042F" unicode="&#x42f;" horiz-adv-x="1486" 
d="M1518 1434l-385 -1434h-107l160 594h-416q-45 0 -68 2l-593 -596h-140l617 614q-147 37 -226 130.5t-77 228.5q0 171 116 287q174 174 523 174h596zM1384 1335h-473q-141 0 -252.5 -35.5t-177.5 -101.5q-92 -92 -92 -223q0 -132 101 -208.5t296 -76.5h424z" />
    <glyph glyph-name="uni0430" unicode="&#x430;" horiz-adv-x="1169" 
d="M389 -25q-90 0 -166 31.5t-126 100t-50 161.5q0 148 100 248q131 131 371 131q204 0 402 -59l8 28q14 54 14 105q0 119 -81 182.5t-234 63.5q-143 0 -303 -56l-19 90q160 60 330 60q191 0 298 -86.5t107 -239.5q0 -70 -20 -137l-160 -598h-98l47 180q-169 -205 -420 -205
zM408 68q153 0 288 97t178 251l25 92q-192 49 -395 49q-179 0 -277 -98q-73 -73 -73 -178q0 -98 68.5 -155.5t185.5 -57.5z" />
    <glyph glyph-name="uni0431" unicode="&#x431;" horiz-adv-x="1325" 
d="M629 -25q-213 0 -340 127q-135 135 -135 383q0 204 77 421t220 360q96 96 223 147.5t334 71.5l297 31l4 -95l-293 -30q-184 -20 -299.5 -65t-190.5 -120t-128.5 -165t-104.5 -242q78 107 201 167t254 60q218 0 343.5 -125.5t125.5 -322.5q0 -123 -46.5 -236t-132.5 -199
q-168 -168 -409 -168zM631 70q195 0 330 135q68 68 107.5 166.5t39.5 208.5q0 163 -95.5 257.5t-271.5 94.5q-211 0 -348 -137q-133 -133 -133 -340q0 -172 96 -278.5t275 -106.5z" />
    <glyph glyph-name="uni0432" unicode="&#x432;" horiz-adv-x="1226" 
d="M51 0l279 1044h458q158 0 244 -63.5t86 -175.5q0 -115 -74.5 -186t-187.5 -93q85 -23 133.5 -81.5t48.5 -137.5q0 -65 -25 -117.5t-67.5 -87t-100.5 -58t-122 -34t-135 -10.5h-537zM305 573h354q74 0 135 11.5t111.5 36.5t78.5 69.5t28 106.5q0 72 -58.5 113.5
t-173.5 41.5h-374zM176 92h418q66 0 123 11t107 34.5t79 68t29 105.5q0 81 -67 126.5t-195 45.5h-389z" />
    <glyph glyph-name="uni0433" unicode="&#x433;" horiz-adv-x="995" 
d="M51 0l279 1044h745l-24 -92h-645l-254 -952h-101z" />
    <glyph glyph-name="uni0434" unicode="&#x434;" horiz-adv-x="1306" 
d="M-59 92h114l693 961h102l170 -961h117l-103 -379h-94l78 287h-1008l-78 -287h-94zM776 948l-608 -856h750z" />
    <glyph glyph-name="uni0435" unicode="&#x435;" horiz-adv-x="1193" 
d="M1073 487h-858q-4 -17 -4 -69q0 -155 93 -252.5t243 -97.5q110 0 198 36t170 103l58 -70q-93 -79 -194 -120.5t-234 -41.5q-194 0 -318.5 124t-124.5 315q0 132 54 258t149 221q176 176 402 176q126 0 217.5 -55.5t134.5 -144.5t43 -199q0 -94 -29 -183zM383 838
q-109 -109 -150 -260h758q8 24 8 86q0 135 -74.5 224t-219.5 89q-183 0 -322 -139z" />
    <glyph glyph-name="uni0436" unicode="&#x436;" horiz-adv-x="1738" 
d="M1059 1044l-127 -473h182l541 473h143l-604 -518l356 -526h-114l-324 483h-205l-127 -483h-100l129 483h-178l-557 -483h-144l631 535l-328 509h115l301 -473h185l124 473h101z" />
    <glyph glyph-name="uni0437" unicode="&#x437;" horiz-adv-x="1146" 
d="M485 -20q-274 0 -489 155l59 76q99 -71 197.5 -105t228.5 -34q167 0 265 60t98 163q0 87 -77.5 138.5t-242.5 51.5h-217l25 90h227q177 0 277 60t100 160q0 85 -76.5 133.5t-212.5 48.5q-194 0 -403 -107l-45 80q229 119 452 119q185 0 288 -75.5t103 -194.5
q0 -114 -81 -183t-211 -96q200 -57 200 -225q0 -141 -129 -228t-336 -87z" />
    <glyph glyph-name="uni0438" unicode="&#x438;" horiz-adv-x="1296" 
d="M1133 1044h112l-278 -1044h-101l238 895l-940 -895h-113l279 1044h100l-240 -899z" />
    <glyph glyph-name="uni0439" unicode="&#x439;" horiz-adv-x="1296" 
d="M1133 1044h112l-278 -1044h-101l238 895l-940 -895h-113l279 1044h100l-240 -899zM834 1214q-119 0 -177.5 61.5t-35.5 168.5h77q-2 -65 34 -98t120 -33q144 0 225 131h88q-36 -108 -125 -169t-206 -61z" />
    <glyph glyph-name="uni043A" unicode="&#x43a;" horiz-adv-x="1146" 
d="M51 0l279 1044h100l-127 -471h186l578 471h145l-643 -518l396 -526h-117l-361 481h-208l-127 -481h-101z" />
    <glyph glyph-name="uni043B" unicode="&#x43b;" horiz-adv-x="1177" 
d="M797 1053l200 -1053h-106l-166 926l-664 -926h-120l766 1053h90z" />
    <glyph glyph-name="uni043C" unicode="&#x43c;" horiz-adv-x="1468" 
d="M653 240l-270 639l-233 -879h-99l279 1044h90l268 -649l602 649h127l-278 -1044h-103l236 889l-613 -649h-6z" />
    <glyph glyph-name="uni043D" unicode="&#x43d;" horiz-adv-x="1288" 
d="M1237 1044l-279 -1044h-100l129 481h-706l-129 -481h-101l279 1044h100l-125 -471h707l125 471h100z" />
    <glyph glyph-name="uni043E" unicode="&#x43e;" horiz-adv-x="1294" 
d="M569 -25q-206 0 -335.5 130.5t-129.5 332.5q0 125 50.5 240t140.5 205q88 88 198.5 137t231.5 49q206 0 335.5 -130.5t129.5 -332.5q0 -125 -50.5 -239.5t-140.5 -204.5q-88 -88 -199 -137.5t-231 -49.5zM580 70q189 0 338 149q77 77 120 176t43 207q0 176 -99.5 274.5
t-266.5 98.5q-188 0 -338 -150q-77 -77 -120.5 -176t-43.5 -207q0 -176 100 -274t267 -98z" />
    <glyph glyph-name="uni043F" unicode="&#x43f;" horiz-adv-x="1284" 
d="M1233 1044l-279 -1044h-100l254 952h-702l-254 -952h-101l279 1044h903z" />
    <glyph glyph-name="uni0440" unicode="&#x440;" horiz-adv-x="1339" 
d="M639 -27q-85 0 -156 24t-120.5 66.5t-83.5 92.5t-56 110l-160 -594h-100l367 1372h100l-55 -204q191 229 434 229q181 0 300.5 -124.5t119.5 -315.5q0 -144 -52 -268.5t-145 -217.5q-81 -81 -182.5 -125.5t-210.5 -44.5zM635 68q186 0 321 135q78 78 121 186.5t43 226.5
q0 161 -90 260t-233 99q-95 0 -186.5 -42.5t-166.5 -117.5q-78 -78 -124 -178t-46 -205q0 -155 101 -259.5t260 -104.5z" />
    <glyph glyph-name="uni0441" unicode="&#x441;" horiz-adv-x="1153" 
d="M557 -25q-69 0 -135 19t-124 57.5t-101.5 91.5t-69 126t-25.5 157q0 131 51 249.5t144 211.5q182 182 420 182q150 0 251.5 -70.5t157.5 -181.5l-86 -49q-58 98 -133 152.5t-196 54.5q-92 0 -178.5 -39.5t-155.5 -108.5q-77 -77 -121.5 -179.5t-44.5 -215.5
q0 -168 104 -265t248 -97q179 0 338 149l68 -65q-182 -179 -412 -179z" />
    <glyph glyph-name="uni0442" unicode="&#x442;" horiz-adv-x="1107" 
d="M195 1044h1001l-25 -92h-452l-254 -952h-100l253 952h-448z" />
    <glyph glyph-name="uni0443" unicode="&#x443;" horiz-adv-x="1163" 
d="M387 2l-213 1042h109l180 -933l627 933h122l-743 -1081q-114 -163 -212 -230t-216 -67q-117 0 -221 72l55 78q84 -60 178 -60q83 0 162 55.5t172 190.5z" />
    <glyph glyph-name="uni0444" unicode="&#x444;" horiz-adv-x="1671" 
d="M557 -328l88 328q-252 26 -391 151t-139 318q0 214 151 365q105 105 266 161t361 56h12h21l121 444h100l-121 -451q251 -26 390.5 -151t139.5 -318q0 -213 -151 -364q-105 -105 -266 -161t-361 -56h-12h-23l-86 -322h-100zM1448 573q0 158 -114.5 259.5t-332.5 121.5
l-233 -868h16q357 0 537 180q127 127 127 307zM223 471q0 -159 114.5 -261t330.5 -120l235 868h-16q-357 0 -537 -180q-127 -127 -127 -307z" />
    <glyph glyph-name="uni0445" unicode="&#x445;" horiz-adv-x="1144" 
d="M360 1044l230 -440l459 440h135l-549 -512l289 -532h-115l-242 469l-491 -469h-135l581 541l-276 503h114z" />
    <glyph glyph-name="uni0446" unicode="&#x446;" horiz-adv-x="1304" 
d="M51 0l279 1044h100l-254 -952h703l254 952h100l-254 -952h127l-102 -379h-95l78 287h-936z" />
    <glyph glyph-name="uni0447" unicode="&#x447;" horiz-adv-x="1169" 
d="M1118 1044l-278 -1044h-101l101 369q-140 -31 -275 -31q-193 0 -295 73t-102 220q0 66 29 180l63 233h100l-65 -243q-27 -106 -27 -166q0 -203 297 -203q153 0 297 33l156 579h100z" />
    <glyph glyph-name="uni0448" unicode="&#x448;" horiz-adv-x="1927" 
d="M51 0l279 1044h100l-254 -952h623l254 952h100l-254 -952h623l254 952h100l-279 -1044h-1546z" />
    <glyph glyph-name="uni0449" unicode="&#x449;" horiz-adv-x="1947" 
d="M51 0l279 1044h100l-254 -952h623l254 952h100l-254 -952h623l254 952h100l-254 -952h127l-102 -379h-95l78 287h-1579z" />
    <glyph glyph-name="uni044A" unicode="&#x44a;" horiz-adv-x="1384" 
d="M1245 371q0 -119 -70 -204.5t-183.5 -126t-256.5 -40.5h-459l254 952h-368l24 92h469l-102 -382h299q192 0 292.5 -79t100.5 -212zM1139 365q0 204 -297 204h-314l-127 -477h347q175 0 283 73t108 200z" />
    <glyph glyph-name="uni044B" unicode="&#x44b;" horiz-adv-x="1568" 
d="M1020 371q0 -119 -70 -204.5t-183.5 -126t-256.5 -40.5h-459l279 1044h100l-102 -382h299q192 0 292.5 -79t100.5 -212zM913 365q0 204 -297 204h-313l-127 -477h346q175 0 283 73t108 200zM1139 0l278 1044h101l-279 -1044h-100z" />
    <glyph glyph-name="uni044C" unicode="&#x44c;" horiz-adv-x="1159" 
d="M1020 371q0 -119 -70 -204.5t-183.5 -126t-256.5 -40.5h-459l279 1044h100l-102 -382h299q192 0 292.5 -79t100.5 -212zM913 365q0 204 -297 204h-313l-127 -477h346q175 0 283 73t108 200z" />
    <glyph glyph-name="uni044D" unicode="&#x44d;" horiz-adv-x="1161" 
d="M330 578h620q2 10 2 34v2q0 171 -99.5 266t-246.5 95q-177 0 -360 -141l-58 73q201 162 424 162q90 0 170.5 -30t143 -86t99 -144t36.5 -195q0 -128 -50.5 -247t-142.5 -211q-181 -181 -413 -181q-267 0 -424 240l80 57q67 -98 148 -150t200 -52q187 0 332 145
q109 109 147 270h-633z" />
    <glyph glyph-name="uni044E" unicode="&#x44e;" horiz-adv-x="1740" 
d="M51 0l279 1044h100l-125 -471h285q48 186 180 318q84 84 190.5 131t225.5 47q201 0 325.5 -130.5t124.5 -334.5q0 -126 -51 -242t-143 -208q-84 -84 -191 -131.5t-225 -47.5q-201 0 -326 130.5t-125 334.5v41h-294l-129 -481h-101zM1032 70q185 0 328 143
q79 79 123.5 180.5t44.5 206.5q0 176 -95 275.5t-253 99.5q-184 0 -328 -144q-79 -79 -123.5 -180.5t-44.5 -206.5q0 -176 95 -275t253 -99z" />
    <glyph glyph-name="uni044F" unicode="&#x44f;" horiz-adv-x="1249" 
d="M0 0l414 424q-101 31 -159.5 104t-57.5 170q0 83 37.5 150t101.5 109t146.5 64.5t176.5 22.5h539l-278 -1044h-101l109 408h-387h-21l-391 -408h-129zM1073 952h-420q-157 0 -254.5 -62t-97.5 -190q0 -97 70 -149.5t196 -52.5h385z" />
    <glyph glyph-name="uni0450" unicode="&#x450;" horiz-adv-x="1193" 
d="M1073 487h-858q-4 -17 -4 -69q0 -155 93 -252.5t243 -97.5q110 0 198 36t170 103l58 -70q-93 -79 -194 -120.5t-234 -41.5q-194 0 -318.5 124t-124.5 315q0 132 54 258t149 221q176 176 402 176q126 0 217.5 -55.5t134.5 -144.5t43 -199q0 -94 -29 -183zM383 838
q-109 -109 -150 -260h758q8 24 8 86q0 135 -74.5 224t-219.5 89q-183 0 -322 -139zM733 1219l-162 211l127 61l107 -272h-72z" />
    <glyph glyph-name="uni0451" unicode="&#x451;" horiz-adv-x="1193" 
d="M1073 487h-858q-4 -17 -4 -69q0 -155 93 -252.5t243 -97.5q110 0 198 36t170 103l58 -70q-93 -79 -194 -120.5t-234 -41.5q-194 0 -318.5 124t-124.5 315q0 132 54 258t149 221q176 176 402 176q126 0 217.5 -55.5t134.5 -144.5t43 -199q0 -94 -29 -183zM383 838
q-109 -109 -150 -260h758q8 24 8 86q0 135 -74.5 224t-219.5 89q-183 0 -322 -139zM551 1219l45 163h141l-45 -163h-141zM885 1219l45 163h141l-45 -163h-141z" />
    <glyph glyph-name="uni0452" unicode="&#x452;" horiz-adv-x="1206" 
d="M866 1188h-397l-88 -330q149 33 274 33q194 0 296 -73t102 -220q0 -66 -29 -180l-106 -393q-56 -200 -141.5 -279.5t-229.5 -79.5q-94 0 -168 29l24 90q74 -29 150 -29q103 0 165 65t103 218l105 389q26 102 26 166q0 203 -297 203q-146 0 -299 -35l-204 -762h-101
l318 1188h-238l25 92h237l60 215h100l-59 -215h397z" />
    <glyph glyph-name="uni0453" unicode="&#x453;" horiz-adv-x="995" 
d="M51 0l279 1044h745l-24 -92h-645l-254 -952h-101zM647 1219l254 272l127 -61l-276 -211h-105z" />
    <glyph glyph-name="uni0454" unicode="&#x454;" horiz-adv-x="1163" 
d="M858 578l-24 -93h-621q-2 -18 -2 -53v-2q0 -115 49.5 -198t127.5 -122.5t173 -39.5q191 0 354 135l60 -74q-99 -77 -198.5 -116.5t-221.5 -39.5q-90 0 -171 30t-144.5 86t-100.5 144t-37 195q0 128 51 248t142 211q180 180 422 180q266 0 418 -225l-80 -60
q-67 90 -146 140.5t-198 50.5q-93 0 -181.5 -39t-156.5 -107q-106 -106 -144 -251h629z" />
    <glyph glyph-name="uni0455" unicode="&#x455;" horiz-adv-x="1013" 
d="M444 -23q-261 0 -442 181l72 71q162 -159 383 -159q105 0 187.5 58t82.5 148q0 64 -49 112t-178 95q-156 58 -224.5 120t-68.5 161q0 128 107 215.5t280 87.5q104 0 205 -39.5t172 -99.5l-66 -76q-65 54 -149.5 88.5t-171.5 34.5q-125 0 -198 -58t-73 -137
q0 -63 47.5 -106.5t188.5 -98.5q155 -62 220 -126t65 -156q0 -135 -114 -225.5t-276 -90.5z" />
    <glyph glyph-name="uni0456" unicode="&#x456;" horiz-adv-x="512" 
d="M66 0l280 1044h100l-280 -1044h-100zM408 1317l36 137h125l-37 -137h-124z" />
    <glyph glyph-name="uni0457" unicode="&#x457;" horiz-adv-x="512" 
d="M66 0l280 1044h100l-280 -1044h-100zM207 1219l45 163h141l-45 -163h-141zM541 1219l45 163h141l-45 -163h-141z" />
    <glyph glyph-name="uni0458" unicode="&#x458;" horiz-adv-x="512" 
d="M-106 -334q-66 0 -130 21l25 90q66 -17 96 -17q115 0 154 142l307 1142h100l-309 -1150q-29 -109 -92.5 -168.5t-150.5 -59.5zM408 1317l36 137h125l-37 -137h-124z" />
    <glyph glyph-name="uni0459" unicode="&#x459;" horiz-adv-x="1705" 
d="M-113 0l942 1044h168l-102 -382h279q192 0 292.5 -79t100.5 -212q0 -119 -70 -204.5t-183.5 -126t-256.5 -40.5h-439l256 958h-4l-862 -958h-121zM1460 365q0 204 -297 204h-293l-127 -477h326q175 0 283 73t108 200z" />
    <glyph glyph-name="uni045A" unicode="&#x45a;" horiz-adv-x="1933" 
d="M51 0l279 1044h100l-125 -471h692l127 471h101l-103 -382h279q192 0 292.5 -79t100.5 -212q0 -119 -70 -204.5t-183.5 -126t-256.5 -40.5h-438l127 481h-692l-129 -481h-101zM1688 365q0 204 -297 204h-293l-127 -477h325q175 0 283.5 73t108.5 200z" />
    <glyph glyph-name="uni045B" unicode="&#x45b;" horiz-adv-x="1206" 
d="M866 1188h-397l-88 -330q149 33 274 33q194 0 296 -73t102 -220q0 -66 -29 -180l-113 -418h-100l115 428q26 102 26 166q0 203 -297 203q-146 0 -299 -35l-204 -762h-101l318 1188h-238l25 92h237l60 215h100l-59 -215h397z" />
    <glyph glyph-name="uni045C" unicode="&#x45c;" horiz-adv-x="1146" 
d="M51 0l279 1044h100l-127 -471h186l578 471h145l-643 -518l396 -526h-117l-361 481h-208l-127 -481h-101zM713 1219l254 272l127 -61l-277 -211h-104z" />
    <glyph glyph-name="uni045D" unicode="&#x45d;" horiz-adv-x="1296" 
d="M1133 1044h112l-278 -1044h-101l238 895l-940 -895h-113l279 1044h100l-240 -899zM770 1219l-162 211l127 61l107 -272h-72z" />
    <glyph glyph-name="uni045E" unicode="&#x45e;" horiz-adv-x="1163" 
d="M387 2l-213 1042h109l180 -933l627 933h122l-743 -1081q-114 -163 -212 -230t-216 -67q-117 0 -221 72l55 78q84 -60 178 -60q83 0 162 55.5t172 190.5zM715 1214q-119 0 -177.5 61.5t-35.5 168.5h78q-2 -65 33.5 -98t119.5 -33q144 0 225 131h89q-36 -108 -125.5 -169
t-206.5 -61z" />
    <glyph glyph-name="uni045F" unicode="&#x45f;" horiz-adv-x="1284" 
d="M51 0l279 1044h100l-254 -952h703l254 952h100l-279 -1044h-409l-78 -287h-94l78 287h-400z" />
    <glyph glyph-name="uni0462" unicode="&#x462;" horiz-adv-x="1693" 
d="M1348 1104h-543l-90 -340h413q240 0 351 -111q84 -84 84 -217q0 -167 -111 -278q-158 -158 -498 -158h-551l295 1104h-481l27 98h481l70 262h106l-70 -262h543zM1456 432q0 95 -57 152q-82 82 -281 82h-430l-151 -568h432q282 0 403 121q84 84 84 213z" />
    <glyph glyph-name="uni0463" unicode="&#x463;" horiz-adv-x="1384" 
d="M1106 1044l-25 -92h-450l-78 -290h299q192 0 292.5 -79t100.5 -212q0 -119 -70 -204.5t-183.5 -126t-256.5 -40.5h-459l256 952h-372l24 92h373l121 451h100l-123 -451h451zM1139 365q0 204 -297 204h-314l-127 -477h347q175 0 283 73t108 200z" />
    <glyph glyph-name="uni0472" unicode="&#x472;" horiz-adv-x="1732" 
d="M1022 1458q176 0 318.5 -82t221 -222.5t78.5 -311.5q0 -176 -69.5 -339t-194.5 -288q-113 -113 -258.5 -177.5t-302.5 -64.5q-132 0 -248 48.5t-196.5 131t-127 196t-46.5 241.5q0 176 69.5 339t194.5 288q113 113 258 177t303 64zM1296 276q164 164 215 396h-1202
q-4 -18 -4 -82q0 -146 63 -264t180.5 -187t266.5 -69q138 0 261 54.5t220 151.5zM1022 1362q-138 0 -261 -55t-220 -152q-162 -162 -215 -385h1202q4 46 4 72q0 146 -63 264t-180.5 187t-266.5 69z" />
    <glyph glyph-name="uni0473" unicode="&#x473;" horiz-adv-x="1294" 
d="M569 -25q-206 0 -335.5 130.5t-129.5 332.5q0 125 50.5 240t140.5 205q88 88 198.5 137t231.5 49q206 0 335.5 -130.5t129.5 -332.5q0 -125 -50.5 -239.5t-140.5 -204.5q-88 -88 -199 -137.5t-231 -49.5zM580 70q191 0 340 149q110 110 149 262h-858q-2 -14 -2 -39v-2
q0 -173 101.5 -271.5t269.5 -98.5zM375 825q-110 -110 -150 -252h858q2 6 2 29v2q0 173 -101 272t-269 99q-190 0 -340 -150z" />
    <glyph glyph-name="uni0474" unicode="&#x474;" horiz-adv-x="1581" 
d="M526 -10l-235 1444h110l199 -1319l592 895q74 111 124.5 178t102 121t101 80t105 38.5t130.5 12.5h41l-24 -97h-21q-52 0 -90.5 -6t-77.5 -25.5t-70.5 -45.5t-73 -75.5t-80.5 -105t-99 -145.5l-639 -950h-95z" />
    <glyph glyph-name="uni0475" unicode="&#x475;" horiz-adv-x="1191" 
d="M442 -8h-86l-174 1052h109l135 -931l434 671q92 147 186.5 208t241.5 61h31l-27 -95h-20q-100 0 -174.5 -49.5t-149.5 -165.5z" />
    <glyph glyph-name="uni0490" unicode="&#x490;" 
d="M1380 1335h-841l-359 -1335h-106l385 1434h844l75 288h105z" />
    <glyph glyph-name="uni0491" unicode="&#x491;" horiz-adv-x="995" 
d="M1149 1321l-98 -369h-645l-254 -952h-101l279 1044h651l74 277h94z" />
    <glyph glyph-name="uni0492" unicode="&#x492;" horiz-adv-x="1290" 
d="M135 0l176 655h-153l26 99h154l182 680h948l-26 -99h-842l-156 -581h433l-27 -99h-432l-176 -655h-107z" />
    <glyph glyph-name="uni0493" unicode="&#x493;" horiz-adv-x="1032" 
d="M88 0l121 457h-141l24 92h141l134 495h745l-25 -92h-645l-108 -403h309l-25 -92h-309l-121 -457h-100z" />
    <glyph glyph-name="uni0496" unicode="&#x496;" horiz-adv-x="2228" 
d="M1405 1434l-176 -648h219l754 648h147l-825 -697l415 -639h154l-108 -401h-105l82 303h-74l-442 688h-242l-184 -688h-107l185 688h-219l-793 -688h-147l874 748l-461 686h121l426 -648h223l176 648h107z" />
    <glyph glyph-name="uni0497" unicode="&#x497;" horiz-adv-x="1759" 
d="M1059 1044l-127 -473h182l541 473h143l-604 -518l293 -434h131l-102 -379h-95l78 287h-63l-324 483h-205l-127 -483h-100l129 483h-178l-557 -483h-144l631 535l-328 509h115l301 -473h185l124 473h101z" />
    <glyph glyph-name="uni0498" unicode="&#x498;" horiz-adv-x="1382" 
d="M434 -303l76 285q-273 32 -479 215l71 75q221 -200 525 -200q125 0 226.5 36t165.5 112.5t64 182.5q0 123 -105 197t-319 74h-213l27 96h234q244 0 378 82t134 238q0 113 -100 193.5t-281 80.5q-242 0 -476 -150l-51 84q258 160 535 160q223 0 353 -103.5t130 -260.5
q0 -79 -32 -146t-88 -113.5t-126.5 -77.5t-152.5 -46q123 -36 193.5 -115t70.5 -188q0 -131 -80.5 -231t-210 -151t-282.5 -51h-7l-75 -278h-105z" />
    <glyph glyph-name="uni0499" unicode="&#x499;" horiz-adv-x="1146" 
d="M332 -287l71 271q-226 18 -407 151l59 76q99 -71 197.5 -105t228.5 -34q167 0 265 60t98 163q0 87 -77.5 138.5t-242.5 51.5h-217l25 90h227q177 0 277 60t100 160q0 85 -76.5 133.5t-212.5 48.5q-194 0 -403 -107l-45 80q229 119 452 119q185 0 288 -75.5t103 -194.5
q0 -114 -81 -183t-211 -96q200 -57 200 -225q0 -139 -125 -224.5t-327 -90.5l-72 -267h-94z" />
    <glyph glyph-name="uni049A" unicode="&#x49a;" horiz-adv-x="1486" 
d="M74 0l385 1434h106l-174 -648h275l796 648h158l-866 -699l458 -637h144l-109 -401h-104l82 303h-64l-495 688h-301l-185 -688h-106z" />
    <glyph glyph-name="uni049B" unicode="&#x49b;" horiz-adv-x="1155" 
d="M51 0l279 1044h100l-127 -471h186l578 471h145l-643 -518l326 -434h123l-103 -379h-94l78 287h-51l-361 481h-208l-127 -481h-101z" />
    <glyph glyph-name="uni049C" unicode="&#x49c;" horiz-adv-x="1511" 
d="M1303 0h-121l-394 674h-16l-123 -469h-102l125 469h-312l-180 -674h-106l385 1434h106l-178 -662h309l129 475h103l-129 -475h12l709 662h149l-780 -719z" />
    <glyph glyph-name="uni049D" unicode="&#x49d;" horiz-adv-x="1249" 
d="M1018 0h-115l-252 487h-76l-88 -325h-96l88 325h-196l-131 -487h-101l281 1044h100l-125 -464h197l86 325h96l-86 -325h62l505 464h138l-566 -514z" />
    <glyph glyph-name="uni04A0" unicode="&#x4a0;" horiz-adv-x="1792" 
d="M403 0l359 1335h-483l26 99h590l-174 -648h274l797 648h158l-867 -699l531 -735h-123l-496 688h-301l-184 -688h-107z" />
    <glyph glyph-name="uni04A1" unicode="&#x4a1;" horiz-adv-x="1372" 
d="M276 0l254 952h-368l24 92h469l-127 -471h187l577 471h146l-643 -518l395 -526h-117l-360 481h-209l-127 -481h-101z" />
    <glyph glyph-name="uni04A2" unicode="&#x4a2;" horiz-adv-x="1568" 
d="M74 0l385 1434h106l-178 -664h907l179 664h106l-358 -1336h141l-109 -401h-104l82 303h-144l181 672h-908l-180 -672h-106z" />
    <glyph glyph-name="uni04A3" unicode="&#x4a3;" horiz-adv-x="1308" 
d="M1237 1044l-254 -952h123l-102 -379h-95l78 287h-129l129 481h-706l-129 -481h-101l279 1044h100l-125 -471h707l125 471h100z" />
    <glyph glyph-name="uni04A4" unicode="&#x4a4;" horiz-adv-x="2140" 
d="M1067 0l180 672h-887l-180 -672h-106l385 1434h106l-178 -664h887l178 664h866l-26 -99h-760l-358 -1335h-107z" />
    <glyph glyph-name="uni04A5" unicode="&#x4a5;" horiz-adv-x="1769" 
d="M846 0l127 481h-692l-129 -481h-101l279 1044h100l-125 -471h692l127 471h725l-24 -92h-625l-254 -952h-100z" />
    <glyph glyph-name="uni04AA" unicode="&#x4aa;" horiz-adv-x="1511" 
d="M602 -303l76 283q-213 30 -351.5 184t-138.5 391q0 183 73 352.5t204 300.5q118 118 266.5 184t312.5 66q187 0 322 -85t205 -224l-92 -49q-76 130 -178 196t-263 66q-139 0 -264 -55.5t-225 -155.5q-118 -118 -184 -273t-66 -319q0 -222 136 -354.5t349 -132.5
q151 0 265.5 54.5t220.5 160.5l71 -66q-111 -116 -245.5 -182t-315.5 -66l-73 -276h-105z" />
    <glyph glyph-name="uni04AB" unicode="&#x4ab;" horiz-adv-x="1153" 
d="M387 -287l74 273q-154 31 -256.5 147.5t-102.5 292.5q0 131 51 249.5t144 211.5q182 182 420 182q150 0 251.5 -70.5t157.5 -181.5l-86 -49q-58 98 -133 152.5t-196 54.5q-92 0 -178.5 -39.5t-155.5 -108.5q-77 -77 -121.5 -179.5t-44.5 -215.5q0 -168 104 -265t248 -97
q179 0 338 149l68 -65q-182 -179 -412 -179h-6l-70 -262h-94z" />
    <glyph glyph-name="uni04AE" unicode="&#x4ae;" horiz-adv-x="1368" 
d="M479 0l156 582l-375 852h117l330 -770l745 770h143l-862 -879l-147 -555h-107z" />
    <glyph glyph-name="uni04AF" unicode="&#x4af;" horiz-adv-x="1140" 
d="M373 -328h-101l90 338l-180 1034h109l145 -931l639 931h123l-737 -1040z" />
    <glyph glyph-name="uni04B0" unicode="&#x4b0;" horiz-adv-x="1368" 
d="M479 0l129 487h-385l27 99h383l-373 848h117l330 -770l745 770h143l-833 -848h401l-26 -99h-422l-129 -487h-107z" />
    <glyph glyph-name="uni04B1" unicode="&#x4b1;" horiz-adv-x="1140" 
d="M1198 1044l-676 -952h324l-25 -92h-360l-88 -328h-101l88 328h-329l24 92h293l-166 952h109l145 -931l639 931h123z" />
    <glyph glyph-name="uni04B2" unicode="&#x4b2;" horiz-adv-x="1478" 
d="M-47 0l749 741l-380 693h114l342 -631l635 631h137l-721 -711l340 -625h136l-109 -401h-104l82 303h-66l-354 662l-664 -662h-137z" />
    <glyph glyph-name="uni04B3" unicode="&#x4b3;" horiz-adv-x="1153" 
d="M360 1044l230 -440l459 440h135l-549 -512l237 -440h123l-102 -379h-94l78 287h-68l-242 469l-491 -469h-135l581 541l-276 503h114z" />
    <glyph glyph-name="uni04B6" unicode="&#x4b6;" horiz-adv-x="1423" 
d="M942 0l152 569q-175 -37 -355 -37q-108 0 -194.5 20.5t-152 63t-101 112.5t-35.5 163q0 94 33 215l88 328h106l-92 -340q-29 -101 -29 -197q0 -132 103 -200t287 -68q175 0 370 45l205 760h107l-359 -1336h142l-109 -401h-104l81 303h-143z" />
    <glyph glyph-name="uni04B7" unicode="&#x4b7;" horiz-adv-x="1189" 
d="M1118 1044l-254 -952h123l-102 -379h-94l77 287h-129l101 369q-140 -31 -275 -31q-193 0 -295 73t-102 220q0 66 29 180l63 233h100l-65 -243q-27 -106 -27 -166q0 -203 297 -203q153 0 297 33l156 579h100z" />
    <glyph glyph-name="uni04B8" unicode="&#x4b8;" horiz-adv-x="1402" 
d="M776 1106h103l-131 -477h4q175 0 370 45l205 760h107l-385 -1434h-107l152 569q-175 -37 -355 -37h-16l-92 -352h-103l97 359q-172 18 -270.5 106t-98.5 246q0 94 33 215l88 328h106l-92 -340q-29 -101 -29 -197q0 -114 75 -179t214 -83z" />
    <glyph glyph-name="uni04B9" unicode="&#x4b9;" horiz-adv-x="1169" 
d="M664 766l-91 -332q160 0 291 39l154 571h100l-278 -1044h-101l101 373q-146 -35 -281 -35h-12l-58 -225h-96l60 231q-289 38 -289 287q0 58 31 172l65 241h100l-67 -251q-27 -106 -27 -158q0 -89 53.5 -137t159.5 -60l88 328h97z" />
    <glyph glyph-name="uni04BA" unicode="&#x4ba;" horiz-adv-x="1400" 
d="M565 1434l-151 -570q175 37 354 37q223 0 353 -88t130 -270q0 -98 -32 -215l-89 -328h-106l92 340q29 101 29 197q0 132 -102.5 200t-286.5 68q-176 0 -371 -45l-205 -760h-106l385 1434h106z" />
    <glyph glyph-name="uni04BB" unicode="&#x4bb;" horiz-adv-x="1251" 
d="M51 0l402 1495h100l-174 -645q92 107 182 163t213 56q156 0 249 -90t93 -242q0 -70 -22 -147l-156 -590h-100l159 598q17 66 17 129q0 117 -72 184.5t-197 67.5q-89 0 -178 -49t-159 -139.5t-99 -200.5l-157 -590h-101z" />
    <glyph glyph-name="uni04C0" unicode="&#x4c0;" horiz-adv-x="561" 
d="M88 0l385 1434h107l-385 -1434h-107z" />
    <glyph glyph-name="uni04C1" unicode="&#x4c1;" horiz-adv-x="2197" 
d="M1405 1434l-176 -648h219l754 648h147l-825 -697l481 -737h-117l-442 688h-242l-184 -688h-107l185 688h-219l-793 -688h-147l874 748l-461 686h121l426 -648h223l176 648h107zM1389 1563q-118 0 -177 53.5t-41 150.5h86q2 -54 36.5 -80t117.5 -26q145 0 211 106h94
q-35 -97 -122.5 -150.5t-204.5 -53.5z" />
    <glyph glyph-name="uni04C2" unicode="&#x4c2;" horiz-adv-x="1738" 
d="M1059 1044l-127 -473h182l541 473h143l-604 -518l356 -526h-114l-324 483h-205l-127 -483h-100l129 483h-178l-557 -483h-144l631 535l-328 509h115l301 -473h185l124 473h101zM1063 1214q-119 0 -177.5 61.5t-35.5 168.5h78q-2 -65 33.5 -98t119.5 -33q145 0 226 131h88
q-36 -108 -125.5 -169t-206.5 -61z" />
    <glyph glyph-name="uni04CF" unicode="&#x4cf;" horiz-adv-x="512" 
d="M66 0l401 1495h100l-401 -1495h-100z" />
    <glyph glyph-name="uni04D0" unicode="&#x4d0;" horiz-adv-x="1554" 
d="M-70 0l1055 1444h102l281 -1444h-108l-74 401h-846l-291 -401h-119zM410 498h755l-153 829zM1085 1583q-117 0 -176 54t-41 151h86q2 -54 36.5 -80.5t117.5 -26.5q145 0 211 107h94q-35 -97 -123 -151t-205 -54z" />
    <glyph glyph-name="uni04D1" unicode="&#x4d1;" horiz-adv-x="1169" 
d="M389 -25q-90 0 -166 31.5t-126 100t-50 161.5q0 148 100 248q131 131 371 131q204 0 402 -59l8 28q14 54 14 105q0 119 -81 182.5t-234 63.5q-143 0 -303 -56l-19 90q160 60 330 60q191 0 298 -86.5t107 -239.5q0 -70 -20 -137l-160 -598h-98l47 180q-169 -205 -420 -205
zM408 68q153 0 288 97t178 251l25 92q-192 49 -395 49q-179 0 -277 -98q-73 -73 -73 -178q0 -98 68.5 -155.5t185.5 -57.5zM737 1214q-119 0 -177.5 61.5t-35.5 168.5h78q-2 -65 34 -98t120 -33q144 0 225 131h88q-36 -108 -125.5 -169t-206.5 -61z" />
    <glyph glyph-name="uni04D2" unicode="&#x4d2;" horiz-adv-x="1554" 
d="M-70 0l1055 1444h102l281 -1444h-108l-74 401h-846l-291 -401h-119zM410 498h755l-153 829zM823 1587l43 156h152l-43 -156h-152zM1184 1587l43 156h149l-43 -156h-149z" />
    <glyph glyph-name="uni04D3" unicode="&#x4d3;" horiz-adv-x="1169" 
d="M389 -25q-90 0 -166 31.5t-126 100t-50 161.5q0 148 100 248q131 131 371 131q204 0 402 -59l8 28q14 54 14 105q0 119 -81 182.5t-234 63.5q-143 0 -303 -56l-19 90q160 60 330 60q191 0 298 -86.5t107 -239.5q0 -70 -20 -137l-160 -598h-98l47 180q-169 -205 -420 -205
zM408 68q153 0 288 97t178 251l25 92q-192 49 -395 49q-179 0 -277 -98q-73 -73 -73 -178q0 -98 68.5 -155.5t185.5 -57.5zM492 1219l45 163h141l-45 -163h-141zM825 1219l45 163h142l-45 -163h-142z" />
    <glyph glyph-name="uni04D4" unicode="&#x4d4;" horiz-adv-x="2154" 
d="M-66 0l1252 1434h1108l-27 -99h-883l-151 -563h790l-26 -98h-791l-153 -576h893l-27 -98h-999l108 401h-616l-349 -401h-129zM496 498h557l225 839h-55z" />
    <glyph glyph-name="uni04D5" unicode="&#x4d5;" horiz-adv-x="1980" 
d="M397 -25q-93 0 -171 31.5t-128.5 100t-50.5 161.5q0 148 100 248q131 131 371 131q204 0 402 -59l8 28q14 54 14 105q0 119 -81 182.5t-234 63.5q-143 0 -303 -56l-19 90q160 60 330 60q165 0 268 -65t129 -183q86 116 206 186t255 70q126 0 217.5 -55.5t134.5 -144.5
t43 -199q0 -97 -28 -183h-859q-4 -17 -4 -69q0 -159 95.5 -254.5t250.5 -95.5q110 0 192.5 35t166.5 104l57 -70q-196 -162 -409 -162q-155 0 -262 68.5t-156 187.5q-246 -256 -535 -256zM414 68q259 0 491 256q-15 83 -2 182q-181 51 -399 51q-179 0 -277 -98
q-73 -73 -73 -178q0 -98 70.5 -155.5t189.5 -57.5zM1169 838q-108 -108 -149 -260h758q8 24 8 86q0 135 -75 224t-220 89q-183 0 -322 -139z" />
    <glyph glyph-name="uni04D6" unicode="&#x4d6;" horiz-adv-x="1329" 
d="M74 0l385 1434h1009l-26 -99h-903l-152 -563h811l-27 -98h-811l-153 -576h913l-26 -98h-1020zM993 1563q-117 0 -176 53.5t-41 150.5h86q2 -54 36.5 -80t117.5 -26q145 0 211 106h94q-35 -97 -123 -150.5t-205 -53.5z" />
    <glyph glyph-name="uni04D7" unicode="&#x4d7;" horiz-adv-x="1193" 
d="M1073 487h-858q-4 -17 -4 -69q0 -155 93 -252.5t243 -97.5q110 0 198 36t170 103l58 -70q-93 -79 -194 -120.5t-234 -41.5q-194 0 -318.5 124t-124.5 315q0 132 54 258t149 221q176 176 402 176q126 0 217.5 -55.5t134.5 -144.5t43 -199q0 -94 -29 -183zM383 838
q-109 -109 -150 -260h758q8 24 8 86q0 135 -74.5 224t-219.5 89q-183 0 -322 -139zM795 1214q-119 0 -177.5 61.5t-35.5 168.5h77q-2 -65 34 -98t120 -33q144 0 225 131h88q-36 -108 -125 -169t-206 -61z" />
    <glyph glyph-name="uni04D8" unicode="&#x4d8;" horiz-adv-x="1650" 
d="M195 522q0 127 41 248h1208q6 46 6 92q0 233 -135 366.5t-363 133.5q-260 0 -520 -199l-59 80q276 215 583 215q271 0 437 -161.5t166 -434.5q0 -175 -75 -354.5t-200 -296.5q-245 -236 -557 -236q-106 0 -194 28.5t-150 79t-104.5 119.5t-63 149.5t-20.5 170.5z
M1200 270q166 163 227 404h-1108q-16 -66 -16 -158t25.5 -170t76.5 -140t137.5 -97t200.5 -35q126 0 243.5 52.5t213.5 143.5z" />
    <glyph glyph-name="uni04D9" unicode="&#x4d9;" horiz-adv-x="1193" 
d="M94 375q0 93 29 182h858q4 46 4 70q0 155 -93 252.5t-243 97.5q-110 0 -198 -36t-170 -103l-58 69q93 79 194 120.5t234 41.5q194 0 318.5 -123.5t124.5 -314.5q0 -132 -54 -258t-149 -221q-177 -177 -402 -177q-95 0 -171.5 32t-124.5 87.5t-73.5 127t-25.5 153.5z
M813 207q99 99 150 260h-758q-8 -24 -8 -86q0 -135 75 -224t220 -89q182 0 321 139z" />
    <glyph glyph-name="uni04DC" unicode="&#x4dc;" horiz-adv-x="2197" 
d="M1405 1434l-176 -648h219l754 648h147l-825 -697l481 -737h-117l-442 688h-242l-184 -688h-107l185 688h-219l-793 -688h-147l874 748l-461 686h121l426 -648h223l176 648h107zM1126 1567l43 155h152l-43 -155h-152zM1487 1567l43 155h149l-43 -155h-149z" />
    <glyph glyph-name="uni04DD" unicode="&#x4dd;" horiz-adv-x="1738" 
d="M1059 1044l-127 -473h182l541 473h143l-604 -518l356 -526h-114l-324 483h-205l-127 -483h-100l129 483h-178l-557 -483h-144l631 535l-328 509h115l301 -473h185l124 473h101zM817 1219l45 163h142l-46 -163h-141zM1151 1219l45 163h141l-45 -163h-141z" />
    <glyph glyph-name="uni04DE" unicode="&#x4de;" horiz-adv-x="1382" 
d="M362 1214l-51 84q258 160 535 160q223 0 353 -103.5t130 -260.5q0 -79 -32 -146t-88 -113.5t-126.5 -77.5t-152.5 -46q123 -36 193.5 -115t70.5 -188q0 -131 -80.5 -231t-210 -151t-282.5 -51q-347 0 -590 222l71 75q221 -200 525 -200q125 0 226.5 36t165.5 112.5
t64 182.5q0 123 -105 197t-319 74h-213l27 96h234q244 0 378 82t134 238q0 113 -100 193.5t-281 80.5q-242 0 -476 -150zM645 1587l43 156h152l-43 -156h-152zM1006 1587l43 156h149l-43 -156h-149z" />
    <glyph glyph-name="uni04DF" unicode="&#x4df;" horiz-adv-x="1146" 
d="M485 -20q-274 0 -489 155l59 76q99 -71 197.5 -105t228.5 -34q167 0 265 60t98 163q0 87 -77.5 138.5t-242.5 51.5h-217l25 90h227q177 0 277 60t100 160q0 85 -76.5 133.5t-212.5 48.5q-194 0 -403 -107l-45 80q229 119 452 119q185 0 288 -75.5t103 -194.5
q0 -114 -81 -183t-211 -96q200 -57 200 -225q0 -141 -129 -228t-336 -87zM467 1219l45 163h141l-45 -163h-141zM801 1219l45 163h141l-45 -163h-141z" />
    <glyph glyph-name="uni04E2" unicode="&#x4e2;" horiz-adv-x="1613" 
d="M1532 1434h113l-385 -1434h-107l340 1266l-1327 -1266h-92l385 1434h106l-334 -1241zM764 1612l27 100h634l-26 -100h-635z" />
    <glyph glyph-name="uni04E3" unicode="&#x4e3;" horiz-adv-x="1296" 
d="M1133 1044h112l-278 -1044h-101l238 895l-940 -895h-113l279 1044h100l-240 -899zM530 1272l27 96h623l-27 -96h-623z" />
    <glyph glyph-name="uni04E4" unicode="&#x4e4;" horiz-adv-x="1613" 
d="M1532 1434h113l-385 -1434h-107l340 1266l-1327 -1266h-92l385 1434h106l-334 -1241zM811 1559l43 155h152l-43 -155h-152zM1171 1559l43 155h150l-43 -155h-150z" />
    <glyph glyph-name="uni04E5" unicode="&#x4e5;" horiz-adv-x="1296" 
d="M1133 1044h112l-278 -1044h-101l238 895l-940 -895h-113l279 1044h100l-240 -899zM590 1219l45 163h141l-45 -163h-141zM924 1219l45 163h141l-45 -163h-141z" />
    <glyph glyph-name="uni04E6" unicode="&#x4e6;" horiz-adv-x="1732" 
d="M1022 1458q176 0 318.5 -82t221 -222.5t78.5 -311.5q0 -176 -69.5 -339t-194.5 -288q-113 -113 -258.5 -177.5t-302.5 -64.5q-132 0 -248 48.5t-196.5 131t-127 196t-46.5 241.5q0 176 69.5 339t194.5 288q113 113 258 177t303 64zM815 70q137 0 259.5 54.5t219.5 151.5
q111 111 173.5 259.5t62.5 306.5q0 223 -142 371.5t-366 148.5q-137 0 -259.5 -55t-219.5 -152q-111 -111 -173.5 -259t-62.5 -306q0 -223 142 -371.5t366 -148.5zM868 1587l43 156h152l-43 -156h-152zM1229 1587l43 156h149l-43 -156h-149z" />
    <glyph glyph-name="uni04E7" unicode="&#x4e7;" horiz-adv-x="1294" 
d="M569 -25q-206 0 -335.5 130.5t-129.5 332.5q0 125 50.5 240t140.5 205q88 88 198.5 137t231.5 49q206 0 335.5 -130.5t129.5 -332.5q0 -125 -50.5 -239.5t-140.5 -204.5q-88 -88 -199 -137.5t-231 -49.5zM580 70q189 0 338 149q77 77 120 176t43 207q0 176 -99.5 274.5
t-266.5 98.5q-188 0 -338 -150q-77 -77 -120.5 -176t-43.5 -207q0 -176 100 -274t267 -98zM584 1219l45 163h141l-45 -163h-141zM918 1219l45 163h141l-45 -163h-141z" />
    <glyph glyph-name="uni04E8" unicode="&#x4e8;" horiz-adv-x="1732" 
d="M1022 1458q176 0 318.5 -82t221 -222.5t78.5 -311.5q0 -176 -69.5 -339t-194.5 -288q-113 -113 -258.5 -177.5t-302.5 -64.5q-132 0 -248 48.5t-196.5 131t-127 196t-46.5 241.5q0 176 69.5 339t194.5 288q113 113 258 177t303 64zM1296 276q164 164 215 396h-1202
q-4 -18 -4 -82q0 -146 63 -264t180.5 -187t266.5 -69q138 0 261 54.5t220 151.5zM1022 1362q-138 0 -261 -55t-220 -152q-162 -162 -215 -385h1202q4 46 4 72q0 146 -63 264t-180.5 187t-266.5 69z" />
    <glyph glyph-name="uni04E9" unicode="&#x4e9;" horiz-adv-x="1294" 
d="M569 -25q-206 0 -335.5 130.5t-129.5 332.5q0 125 50.5 240t140.5 205q88 88 198.5 137t231.5 49q206 0 335.5 -130.5t129.5 -332.5q0 -125 -50.5 -239.5t-140.5 -204.5q-88 -88 -199 -137.5t-231 -49.5zM580 70q191 0 340 149q110 110 149 262h-858q-2 -14 -2 -39v-2
q0 -173 101.5 -271.5t269.5 -98.5zM375 825q-110 -110 -150 -252h858q2 6 2 29v2q0 173 -101 272t-269 99q-190 0 -340 -150z" />
    <glyph glyph-name="uni04EE" unicode="&#x4ee;" horiz-adv-x="1441" 
d="M1616 1434l-1219 -1434h-129l424 498l-381 936h111l344 -854l721 854h129zM651 1612l27 100h635l-27 -100h-635z" />
    <glyph glyph-name="uni04EF" unicode="&#x4ef;" horiz-adv-x="1163" 
d="M387 2l-213 1042h109l180 -933l627 933h122l-743 -1081q-114 -163 -212 -230t-216 -67q-117 0 -221 72l55 78q84 -60 178 -60q83 0 162 55.5t172 190.5zM412 1272l26 96h623l-27 -96h-622z" />
    <glyph glyph-name="uni04F0" unicode="&#x4f0;" horiz-adv-x="1441" 
d="M1616 1434l-1219 -1434h-129l424 498l-381 936h111l344 -854l721 854h129zM698 1559l43 155h152l-43 -155h-152zM1059 1559l43 155h149l-43 -155h-149z" />
    <glyph glyph-name="uni04F1" unicode="&#x4f1;" horiz-adv-x="1163" 
d="M387 2l-213 1042h109l180 -933l627 933h122l-743 -1081q-114 -163 -212 -230t-216 -67q-117 0 -221 72l55 78q84 -60 178 -60q83 0 162 55.5t172 190.5zM471 1219l45 163h141l-45 -163h-141zM805 1219l45 163h141l-45 -163h-141z" />
    <glyph glyph-name="uni04F2" unicode="&#x4f2;" horiz-adv-x="1441" 
d="M1616 1434l-1219 -1434h-129l424 498l-381 936h111l344 -854l721 854h129zM721 1559l254 241l123 -57l-269 -184h-108zM1008 1559l254 241l122 -57l-268 -184h-108z" />
    <glyph glyph-name="uni04F3" unicode="&#x4f3;" horiz-adv-x="1163" 
d="M387 2l-213 1042h109l180 -933l627 933h122l-743 -1081q-114 -163 -212 -230t-216 -67q-117 0 -221 72l55 78q84 -60 178 -60q83 0 162 55.5t172 190.5zM479 1219l256 272l96 -59l-264 -213h-88zM791 1219l256 272l96 -59l-264 -213h-88z" />
    <glyph glyph-name="uni04F4" unicode="&#x4f4;" horiz-adv-x="1402" 
d="M942 0l152 569q-175 -37 -355 -37q-108 0 -194.5 20.5t-152 63t-101 112.5t-35.5 163q0 94 33 215l88 328h106l-92 -340q-29 -101 -29 -197q0 -132 103 -200t287 -68q175 0 370 45l205 760h107l-385 -1434h-107zM659 1559l43 155h152l-43 -155h-152zM1020 1559l43 155
h149l-43 -155h-149z" />
    <glyph glyph-name="uni04F5" unicode="&#x4f5;" horiz-adv-x="1169" 
d="M1118 1044l-278 -1044h-101l101 369q-140 -31 -275 -31q-193 0 -295 73t-102 220q0 66 29 180l63 233h100l-65 -243q-27 -106 -27 -166q0 -203 297 -203q153 0 297 33l156 579h100zM467 1219l45 163h141l-45 -163h-141zM801 1219l45 163h141l-45 -163h-141z" />
    <glyph glyph-name="uni04F8" unicode="&#x4f8;" horiz-adv-x="1886" 
d="M74 0l385 1434h106l-145 -543h325q279 0 410 -131q96 -96 96 -252q0 -195 -129 -324q-184 -184 -579 -184h-469zM1145 506q0 114 -72 186q-101 101 -342 101h-338l-186 -695h340q344 0 495 148q103 103 103 260zM1425 0l385 1434h107l-385 -1434h-107zM922 1559l43 155
h151l-43 -155h-151zM1282 1559l43 155h150l-43 -155h-150z" />
    <glyph glyph-name="uni04F9" unicode="&#x4f9;" horiz-adv-x="1568" 
d="M1020 371q0 -119 -70 -204.5t-183.5 -126t-256.5 -40.5h-459l279 1044h100l-102 -382h299q192 0 292.5 -79t100.5 -212zM913 365q0 204 -297 204h-313l-127 -477h346q175 0 283 73t108 200zM1139 0l278 1044h101l-279 -1044h-100zM719 1219l45 163h141l-45 -163h-141z
M1053 1219l45 163h141l-45 -163h-141z" />
    <glyph glyph-name="baht" unicode="&#xe3f;" horiz-adv-x="1290" 
d="M66 0l385 1434h407q28 0 82 -4l74 165h98l-82 -184q115 -32 174.5 -109t59.5 -194q0 -154 -108 -254.5t-286 -134.5q273 -53 273 -297q0 -187 -161.5 -304.5t-434.5 -117.5h-146l-106 -242h-98l106 242h-237zM1042 422q0 249 -344 258l-260 -588h113q234 0 362.5 87
t128.5 243zM371 766h278l254 573q-8 0 -27 1t-28 1h-322zM1161 1098q0 180 -176 227l-248 -559q199 10 311.5 100.5t112.5 231.5zM190 92h160l260 588h-264z" />
    <glyph glyph-name="Wgrave" unicode="&#x1e80;" horiz-adv-x="2199" 
d="M440 -10l-133 1444h111l108 -1276l762 1280h82l78 -1280l793 1276h118l-907 -1444h-86l-86 1245l-754 -1245h-86zM1292 1567l-170 184l119 57l127 -241h-76z" />
    <glyph glyph-name="wgrave" unicode="&#x1e81;" horiz-adv-x="1730" 
d="M303 -8l-100 1052h102l76 -909l559 914h80l72 -914l563 909h110l-665 -1052h-88l-72 895l-553 -895h-84zM971 1219l-162 211l127 61l106 -272h-71z" />
    <glyph glyph-name="Wacute" unicode="&#x1e82;" horiz-adv-x="2199" 
d="M440 -10l-133 1444h111l108 -1276l762 1280h82l78 -1280l793 1276h118l-907 -1444h-86l-86 1245l-754 -1245h-86zM1298 1567l254 241l123 -57l-268 -184h-109z" />
    <glyph glyph-name="wacute" unicode="&#x1e83;" horiz-adv-x="1730" 
d="M303 -8l-100 1052h102l76 -909l559 914h80l72 -914l563 909h110l-665 -1052h-88l-72 895l-553 -895h-84zM969 1219l254 272l127 -61l-277 -211h-104z" />
    <glyph glyph-name="Wdieresis" unicode="&#x1e84;" horiz-adv-x="2199" 
d="M440 -10l-133 1444h111l108 -1276l762 1280h82l78 -1280l793 1276h118l-907 -1444h-86l-86 1245l-754 -1245h-86zM1104 1567l43 155h151l-43 -155h-151zM1464 1567l43 155h150l-43 -155h-150z" />
    <glyph glyph-name="wdieresis" unicode="&#x1e85;" horiz-adv-x="1730" 
d="M303 -8l-100 1052h102l76 -909l559 914h80l72 -914l563 909h110l-665 -1052h-88l-72 895l-553 -895h-84zM791 1219l45 163h141l-45 -163h-141zM1124 1219l45 163h142l-45 -163h-142z" />
    <glyph glyph-name="Ygrave" unicode="&#x1ef2;" horiz-adv-x="1368" 
d="M479 0l156 582l-375 852h117l330 -770l745 770h143l-862 -879l-147 -555h-107zM864 1559l-170 184l119 57l127 -241h-76z" />
    <glyph glyph-name="ygrave" unicode="&#x1ef3;" horiz-adv-x="1163" 
d="M387 2l-213 1042h109l180 -933l627 933h122l-743 -1081q-114 -163 -212 -230t-216 -67q-117 0 -221 72l55 78q84 -60 178 -60q83 0 162 55.5t172 190.5zM653 1219l-161 211l126 61l107 -272h-72z" />
    <glyph glyph-name="enspace" unicode="&#x2002;" horiz-adv-x="1024" 
 />
    <glyph glyph-name="emspace" unicode="&#x2003;" horiz-adv-x="2048" 
 />
    <glyph glyph-name="threeperemspace" unicode="&#x2004;" horiz-adv-x="681" 
 />
    <glyph glyph-name="fourperemspace" unicode="&#x2005;" horiz-adv-x="512" 
 />
    <glyph glyph-name="figurespace" unicode="&#x2007;" 
 />
    <glyph glyph-name="thinspace" unicode="&#x2009;" horiz-adv-x="272" 
 />
    <glyph glyph-name="hairspace" unicode="&#x200a;" horiz-adv-x="153" 
 />
    <glyph glyph-name="endash" unicode="&#x2013;" horiz-adv-x="1081" 
d="M152 555l28 107h795l-29 -107h-794z" />
    <glyph glyph-name="emdash" unicode="&#x2014;" horiz-adv-x="1839" 
d="M152 555l28 107h1553l-29 -107h-1552z" />
    <glyph glyph-name="quoteleft" unicode="&#x2018;" horiz-adv-x="473" 
d="M301 1051l41 151q29 105 81 158t155 82l14 -49q-75 -26 -114 -67t-50 -101h55l-47 -174h-135z" />
    <glyph glyph-name="quoteright" unicode="&#x2019;" horiz-adv-x="473" 
d="M283 1042l-15 50q75 26 114 67t50 101h-55l47 174h135l-41 -152q-33 -107 -83 -159t-152 -81z" />
    <glyph glyph-name="quotesinglbase" unicode="&#x201a;" horiz-adv-x="473" 
d="M-66 -217l-14 49q75 26 114 67t50 101h-55l47 174h135l-41 -151q-33 -107 -83.5 -159t-152.5 -81z" />
    <glyph glyph-name="quotedblleft" unicode="&#x201c;" horiz-adv-x="841" 
d="M301 1051l41 151q29 105 81 158t155 82l14 -49q-75 -26 -114 -67t-50 -101h55l-47 -174h-135zM670 1051l41 151q29 106 80.5 158.5t154.5 81.5l15 -49q-75 -26 -114 -67t-50 -101h55l-47 -174h-135z" />
    <glyph glyph-name="quotedblright" unicode="&#x201d;" horiz-adv-x="841" 
d="M283 1042l-15 50q75 26 114 67t50 101h-55l47 174h135l-41 -152q-33 -107 -83 -159t-152 -81zM651 1042l-14 50q75 26 114 67t50 101h-56l48 174h135l-41 -152q-33 -107 -83.5 -159t-152.5 -81z" />
    <glyph glyph-name="quotedblbase" unicode="&#x201e;" horiz-adv-x="843" 
d="M-66 -217l-14 49q75 26 114 67t50 101h-55l47 174h135l-41 -151q-33 -107 -83.5 -159t-152.5 -81zM305 -217l-14 49q75 26 114 67t50 101h-56l47 174h136l-41 -151q-33 -107 -83.5 -159t-152.5 -81z" />
    <glyph glyph-name="dagger" unicode="&#x2020;" horiz-adv-x="839" 
d="M328 487l166 586l-258 -14l24 92l250 -14l65 297h103l-94 -297l258 14l-25 -92l-254 14l-145 -586h-90z" />
    <glyph glyph-name="daggerdbl" unicode="&#x2021;" horiz-adv-x="880" 
d="M211 0l94 297l-258 -14l25 92l252 -15l86 357l104 356l-258 -14l25 92l249 -14l66 297h102l-94 -297l258 14l-24 -92l-254 14l-84 -356l-107 -357l260 15l-24 -92l-250 14l-66 -297h-102z" />
    <glyph glyph-name="bullet" unicode="&#x2022;" horiz-adv-x="962" 
d="M553 987q95 0 155 -60t60 -163q0 -129 -92 -221q-88 -88 -201 -88q-95 0 -155 60t-60 163q0 129 92 221q88 88 201 88z" />
    <glyph glyph-name="ellipsis" unicode="&#x2026;" horiz-adv-x="1398" 
d="M29 0l47 174h135l-47 -174h-135zM492 0l47 174h135l-47 -174h-135zM954 0l47 174h136l-47 -174h-136z" />
    <glyph glyph-name="perthousand" unicode="&#x2030;" horiz-adv-x="2463" 
d="M471 709q-123 0 -202 83.5t-79 208.5q0 198 140 338q111 111 252 111q123 0 201.5 -84t78.5 -209q0 -199 -139 -338q-110 -110 -252 -110zM1204 -16q-123 0 -201.5 83.5t-78.5 208.5q0 199 139 338q111 111 252 111q123 0 201.5 -84t78.5 -209q0 -199 -139 -338
q-110 -110 -252 -110zM1987 -16q-123 0 -202 83.5t-79 208.5q0 199 139 338q111 111 252 111q123 0 202 -84t79 -209q0 -198 -140 -338q-110 -110 -251 -110zM1212 72q92 0 170 78q54 54 83.5 125.5t29.5 146.5q0 100 -48.5 157.5t-139.5 57.5q-92 0 -170 -78
q-54 -54 -83.5 -125.5t-29.5 -146.5q0 -100 48.5 -157.5t139.5 -57.5zM1995 72q92 0 170 78q54 54 83 125t29 147q0 100 -48.5 157.5t-139.5 57.5q-92 0 -170 -78q-54 -54 -83.5 -125.5t-29.5 -146.5q0 -100 49 -157.5t140 -57.5zM479 797q93 0 170 77q54 54 83.5 126
t29.5 147q0 100 -49 157.5t-140 57.5q-92 0 -170 -78q-54 -54 -83 -125t-29 -147q0 -100 48.5 -157.5t139.5 -57.5zM133 0l1397 1434h123l-1397 -1434h-123z" />
    <glyph glyph-name="guilsinglleft" unicode="&#x2039;" horiz-adv-x="636" 
d="M305 86l-213 428l4 16l443 428l73 -57l-393 -393l170 -377z" />
    <glyph glyph-name="guilsinglright" unicode="&#x203a;" horiz-adv-x="636" 
d="M334 958l213 -428l-4 -16l-443 -428l-73 57l393 394l-170 376z" />
    <glyph glyph-name="fraction" unicode="&#x2044;" horiz-adv-x="204" 
d="M-625 0l697 729l661 705h98l-698 -729l-659 -705h-99z" />
    <glyph glyph-name="zero.sup" unicode="&#x2070;" horiz-adv-x="819" 
d="M922 1430q0 -121 -51.5 -255.5t-139.5 -222.5q-100 -100 -217 -100q-102 0 -159.5 68.5t-57.5 185.5q0 121 51.5 255.5t138.5 221.5q100 100 218 100q102 0 159.5 -68t57.5 -185zM379 1112q0 -89 35.5 -138.5t107.5 -49.5q81 0 150 69q74 74 121 201t47 229q0 89 -36 139
t-108 50q-79 0 -149 -70q-74 -74 -121 -201t-47 -229z" />
    <glyph glyph-name="four.sup" unicode="&#x2074;" horiz-adv-x="819" 
d="M623 868l49 187h-389l-7 71l537 549h100l-147 -551h113l-19 -69h-112l-50 -187h-75zM371 1124h319l119 445z" />
    <glyph glyph-name="five.sup" unicode="&#x2075;" horiz-adv-x="819" 
d="M547 852q-190 0 -273 141l68 39q70 -110 209 -110q103 0 166 57.5t63 146.5q0 72 -49.5 111t-126.5 39q-91 0 -172 -47l-59 45l131 389h440l-22 -80h-373l-92 -270q27 14 71 24.5t80 10.5q117 0 184.5 -58.5t67.5 -161.5q0 -115 -86 -195.5t-227 -80.5z" />
    <glyph glyph-name="six.sup" unicode="&#x2076;" horiz-adv-x="819" 
d="M526 854q-112 0 -182 70.5t-70 210.5q0 124 47.5 242t127.5 198q108 108 243 108q146 0 234 -110l-56 -51q-75 90 -180 90q-104 0 -186 -82q-97 -97 -142 -268q27 42 86 78t134 36q98 0 163.5 -60t65.5 -165q0 -117 -84.5 -207t-200.5 -90zM528 922q85 0 144 66.5
t59 154.5q0 74 -43 119t-117 45q-87 0 -151 -64v-2q-29 -25 -45.5 -64.5t-16.5 -82.5q0 -76 46 -124t124 -48z" />
    <glyph glyph-name="seven.sup" unicode="&#x2077;" horiz-adv-x="819" 
d="M322 868l532 715h-448l20 80h543l-15 -59l-536 -736h-96z" />
    <glyph glyph-name="eight.sup" unicode="&#x2078;" horiz-adv-x="819" 
d="M555 852q-129 0 -210 61t-81 150q0 94 64.5 152.5t169.5 76.5q-48 22 -79.5 65.5t-31.5 102.5q0 97 82.5 160t202.5 63q116 0 189 -57t73 -149q0 -82 -56 -137.5t-141 -73.5q55 -20 92 -68.5t37 -114.5q0 -101 -89 -166t-222 -65zM557 922q101 0 163 47.5t62 120.5
q0 68 -56 111.5t-151 43.5q-103 0 -167 -48.5t-64 -121.5q0 -66 60 -109.5t153 -43.5zM647 1311q98 0 152.5 45t54.5 112q0 65 -51.5 106.5t-130.5 41.5q-90 0 -146.5 -45t-56.5 -115q0 -65 49.5 -105t128.5 -40z" />
    <glyph glyph-name="nine.sup" unicode="&#x2079;" horiz-adv-x="819" 
d="M528 852q-150 0 -245 123l55 51q49 -57 94 -79.5t98 -22.5q105 0 191 86q93 93 137 260q-25 -43 -85 -81t-134 -38q-98 0 -163.5 61.5t-65.5 167.5q0 116 81.5 208.5t196.5 92.5q113 0 185.5 -70.5t72.5 -209.5q0 -128 -45.5 -243.5t-124.5 -194.5q-111 -111 -248 -111z
M649 1221q89 0 150 61v2q29 26 46 68.5t17 85.5q0 79 -46.5 127.5t-125.5 48.5q-87 0 -144 -68.5t-57 -156.5q0 -76 43 -122t117 -46z" />
    <glyph glyph-name="zero.inf" unicode="&#x2080;" horiz-adv-x="819" 
d="M616 289q0 -121 -51.5 -255.5t-138.5 -221.5q-101 -101 -217 -101q-102 0 -159.5 68.5t-57.5 185.5q0 121 51.5 255.5t138.5 221.5q101 101 217 101q102 0 159.5 -68.5t57.5 -185.5zM74 -29q0 -89 35.5 -138.5t107.5 -49.5q80 0 150 70q74 74 121 201t47 229
q0 89 -36 138.5t-108 49.5q-79 0 -149 -70q-74 -74 -121 -201t-47 -229z" />
    <glyph glyph-name="one.inf" unicode="&#x2081;" horiz-adv-x="665" 
d="M127 -268l190 717l-200 -70v76l237 82h68l-215 -805h-80z" />
    <glyph glyph-name="two.inf" unicode="&#x2082;" horiz-adv-x="819" 
d="M-78 -268l17 67l444 338q71 54 107 100t36 103q0 61 -43 96t-116 35q-116 0 -222 -113l-51 45q126 140 281 140q104 0 167.5 -54.5t63.5 -142.5q0 -69 -41.5 -126.5t-132.5 -127.5l-375 -285h443l-21 -75h-557z" />
    <glyph glyph-name="three.inf" unicode="&#x2083;" horiz-adv-x="819" 
d="M229 -289q-99 0 -168 40.5t-106 111.5l63 37q33 -55 87 -86t120 -31q100 0 163 48.5t63 129.5q0 73 -52 109t-147 36h-35l-24 48l344 292h-408l23 76h512l-19 -65l-342 -289q97 -5 163 -55.5t66 -143.5q0 -110 -90 -184t-213 -74z" />
    <glyph glyph-name="four.inf" unicode="&#x2084;" horiz-adv-x="819" 
d="M317 -272l50 186h-390l-6 72l537 549h100l-147 -551h112l-18 -70h-113l-49 -186h-76zM66 -16h319l119 444z" />
    <glyph glyph-name="five.inf" unicode="&#x2085;" horiz-adv-x="819" 
d="M240 -289q-190 0 -273 142l68 38q70 -110 209 -110q103 0 166 58t63 147q0 72 -49.5 110.5t-126.5 38.5q-91 0 -172 -47l-59 45l131 389h440l-23 -80h-372l-92 -270q27 14 71 24.5t80 10.5q117 0 184.5 -58.5t67.5 -160.5q0 -115 -86 -196t-227 -81z" />
    <glyph glyph-name="six.inf" unicode="&#x2086;" horiz-adv-x="819" 
d="M221 -287q-112 0 -182 70.5t-70 210.5q0 124 47 242t127 198q109 109 244 109q145 0 234 -111l-56 -51q-75 90 -180 90q-104 0 -186 -82q-97 -97 -142 -268q27 42 85.5 78.5t133.5 36.5q98 0 164 -60.5t66 -165.5q0 -117 -84.5 -207t-200.5 -90zM223 -219q85 0 144 66.5
t59 154.5q0 74 -43 119t-117 45q-87 0 -151 -64v-2q-29 -25 -45.5 -64.5t-16.5 -82.5q0 -76 46 -124t124 -48z" />
    <glyph glyph-name="seven.inf" unicode="&#x2087;" horiz-adv-x="819" 
d="M39 -272l532 714h-448l20 80h543l-14 -59l-537 -735h-96z" />
    <glyph glyph-name="eight.inf" unicode="&#x2088;" horiz-adv-x="819" 
d="M250 -289q-129 0 -210 61t-81 150q0 94 64.5 153t169.5 77q-48 22 -79.5 65t-31.5 102q0 97 82.5 160.5t202.5 63.5q116 0 189 -57.5t73 -149.5q0 -82 -56 -137.5t-141 -73.5q55 -20 92 -68.5t37 -113.5q0 -101 -89 -166.5t-222 -65.5zM252 -219q101 0 163 47.5t62 120.5
q0 68 -56 111.5t-151 43.5q-103 0 -167 -48.5t-64 -121.5q0 -66 60 -109.5t153 -43.5zM342 170q98 0 152.5 45.5t54.5 112.5q0 65 -51.5 106t-130.5 41q-90 0 -146.5 -45t-56.5 -115q0 -65 49.5 -105t128.5 -40z" />
    <glyph glyph-name="nine.inf" unicode="&#x2089;" horiz-adv-x="819" 
d="M223 -289q-151 0 -246 123l56 51q49 -57 94 -79.5t98 -22.5q105 0 191 86q93 93 137 260q-25 -43 -85 -81t-134 -38q-98 0 -164 62t-66 168q0 116 82 208.5t197 92.5q113 0 185.5 -71t72.5 -210q0 -128 -45.5 -243.5t-124.5 -194.5q-111 -111 -248 -111zM344 80
q89 0 150 61v2q29 26 46 68.5t17 85.5q0 79 -46.5 127.5t-125.5 48.5q-87 0 -144 -68.5t-57 -156.5q0 -76 43 -122t117 -46z" />
    <glyph glyph-name="colonmonetary" unicode="&#x20a1;" 
d="M1239 1595h96l-121 -280q44 -37 86 -94l-69 -60q-18 26 -60 68l-493 -1147q73 3 139.5 25.5t102 44.5t90.5 61l49 -72q-193 -147 -414 -147h-2l-100 -236h-97l105 244q-100 15 -184 68l-136 -312h-96l156 369q-162 152 -162 420q0 204 71.5 383.5t198.5 306.5
q194 194 459 203l70 155h96l-70 -161q101 -14 187 -66zM233 545q3 -204 105 -324l487 1131q-194 -12 -350 -168q-115 -115 -180.5 -283t-61.5 -356zM911 1348l-510 -1188q83 -62 193 -74l512 1194q-89 57 -195 68z" />
    <glyph glyph-name="naira" unicode="&#x20a6;" horiz-adv-x="1679" 
d="M1565 487h-201l-129 -487h-133l-176 487h-533l-129 -487h-98l129 487h-201l25 86h198l80 295h-200l24 86h199l129 480h145l170 -480h527l129 480h98l-129 -480h203l-25 -86h-201l-80 -295h203zM496 868l-80 -295h485l-104 295h-301zM889 868l106 -295h293l80 295h-479z
M625 1343l-107 -393h248l-141 396v-3zM1163 106v3l103 383h-242z" />
    <glyph glyph-name="rupee" unicode="&#x20a8;" horiz-adv-x="2191" 
d="M1921 276q0 64 -46.5 112t-170.5 95q-149 56 -215 119t-66 162q0 128 104.5 216.5t270.5 88.5q99 0 196.5 -39.5t168.5 -99.5l-66 -74q-65 54 -146.5 88.5t-162.5 34.5q-119 0 -189.5 -60t-70.5 -139q0 -63 46 -108.5t179 -96.5q152 -61 212 -123.5t60 -158.5
q0 -89 -51.5 -162t-137.5 -113.5t-187 -40.5q-249 0 -430 181l69 71q164 -161 373 -161q98 0 179 60t81 148zM928 0l-246 582h-393l-156 -582h-100l385 1434h401q198 0 322.5 -94.5t124.5 -276.5q0 -97 -39.5 -180.5t-107 -141.5t-152 -96t-179.5 -53l254 -592h-114z
M313 672h330q84 0 159 14t141.5 44.5t115 76t76.5 112t28 148.5q0 133 -89 202.5t-251 69.5h-331z" />
    <glyph glyph-name="won" unicode="&#x20a9;" horiz-adv-x="2252" 
d="M2157 487h-373l-275 -493h-123l-18 493h-504l-280 -493h-123l-12 493h-369l22 84h344l-6 299h-258l23 84h233l-10 480h107l6 -480h487l272 484h136l8 -484h491l263 480h114l-268 -480h237l-22 -84h-262l-166 -299h348zM1081 870l-168 -299h451l-8 299h-275zM539 870
l2 -299h274l164 299h-440zM1448 870l6 -299h275l157 299h-438zM543 90h8l217 397h-227zM1464 90h9l210 397h-227zM1337 1327l-209 -373h226l-8 373h-9z" />
    <glyph glyph-name="sheqel" unicode="&#x20aa;" horiz-adv-x="1269" 
d="M18 0l281 1044h287q297 0 297 -219q0 -53 -19 -127l-92 -348h-96l92 346q16 62 16 105q0 82 -50.5 116.5t-149.5 34.5h-213l-256 -952h-97zM969 0h-250q-319 0 -287 332l37 383h90l-33 -361q-12 -139 34.5 -200.5t156.5 -61.5h180l256 952h96z" />
    <glyph glyph-name="Euro" unicode="&#x20ac;" horiz-adv-x="1400" 
d="M168 852l27 98h147q82 196 201 307q201 201 467 201q171 0 286 -90.5t162 -234.5l-92 -37q-52 130 -141.5 198t-233.5 68q-202 0 -368 -166q-104 -104 -166 -246h616l-26 -98h-627q-37 -111 -47 -252h608l-27 -98h-581q12 -195 113.5 -312.5t277.5 -117.5q127 0 223.5 50
t188.5 150l71 -61q-105 -114 -218.5 -175t-266.5 -61q-212 0 -349 142t-149 385h-188l26 98h162q10 136 43 252h-139z" />
    <glyph glyph-name="peso" unicode="&#x20b1;" horiz-adv-x="1454" 
d="M1505 936h-180q-26 -134 -121 -229q-93 -93 -241.5 -142t-339.5 -49h-240l-137 -516h-107l250 936h-199l25 88h197l110 410h322q266 0 395 -129q98 -98 98 -256v-25h193zM408 610h219q341 0 497 156q74 74 97 172h-725zM602 1337l-84 -315h715v22q0 117 -74 191
q-102 102 -317 102h-240z" />
    <glyph glyph-name="hryvnia" unicode="&#x20b4;" horiz-adv-x="1292" 
d="M1151 457l-647 102q-131 -79 -180.5 -146.5t-49.5 -146.5q0 -90 74 -142t211 -52q201 0 436 129l45 -90q-252 -136 -483 -136q-197 0 -296 81.5t-99 205.5q0 89 47.5 165.5t155.5 154.5l-242 39l31 84l323 -54l12 8h3l284 158l-547 88l31 84l641 -102q124 72 176.5 139.5
t50.5 144.5q0 91 -73 141t-209 50q-187 0 -387 -117l-45 90q224 123 440 123q193 0 290 -79.5t97 -204.5q0 -170 -199 -310l248 -39l-30 -84l-332 52h-2h-2l-295 -164l553 -88z" />
    <glyph glyph-name="numero" unicode="&#x2116;" horiz-adv-x="2293" 
d="M55 0l381 1434h96l490 -1248l332 1248h98l-381 -1434h-78l-499 1276l-340 -1276h-99zM1874 582q-144 0 -224.5 93.5t-80.5 248.5q0 108 42 213t109 172q131 131 295 131q144 0 224.5 -93.5t80.5 -248.5q0 -108 -42 -213t-109 -172q-131 -131 -295 -131zM1880 664
q119 0 215 96q61 61 96 150t35 186q0 119 -57 190.5t-160 71.5q-119 0 -215 -96q-61 -61 -96 -150t-35 -186q0 -119 57 -190.5t160 -71.5zM1421 307l23 82h674l-23 -82h-674z" />
    <glyph glyph-name="published" unicode="&#x2117;" horiz-adv-x="1699" 
d="M764 1108h246q122 0 195 -54.5t73 -160.5q0 -128 -101.5 -200t-271.5 -72h-182l-70 -263h-90zM1186 891q0 133 -176 133h-179l-86 -319h168q273 0 273 186zM981 1458q196 0 347 -86.5t230.5 -234.5t79.5 -332q0 -165 -63.5 -320.5t-179.5 -271.5q-238 -238 -572 -238
q-147 0 -271 50.5t-208 138t-131 207.5t-47 258q0 165 63.5 320t180.5 272q237 237 571 237zM829 33q299 0 514 215q230 230 230 559q0 122 -40.5 229.5t-115 189t-189 128.5t-253.5 47q-299 0 -514 -215q-230 -230 -230 -559q0 -122 40.5 -229.5t115 -189t189 -128.5
t253.5 -47z" />
    <glyph glyph-name="servicemark" unicode="&#x2120;" horiz-adv-x="1449" 
d="M420 793q-79 0 -147.5 33t-110.5 89l53 43q85 -102 211 -102q70 0 115 33.5t45 87.5q0 36 -27.5 61t-101.5 54q-96 37 -136 73.5t-40 96.5q0 65 49 114q68 68 188 68q67 0 124.5 -27t94.5 -71l-51 -48q-76 82 -178 82q-69 0 -111.5 -33t-42.5 -77q0 -39 31.5 -63.5
t114.5 -55.5q81 -30 120 -69t39 -97q0 -72 -53 -125q-67 -67 -186 -67zM774 803l180 631h66l147 -375l344 375h84l-180 -631h-72l146 504l-342 -365h-10l-146 365l-145 -504h-72z" />
    <glyph glyph-name="trademark" unicode="&#x2122;" horiz-adv-x="1413" 
d="M315 803l160 561h-207l21 70h485l-20 -70h-207l-160 -561h-72zM737 803l181 631h65l147 -375l345 375h84l-181 -631h-71l145 504l-342 -365h-10l-146 365l-145 -504h-72z" />
    <glyph glyph-name="Omega" unicode="&#x2126;" horiz-adv-x="1767" 
d="M1032 1362q-145 0 -270.5 -51t-218.5 -144q-193 -193 -193 -481q0 -169 70.5 -310.5t228.5 -287.5l-24 -88h-596l26 98l465 -4q-146 139 -213 283.5t-67 308.5q0 159 56.5 297t162.5 244q231 231 583 231q288 0 461.5 -160.5t173.5 -425.5q0 -233 -140.5 -424
t-418.5 -354l451 4l-27 -98h-618l24 88q150 85 259.5 167.5t191.5 177t124 201.5t44 228q3 144 -58 256.5t-184.5 178t-292.5 65.5z" />
    <glyph glyph-name="onethird" unicode="&#x2153;" horiz-adv-x="1689" 
d="M1139 -20q-196 0 -275 151l64 37q33 -55 87 -86t120 -31q99 0 162 48.5t63 129.5q0 73 -52 109.5t-147 36.5h-35l-24 47l344 293h-408l23 76h512l-19 -66l-342 -289q97 -5 163.5 -55t66.5 -143q0 -110 -90 -184t-213 -74zM45 0l696 729l662 705h98l-698 -729l-660 -705
h-98zM311 643l191 717l-201 -70v76l238 82h67l-215 -805h-80z" />
    <glyph glyph-name="twothirds" unicode="&#x2154;" horiz-adv-x="1843" 
d="M1292 -20q-195 0 -274 151l63 37q33 -55 87 -86t120 -31q99 0 162 48.5t63 129.5q0 73 -51.5 109.5t-146.5 36.5h-35l-25 47l344 293h-407l22 76h512l-18 -66l-342 -289q97 -5 163 -55t66 -143q0 -110 -90 -184t-213 -74zM195 0l696 729l661 705h99l-699 -729l-659 -705
h-98zM96 643l17 68l444 338q72 54 107.5 99.5t35.5 102.5q0 61 -43 96t-116 35q-117 0 -222 -112l-51 45q125 139 281 139q104 0 167.5 -54.5t63.5 -142.5q0 -69 -41.5 -126t-132.5 -127l-375 -285h443l-21 -76h-557z" />
    <glyph glyph-name="onefifth" unicode="&#x2155;" horiz-adv-x="1689" 
d="M1149 -20q-189 0 -272 141l67 39q70 -111 209 -111q103 0 166 58t63 147q0 72 -49.5 110.5t-126.5 38.5q-91 0 -172 -47l-59 45l131 390h440l-22 -80h-373l-92 -271q27 14 71 24.5t80 10.5q117 0 184.5 -58.5t67.5 -160.5q0 -115 -86 -195.5t-227 -80.5zM55 0l697 729
l661 705h98l-698 -729l-659 -705h-99zM311 643l191 717l-201 -70v76l238 82h67l-215 -805h-80z" />
    <glyph glyph-name="twofifths" unicode="&#x2156;" horiz-adv-x="1843" 
d="M1303 -20q-190 0 -273 141l68 39q70 -111 209 -111q103 0 166 58t63 147q0 72 -49.5 110.5t-126.5 38.5q-91 0 -172 -47l-60 45l132 390h440l-23 -80h-372l-93 -271q27 14 71.5 24.5t80.5 10.5q117 0 184.5 -58.5t67.5 -160.5q0 -115 -86 -195.5t-227 -80.5zM215 0
l696 729l662 705h98l-698 -729l-660 -705h-98zM96 643l17 68l444 338q72 54 107.5 99.5t35.5 102.5q0 61 -43 96t-116 35q-117 0 -222 -112l-51 45q125 139 281 139q104 0 167.5 -54.5t63.5 -142.5q0 -69 -41.5 -126t-132.5 -127l-375 -285h443l-21 -76h-557z" />
    <glyph glyph-name="threefifths" unicode="&#x2157;" horiz-adv-x="1843" 
d="M1303 -20q-190 0 -273 141l68 39q70 -111 209 -111q103 0 166 58t63 147q0 72 -49.5 110.5t-126.5 38.5q-91 0 -172 -47l-60 45l132 390h440l-23 -80h-372l-93 -271q27 14 71.5 24.5t80.5 10.5q117 0 184.5 -58.5t67.5 -160.5q0 -115 -86 -195.5t-227 -80.5zM184 0
l697 729l661 705h98l-698 -729l-659 -705h-99zM401 623q-195 0 -274 151l63 37q33 -55 87 -86t120 -31q100 0 163 48.5t63 129.5q0 73 -52 109.5t-147 36.5h-35l-24 47l344 293h-408l23 76h512l-19 -66l-342 -289q97 -5 163.5 -55t66.5 -143q0 -110 -90.5 -184t-213.5 -74z
" />
    <glyph glyph-name="fourfifths" unicode="&#x2158;" horiz-adv-x="1843" 
d="M1303 -20q-190 0 -273 141l68 39q70 -111 209 -111q103 0 166 58t63 147q0 72 -49.5 110.5t-126.5 38.5q-91 0 -172 -47l-60 45l132 390h440l-23 -80h-372l-93 -271q27 14 71.5 24.5t80.5 10.5q117 0 184.5 -58.5t67.5 -160.5q0 -115 -86 -195.5t-227 -80.5zM215 0
l696 729l662 705h98l-698 -729l-660 -705h-98zM492 639l49 186h-389l-7 72l537 549h100l-147 -551h113l-19 -70h-113l-49 -186h-75zM240 895h319l119 444z" />
    <glyph glyph-name="onesixth" unicode="&#x2159;" horiz-adv-x="1689" 
d="M1130 -18q-112 0 -181.5 70t-69.5 210q0 124 47 242t127 198q109 109 243 109q146 0 234 -111l-55 -51q-75 90 -181 90q-104 0 -186 -82q-96 -96 -141 -268q27 42 85.5 78.5t133.5 36.5q98 0 163.5 -60t65.5 -165q0 -117 -84.5 -207t-200.5 -90zM1133 49q85 0 143.5 66.5
t58.5 154.5q0 74 -42.5 119t-116.5 45q-89 0 -152 -63v-2q-61 -52 -61 -148q0 -76 46 -124t124 -48zM72 0l696 729l662 705h98l-699 -729l-659 -705h-98zM311 643l191 717l-201 -70v76l238 82h67l-215 -805h-80z" />
    <glyph glyph-name="fivesixths" unicode="&#x215a;" horiz-adv-x="1843" 
d="M1284 -18q-112 0 -182 70t-70 210q0 124 47 242t127 198q109 109 244 109q144 0 233 -111l-55 -51q-75 90 -180 90q-104 0 -186 -82q-97 -97 -142 -268q27 42 85.5 78.5t133.5 36.5q98 0 164 -60t66 -165q0 -117 -84.5 -207t-200.5 -90zM1286 49q85 0 144 66.5t59 154.5
q0 74 -43 119t-117 45q-88 0 -151 -63v-2q-29 -24 -45.5 -64.5t-16.5 -83.5q0 -76 46 -124t124 -48zM195 0l696 729l661 705h99l-699 -729l-659 -705h-98zM414 623q-190 0 -273 141l68 39q70 -111 209 -111q103 0 166 58t63 147q0 72 -49.5 111t-126.5 39q-89 0 -172 -48
l-59 45l131 390h440l-23 -80h-372l-92 -271q27 14 71 24.5t80 10.5q117 0 184.5 -58.5t67.5 -160.5q0 -115 -86 -195.5t-227 -80.5z" />
    <glyph glyph-name="oneeighth" unicode="&#x215b;" horiz-adv-x="1689" 
d="M1161 -20q-129 0 -210 61t-81 149q0 94 64.5 153t169.5 77q-48 22 -79.5 65.5t-31.5 102.5q0 97 82.5 160t202.5 63q116 0 189 -57.5t73 -149.5q0 -82 -56 -137.5t-141 -73.5q55 -20 92.5 -68.5t37.5 -113.5q0 -100 -89.5 -165.5t-222.5 -65.5zM1163 49q101 0 163.5 47.5
t62.5 120.5q0 68 -56 112t-151 44q-103 0 -167.5 -48.5t-64.5 -121.5q0 -66 60 -110t153 -44zM1253 438q98 0 152.5 45.5t54.5 112.5q0 65 -51.5 106t-130.5 41q-90 0 -146.5 -45t-56.5 -114q0 -66 49.5 -106t128.5 -40zM72 0l696 729l662 705h98l-699 -729l-659 -705h-98z
M311 643l191 717l-201 -70v76l238 82h67l-215 -805h-80z" />
    <glyph glyph-name="threeeighths" unicode="&#x215c;" horiz-adv-x="1843" 
d="M1315 -20q-129 0 -210 61t-81 149q0 94 64 153t169 77q-48 22 -79 65.5t-31 102.5q0 97 82.5 160t202.5 63q116 0 189 -57.5t73 -149.5q0 -82 -56 -137.5t-141 -73.5q55 -20 92 -68.5t37 -113.5q0 -101 -89 -166t-222 -65zM1317 49q101 0 163 47.5t62 120.5q0 68 -56 112
t-151 44q-103 0 -167 -48.5t-64 -121.5q0 -66 60 -110t153 -44zM1407 438q98 0 152.5 45.5t54.5 112.5q0 65 -51.5 106t-130.5 41q-90 0 -146.5 -45t-56.5 -114q0 -66 49.5 -106t128.5 -40zM195 0l696 729l661 705h99l-699 -729l-659 -705h-98zM401 623q-195 0 -274 151
l63 37q33 -55 87 -86t120 -31q100 0 163 48.5t63 129.5q0 73 -52 109.5t-147 36.5h-35l-24 47l344 293h-408l23 76h512l-19 -66l-342 -289q97 -5 163.5 -55t66.5 -143q0 -110 -90.5 -184t-213.5 -74z" />
    <glyph glyph-name="fiveeighths" unicode="&#x215d;" horiz-adv-x="1843" 
d="M1315 -20q-129 0 -210 61t-81 149q0 94 64 153t169 77q-48 22 -79 65.5t-31 102.5q0 97 82.5 160t202.5 63q116 0 189 -57.5t73 -149.5q0 -82 -56 -137.5t-141 -73.5q55 -20 92 -68.5t37 -113.5q0 -101 -89 -166t-222 -65zM1317 49q101 0 163 47.5t62 120.5q0 68 -56 112
t-151 44q-103 0 -167 -48.5t-64 -121.5q0 -66 60 -110t153 -44zM1407 438q98 0 152.5 45.5t54.5 112.5q0 65 -51.5 106t-130.5 41q-90 0 -146.5 -45t-56.5 -114q0 -66 49.5 -106t128.5 -40zM195 0l696 729l661 705h99l-699 -729l-659 -705h-98zM414 623q-190 0 -273 141
l68 39q70 -111 209 -111q103 0 166 58t63 147q0 72 -49.5 111t-126.5 39q-89 0 -172 -48l-59 45l131 390h440l-23 -80h-372l-92 -271q27 14 71 24.5t80 10.5q117 0 184.5 -58.5t67.5 -160.5q0 -115 -86 -195.5t-227 -80.5z" />
    <glyph glyph-name="seveneighths" unicode="&#x215e;" horiz-adv-x="1843" 
d="M1315 -20q-129 0 -210 61t-81 149q0 94 64 153t169 77q-48 22 -79 65.5t-31 102.5q0 97 82.5 160t202.5 63q116 0 189 -57.5t73 -149.5q0 -82 -56 -137.5t-141 -73.5q55 -20 92 -68.5t37 -113.5q0 -101 -89 -166t-222 -65zM1317 49q101 0 163 47.5t62 120.5q0 68 -56 112
t-151 44q-103 0 -167 -48.5t-64 -121.5q0 -66 60 -110t153 -44zM1407 438q98 0 152.5 45.5t54.5 112.5q0 65 -51.5 106t-130.5 41q-90 0 -146.5 -45t-56.5 -114q0 -66 49.5 -106t128.5 -40zM133 0l696 729l662 705h98l-698 -729l-660 -705h-98zM231 639l533 715h-449l21 80
h543l-15 -60l-536 -735h-97z" />
    <glyph glyph-name="Delta" unicode="&#x2206;" horiz-adv-x="1546" 
d="M1083 1444l287 -1364l-31 -80h-1386l10 80l1018 1364h102zM1008 1317l-906 -1219h1153z" />
    <glyph glyph-name="minus" unicode="&#x2212;" horiz-adv-x="1269" 
d="M180 670l27 102h991l-27 -102h-991z" />
    <glyph glyph-name="NUL" horiz-adv-x="0" 
 />
    <glyph glyph-name="CR" horiz-adv-x="614" 
 />
    <glyph glyph-name="Q.alt" horiz-adv-x="1732" 
d="M1022 1458q176 0 318.5 -82t221 -222.5t78.5 -311.5q0 -176 -70.5 -339t-195.5 -288l-33 -33l154 -166l-78 -65l-147 174q-207 -152 -455 -152q-132 0 -248 48.5t-196.5 131t-127 196t-46.5 241.5q0 176 69.5 339t194.5 288q113 113 258 177t303 64zM815 70
q207 0 389 129l-239 266l77 67l234 -274l18 18q111 111 173.5 259.5t62.5 306.5q0 223 -142 371.5t-366 148.5q-137 0 -259.5 -55t-219.5 -152q-111 -111 -173.5 -259t-62.5 -306q0 -223 142 -371.5t366 -148.5z" />
    <glyph glyph-name="a.alt" horiz-adv-x="1341" 
d="M530 -27q-181 0 -300 125t-119 316q0 289 196 485q81 81 182.5 125.5t210.5 44.5q85 0 156 -24t120.5 -66.5t83.5 -92.5t56 -110l72 268h100l-278 -1044h-101l56 203q-191 -230 -435 -230zM543 68q95 0 186 42t166 117q78 78 124 178t46 205q0 155 -100.5 260t-259.5 105
q-187 0 -322 -135q-78 -78 -121 -186.5t-43 -227.5q0 -160 90.5 -259t233.5 -99z" />
    <glyph glyph-name="uni039E.alt" horiz-adv-x="1447" 
d="M1352 772l-27 -98h-506l-153 -576h573l-27 -98h-1255l27 98h575l156 576h-510l26 98h510l150 563h-565l26 99h1235l-26 -99h-564l-151 -563h506z" />
    <glyph glyph-name="uni0424.bgr" horiz-adv-x="1859" 
d="M682 -205l55 209q-246 32 -393 198t-147 398q0 342 245 584q131 126 298.5 190t351.5 64h18h12l54 200h106l-53 -208q244 -36 391 -201t147 -395q0 -342 -245 -584q-131 -126 -298.5 -190t-351.5 -64h-18h-12l-54 -201h-106zM307 600q0 -199 123 -337t334 -165l334 1243
h-15q-340 0 -561 -221q-215 -215 -215 -520zM1657 834q0 197 -123 334.5t-334 166.5l-334 -1243h15q340 0 561 221q215 215 215 521z" />
    <glyph glyph-name="uni0432.bgr" horiz-adv-x="1288" 
d="M623 -25q-233 0 -359.5 111.5t-126.5 310.5q0 14 1 28.5t2 25.5t3.5 26.5t4 24t5.5 26t5.5 24t7 27t6.5 25.5l113 422q57 209 180 332q151 151 375 151q190 0 298.5 -100.5t108.5 -253.5q0 -162 -115.5 -275t-302.5 -143q136 -39 217.5 -126t81.5 -218q0 -178 -140 -298
t-365 -120zM625 70q180 0 287.5 92t107.5 227q0 138 -116 225.5t-335 87.5h-270l-31 -112q-30 -118 -30 -191q0 -152 99.5 -240.5t287.5 -88.5zM381 1008l-57 -215h282q304 0 443 139q90 90 90 219q0 120 -80.5 192t-218.5 72q-182 0 -303 -121q-107 -107 -156 -286z" />
    <glyph glyph-name="uni0433.bgr" horiz-adv-x="1034" 
d="M193 233q0 -159 233 -159q195 0 399 98l39 -88q-231 -104 -442 -104q-161 0 -248.5 65t-87.5 182q0 121 92 198.5t332 149.5q117 34 189.5 64.5t107.5 61t46 57t11 65.5q0 69 -55.5 108.5t-163.5 39.5q-85 0 -166.5 -23.5t-183.5 -70.5l-41 90q208 98 391 98
q161 0 244.5 -63.5t83.5 -178.5q0 -118 -94.5 -193t-346.5 -147q-89 -26 -152.5 -52.5t-99 -50t-56 -50.5t-26 -48.5t-5.5 -48.5z" />
    <glyph glyph-name="uni0434.bgr" horiz-adv-x="1339" 
d="M483 -332q-139 0 -269 52t-224 143l73 74q190 -175 424 -175q205 0 322 117q51 51 84 116t59 159l37 131q-194 -207 -430 -207q-84 0 -162 28t-139.5 78.5t-98 128.5t-36.5 170q0 238 170 408q86 86 195.5 132t226.5 46q287 0 407 -278l68 253h100l-243 -915
q-54 -201 -164 -311q-150 -150 -400 -150zM578 172q202 0 358 156q141 141 141 311q0 132 -101 233t-265 101q-94 0 -182 -37t-156 -105q-142 -142 -142 -342q0 -99 51 -173t128.5 -109t167.5 -35z" />
    </font>
</defs>
</svg>
