<svg xmlns="http://www.w3.org/2000/svg" viewBox="0 0 117.97 156.63"><defs><style>.cls-1{fill:#c49043;}</style></defs><g id="Camada_2" data-name="Camada 2"><g id="Camada_1-2" data-name="Camada 1"><path class="cls-1" d="M111.32,110.41h0l-5.22-6.26a37.85,37.85,0,1,0-6.67,5.47l5.29,6.34a46,46,0,1,1,6.42-70.21L118,38.94a55.6,55.6,0,0,0-15.85-11.15l2-4.95a4,4,0,0,0,2.13-1.12,4.07,4.07,0,1,0-6.23-.58l-2,4.93a55.16,55.16,0,0,0-15.62-3.36V14.33A7.59,7.59,0,0,0,86.48,7.6h0a7.42,7.42,0,0,0-.35-2.26A7.6,7.6,0,0,0,81.83.6a7.6,7.6,0,0,0-5.92,0A7.41,7.41,0,0,0,74,1.78,7.6,7.6,0,0,0,71.27,7.6,7.41,7.41,0,0,0,71.66,10a7.27,7.27,0,0,0,.59,1.34c.1.17.2.35.31.51a7.86,7.86,0,0,0,1.08,1.29l0,0a7.47,7.47,0,0,0,1.66,1.18v8.33a55.47,55.47,0,0,0-15.9,3.27l-2.19-5.28A4,4,0,0,0,58,18.34a4.07,4.07,0,1,0-4.82,4l2.2,5.29A55.76,55.76,0,0,0,42,36.25L36,30.18a7.61,7.61,0,1,0-5,5l6,6A55.61,55.61,0,0,0,28.18,54.6l-5.65-2.33a4.12,4.12,0,0,0-1.12-2.14,4.07,4.07,0,1,0-.58,6.23l5.62,2.33a55.31,55.31,0,0,0-3.36,15.53H14.33a7.6,7.6,0,1,0,0,7.08H23a55.59,55.59,0,0,0,3.11,15.48l-5.8,2.4a4,4,0,0,0-2.3-.72,4.08,4.08,0,1,0,4,4.82l5.75-2.38a55.78,55.78,0,0,0,8.62,13.55l-6.22,6.22a7.6,7.6,0,1,0,5,5l6.15-6.16a55.63,55.63,0,0,0,13,8.74L52,133.9a4.08,4.08,0,1,0,4.1,1.71l2.32-5.6a55,55,0,0,0,15.85,3.62v8.67A7.61,7.61,0,0,0,70.16,149h0a7.6,7.6,0,1,0,15-1.67,7.18,7.18,0,0,0-.35-1.14c0-.09-.06-.18-.1-.27a7.6,7.6,0,0,0-3.41-3.65v-8.56a55.41,55.41,0,0,0,15.36-3l2.21,5.32a4.07,4.07,0,1,0,4.1-1.69l-2.17-5.24a55.5,55.5,0,0,0,10.12-5.77v0l.3-.24a56.32,56.32,0,0,0,4.87-4,10.32,10.32,0,0,0,1.43-1.33h0v0Zm-35-3.48A29.09,29.09,0,1,1,108,80.58,29.1,29.1,0,0,1,76.36,106.93Z"/></g></g></svg>