<svg xmlns="http://www.w3.org/2000/svg" viewBox="0 0 782.31 295.25"><defs><style>.cls-1{fill:#c49043;}.cls-2{font-size:104.98px;fill:#fff;font-family:Gotham-Bold, Gotham;font-weight:700;}</style></defs><g id="Camada_2" data-name="Camada 2"><g id="Camada_1-2" data-name="Camada 1"><path class="cls-1" d="M225.41,221.8h0l-31.77-33.38a58.57,58.57,0,1,0-17.16,12.94l20.3,21.32A87.79,87.79,0,1,1,213.31,85.55L226.85,72a106.54,106.54,0,0,0-35.6-23.57l3.72-9a7,7,0,1,0-7.29-3l-3.86,9.32a107.33,107.33,0,0,0-29.71-5V26.86a14.21,14.21,0,1,0-13.05,0V41.17a106.77,106.77,0,0,0-32.84,8.53l-2.45-5.92-1.12-2.71c0-.07.06-.13.1-.2a7,7,0,0,0,.42-.76c.06-.14.1-.27.15-.4s.16-.44.22-.66.07-.28.1-.43.08-.44.1-.67,0-.3,0-.45,0-.19,0-.28,0-.43,0-.64v0a6.07,6.07,0,0,0-.19-1.05s0-.11,0-.17a8,8,0,0,0-.36-1,1.3,1.3,0,0,0-.08-.17,6.46,6.46,0,0,0-.53-.92.86.86,0,0,0-.07-.1,7,7,0,0,0-1.26-1.35,2.48,2.48,0,0,0-.26-.19,3.15,3.15,0,0,0-.29-.22l-.31-.19-.28-.16-.32-.16-.3-.14-.32-.11c-.11,0-.22-.09-.33-.12l-.32-.08-.35-.09-.37-.05-.3-.05a8.07,8.07,0,0,0-1.39,0l-.3.05-.38.05-.34.09-.32.08-.33.11-.32.12-.3.14a3.18,3.18,0,0,0-.32.16l-.28.16-.31.19-.29.21-.26.2a5.35,5.35,0,0,0-.5.45h0c-.16.16-.32.33-.46.5l-.19.26c-.07.1-.15.19-.22.3s-.12.2-.19.3-.11.19-.16.28-.1.22-.15.32a2.92,2.92,0,0,0-.14.31,2.85,2.85,0,0,0-.12.31l-.12.33c0,.11,0,.22-.08.32s-.06.23-.08.35,0,.25-.06.37,0,.2,0,.31a5.32,5.32,0,0,0,0,.69c0,.22,0,.44,0,.65a1,1,0,0,1,0,.16c0,.17,0,.33.07.49l0,.2c0,.14.06.29.1.43l.07.22.14.39a2.44,2.44,0,0,0,.1.24c.05.11.1.23.16.34s.08.17.13.25.12.22.19.33l.14.22c.09.13.18.26.28.38a1.71,1.71,0,0,0,.11.14c.14.17.28.33.43.48l0,0s.05,0,.06,0c.22.21.46.41.7.6l0,0a7.85,7.85,0,0,0,.78.49l.12.07a7.91,7.91,0,0,0,.84.37l.08,0a9.46,9.46,0,0,0,.91.26l1.82,4.39,1.93,4.66A106.5,106.5,0,0,0,78.46,69.29L66.82,57.65a14.22,14.22,0,1,0-9.25,9.2L69.45,78.73A106.51,106.51,0,0,0,52,107.81l-12.71-5.26a5.58,5.58,0,0,0-.26-.91l0-.08a5.23,5.23,0,0,0-.37-.84l-.06-.12a7.85,7.85,0,0,0-.49-.78l0,0a8.17,8.17,0,0,0-.6-.7L37.34,99l0,0c-.15-.15-.31-.29-.48-.43l-.14-.11-.38-.28L36.08,98l-.33-.19-.24-.13-.35-.16-.24-.1-.38-.14-.23-.07-.43-.1-.2,0L33.2,97,33,97c-.22,0-.43,0-.65,0a5.37,5.37,0,0,0-.7,0l-.3,0c-.13,0-.25,0-.37.06l-.35.08-.32.08-.33.12-.32.11-.3.15a3.13,3.13,0,0,0-.32.15,2.61,2.61,0,0,0-.28.17c-.1.06-.21.11-.31.18l-.3.22-.25.19a7,7,0,0,0-1,1c-.06.08-.12.17-.19.25l-.22.3-.18.3c-.06.1-.12.19-.17.29l-.15.31c-.05.11-.1.21-.14.31s-.08.21-.12.31a3.38,3.38,0,0,0-.11.34c0,.1-.06.21-.09.31s-.06.23-.08.35,0,.25-.06.37,0,.21,0,.31,0,.46,0,.69h0c0,.23,0,.46,0,.7s0,.2,0,.3,0,.25.06.37,0,.23.08.35.05.21.09.32.07.22.11.33.07.21.12.32.09.2.14.3l.15.32a2.61,2.61,0,0,0,.17.28l.18.31.22.3c.07.08.13.17.19.25a6.79,6.79,0,0,0,1.36,1.26l.09.07a7.17,7.17,0,0,0,.93.53l.16.08a8.18,8.18,0,0,0,1,.36l.17,0a6.07,6.07,0,0,0,1.05.19h0c.21,0,.43,0,.65,0l.27,0,.46,0c.23,0,.45-.06.67-.1l.43-.1c.22-.06.44-.14.65-.22s.27-.09.4-.15a7.15,7.15,0,0,0,.77-.42l.19-.1,13.07,5.41a107.37,107.37,0,0,0-4.8,25.89H26.86a14.2,14.2,0,1,0,0,13.05H44.51A107.33,107.33,0,0,0,51,184.92l-10.94,4.53a7,7,0,1,0,3,7.29L54,192.21A106.56,106.56,0,0,0,69.5,216.57L57.65,228.43a14.22,14.22,0,1,0,9.2,9.25L78.52,226a106.49,106.49,0,0,0,25.39,17.54l-4.19,10.11a7,7,0,0,0-3.53,11.83A7,7,0,0,0,107,256.68l4.11-9.91a106.85,106.85,0,0,0,30,7.31v14.3a14.21,14.21,0,1,0,13.05,0V254.51a107,107,0,0,0,29-4.84l3.14,7.59,1.31,3.16c0,.07-.07.14-.11.2a7.08,7.08,0,0,0-.41.77c-.06.13-.1.26-.15.4a5,5,0,0,0-.22.65c0,.14-.07.29-.1.43s-.08.44-.11.67l0,.45c0,.1,0,.19,0,.28s0,.43,0,.65a.06.06,0,0,0,0,0,6.07,6.07,0,0,0,.19,1.05,1,1,0,0,0,0,.17,7.42,7.42,0,0,0,.35,1l.09.17a5.62,5.62,0,0,0,.53.92.86.86,0,0,0,.07.1,7.07,7.07,0,0,0,1.26,1.36l.25.18.3.22.3.19.29.17.31.15.31.14.31.12.34.11.32.08.34.09.37.06.31,0a6.46,6.46,0,0,0,1.39,0l.3,0,.37-.06a3.58,3.58,0,0,0,.35-.09l.32-.08.33-.11.32-.12.3-.14.32-.15.28-.17.31-.19.3-.22.25-.18a8.25,8.25,0,0,0,1-1l.19-.26a3.06,3.06,0,0,0,.21-.29c.07-.1.13-.21.19-.31l.17-.28.15-.32c.05-.1.1-.2.14-.3l.12-.32c0-.11.08-.22.11-.33s.06-.21.09-.32.06-.23.08-.35l.06-.37c0-.1,0-.2,0-.31s0-.46,0-.69,0-.44,0-.65a.88.88,0,0,0,0-.16c0-.16,0-.33-.07-.49s0-.13,0-.19-.07-.29-.11-.44,0-.14-.07-.22-.08-.26-.13-.38l-.1-.24c0-.12-.11-.24-.16-.35l-.13-.25-.19-.32-.15-.23c-.08-.13-.18-.25-.27-.38l-.11-.14c-.14-.17-.29-.33-.44-.48l0,0-.06-.05q-.33-.31-.69-.6l-.06,0a6.71,6.71,0,0,0-.77-.49l-.13-.07a7,7,0,0,0-.83-.37l-.08,0a7.21,7.21,0,0,0-.91-.25L193.15,253l-2.48-6a106.66,106.66,0,0,0,36.18-23.8Zm-75-32a40.9,40.9,0,1,1,40.9-40.9A40.9,40.9,0,0,1,150.38,189.77Z"/><text class="cls-2" transform="translate(234.92 186.24)">DISCOVID</text></g></g></svg>