<svg id="Camada_1" data-name="Camada 1" xmlns="http://www.w3.org/2000/svg" viewBox="0 0 775.42 295.19"><defs><style>.cls-1{fill:#c49042;}.cls-2,.cls-5{isolation:isolate;fill:#fff;font-family:Gotham-Bold, Gotham;font-weight:700;}.cls-2{font-size:104.98px;}.cls-3{letter-spacing:-0.02em;}.cls-4{letter-spacing:-0.04em;}.cls-5{font-size:46.18px;letter-spacing:-0.02em;}.cls-6{letter-spacing:0em;}</style></defs><g id="Camada_2" data-name="Camada 2"><g id="Camada_1-2" data-name="Camada 1-2"><path class="cls-1" d="M768.94,614.36h0L737.17,581A58.57,58.57,0,1,0,720,593.92l20.3,21.32a87.79,87.79,0,1,1,16.53-137.13l13.54-13.55A106.66,106.66,0,0,0,734.78,441l3.72-9a7,7,0,1,0-7.29-3l-3.86,9.32a107.84,107.84,0,0,0-29.71-5V419.42a14.22,14.22,0,1,0-13,0v14.31a107.07,107.07,0,0,0-32.84,8.53l-2.45-5.92-1.12-2.71c0-.07.06-.13.1-.2a5.08,5.08,0,0,0,.42-.76c.06-.14.1-.27.15-.4s.16-.44.22-.66.07-.28.1-.43.08-.44.1-.67a3.32,3.32,0,0,0,0-.45v-.92h0a5.52,5.52,0,0,0-.19-1.05v-.17a9.19,9.19,0,0,0-.36-1l-.08-.17a7.06,7.06,0,0,0-.53-.92l-.07-.1a7.32,7.32,0,0,0-1.26-1.35l-.26-.19-.29-.22-.31-.19-.28-.16-.32-.16-.3-.14-.32-.11c-.11,0-.22-.09-.33-.12l-.32-.08-.35-.09-.37-.05-.3-.05a8.07,8.07,0,0,0-1.39,0l-.3.05-.38.05-.34.09-.32.08-.33.11-.32.12-.3.14-.32.16-.28.16-.31.19-.29.21-.26.2c-.17.14-.34.29-.5.45h0c-.16.16-.32.33-.46.5l-.19.26c-.07.1-.15.19-.22.3s-.12.2-.19.3a2.79,2.79,0,0,0-.16.28c0,.09-.1.22-.15.32s-.1.21-.14.31l-.12.31-.12.33a.47.47,0,0,1-.08.32c-.08.1-.06.23-.08.35a1.19,1.19,0,0,1-.06.37c-.06.12,0,.2,0,.31s0,.46,0,.69v.65a.43.43,0,0,1,0,.16,1.17,1.17,0,0,0,.07.49v.2a1.67,1.67,0,0,0,.1.43l.07.22.14.39a1.33,1.33,0,0,0,.1.24c.05.11.1.23.16.34s.08.17.13.25.12.22.19.33l.14.22c.09.13.18.26.28.38a1.71,1.71,0,0,0,.11.14c.14.17.28.33.43.48h.06c.22.21.46.41.7.6h0a6.36,6.36,0,0,0,.78.49l.12.07a6.3,6.3,0,0,0,.84.37h.08a7.25,7.25,0,0,0,.91.26l1.82,4.39,1.93,4.66A106.76,106.76,0,0,0,622,461.85l-11.64-11.64a14.22,14.22,0,1,0-9.25,9.2L613,471.29a106.73,106.73,0,0,0-17.45,29.08l-12.71-5.26a5.88,5.88,0,0,0-.26-.91v-.08a5.23,5.23,0,0,0-.37-.84l-.06-.12a7.85,7.85,0,0,0-.49-.78h0c-.19-.24-.39-.47-.6-.7l-.17-.12h0c-.15-.15-.31-.29-.48-.43l-.14-.11-.38-.28-.26-.18-.33-.19-.24-.13-.35-.16-.24-.1-.38-.14-.23-.07-.43-.1h-.2l-.48-.11h-1.85a.78.78,0,0,0-.37.06l-.35.08-.32.08-.33.12-.32.11-.3.15-.32.15a2.61,2.61,0,0,0-.28.17c-.1.06-.21.11-.31.18l-.3.22-.25.19a7.27,7.27,0,0,0-1,1c-.06.08-.12.17-.19.25l-.22.3-.18.3c-.06.1-.12.19-.17.29l-.15.31c0,.11-.1.21-.14.31l-.12.31c0,.12-.08.23-.11.34a1.21,1.21,0,0,1-.09.31,3,3,0,0,0-.08.35,1.19,1.19,0,0,1-.06.37c-.06.12,0,.21,0,.31v.69h0v1a.84.84,0,0,0,.06.37c.06.12,0,.23.08.35s.05.21.09.32.07.22.11.33.07.21.12.32l.14.3.15.32a2.61,2.61,0,0,0,.17.28l.18.31.22.3c.07.08.13.17.19.25a6.51,6.51,0,0,0,1.36,1.26l.09.07a7.17,7.17,0,0,0,.93.53l.16.08a6.3,6.3,0,0,0,1,.36h.17a5.38,5.38,0,0,0,1.05.19h1.38a3.74,3.74,0,0,0,.67-.1l.43-.1c.22-.06.44-.14.65-.22s.27-.09.4-.15a5.75,5.75,0,0,0,.77-.42l.19-.1,13.07,5.41a107.13,107.13,0,0,0-4.8,25.89H570.39a14.2,14.2,0,1,0,0,13.05H588a107.36,107.36,0,0,0,6.49,30.77L583.59,582a7,7,0,1,0,3,7.29l10.94-4.53A106.28,106.28,0,0,0,613,609.13L601.18,621a14.23,14.23,0,1,0,9.2,9.25l11.67-11.68a106.43,106.43,0,0,0,25.39,17.54l-4.19,10.11a7.06,7.06,0,1,0,7.28,3l4.11-9.91a106.66,106.66,0,0,0,30,7.31v14.3a14.21,14.21,0,1,0,13.05,0V647.07a107,107,0,0,0,29-4.84l3.14,7.59,1.31,3.16c0,.07-.07.14-.11.2a8.14,8.14,0,0,0-.41.77c-.06.13-.1.26-.15.4a5.53,5.53,0,0,0-.22.65,2.23,2.23,0,0,1-.1.43c0,.14-.08.44-.11.67v1.38h0a6.07,6.07,0,0,0,.19,1v.17a6.56,6.56,0,0,0,.35,1l.09.17a5.51,5.51,0,0,0,.53.92.86.86,0,0,0,.07.1,6.79,6.79,0,0,0,1.26,1.36l.25.18.3.22.3.19.29.17.31.15.31.14.31.12.34.11.32.08.34.09.37.06h.31a6.46,6.46,0,0,0,1.39,0h.3l.37-.06a2,2,0,0,0,.35-.09l.32-.08.33-.11.32-.12.3-.14.32-.15.28-.17.31-.19.3-.22.25-.18a7.27,7.27,0,0,0,1-1l.19-.26a1.94,1.94,0,0,0,.21-.29c.07-.1.13-.21.19-.31l.17-.28.15-.32c0-.1.1-.2.14-.3l.12-.32a1.42,1.42,0,0,1,.11-.33l.09-.32a3.59,3.59,0,0,0,.08-.35l.06-.37v-1.65a.43.43,0,0,0,0-.16,1.19,1.19,0,0,0-.07-.49c-.07-.16,0-.13,0-.19a3.94,3.94,0,0,0-.11-.44c0-.15,0-.14-.07-.22s-.08-.26-.13-.38l-.1-.24c0-.12-.11-.24-.16-.35l-.13-.25-.19-.32-.15-.23c-.08-.13-.18-.25-.27-.38l-.11-.14c-.14-.17-.29-.33-.44-.48h0l-.06,0-.69-.6h-.06a6.71,6.71,0,0,0-.77-.49l-.13-.07a7.75,7.75,0,0,0-.83-.37h-.08a9.41,9.41,0,0,0-.91-.25l-1.79-4.49-2.48-6a106.44,106.44,0,0,0,36.18-23.8Zm-75-32a40.9,40.9,0,1,1,40.9-40.9h0a40.9,40.9,0,0,1-40.93,40.87h0Z" transform="translate(-543.58 -392.59)"/><text class="cls-2" transform="translate(234.87 186.22)">DIS<tspan class="cls-3" x="184.55" y="0">C</tspan><tspan class="cls-4" x="259.93" y="0">O</tspan><tspan x="344.44" y="0">VID</tspan></text><text class="cls-5" transform="translate(615.15 265.13)">A<tspan class="cls-6" x="35.32" y="0">dmin</tspan></text><path id="Icon_ionic-ios-settings" data-name="Icon ionic-ios-settings" class="cls-1" d="M1148.72,640.85a4.36,4.36,0,0,1,2.78-4.05,17.2,17.2,0,0,0-2.08-5,4.5,4.5,0,0,1-1.77.38,4.35,4.35,0,0,1-4-6.1,17,17,0,0,0-5-2.08,4.34,4.34,0,0,1-8.1,0,17.2,17.2,0,0,0-5,2.08,4.34,4.34,0,0,1-4,6.1,4.29,4.29,0,0,1-1.76-.38,17.29,17.29,0,0,0-2.07,5,4.34,4.34,0,0,1,0,8.1,17.28,17.28,0,0,0,2.09,5,4.33,4.33,0,0,1,5.71,5.72,17.48,17.48,0,0,0,5,2.08,4.33,4.33,0,0,1,8.08,0,17,17,0,0,0,5-2.08,4.33,4.33,0,0,1,5.71-5.72,17.22,17.22,0,0,0,2.09-5A4.37,4.37,0,0,1,1148.72,640.85Zm-14,7a7,7,0,1,1,7-7h0a7,7,0,0,1-7,7Z" transform="translate(-543.58 -392.59)"/></g></g></svg>