<?xml version="1.0" encoding="utf-8"?>
<!-- Generator: Adobe Illustrator 25.0.0, SVG Export Plug-In . SVG Version: 6.00 Build 0)  -->
<svg version="1.1" id="Camada_1" xmlns="http://www.w3.org/2000/svg" xmlns:xlink="http://www.w3.org/1999/xlink" x="0px" y="0px"
	 viewBox="0 0 782.3 295.2" style="enable-background:new 0 0 782.3 295.2;" xml:space="preserve">
<style type="text/css">
	.st0{fill:#C49043;}
	.st1{enable-background:new    ;}
	.st2{fill:#FFFFFF;}
</style>
<g>
	<path class="st0" d="M225.4,221.8L225.4,221.8l-31.8-33.4c21.8-23.9,20.1-60.9-3.7-82.7s-60.9-20.1-82.7,3.7s-20.1,60.9,3.7,82.7
		c17.9,16.3,43.9,20,65.6,9.2l20.3,21.3c-41.4,25.2-95.4,11.9-120.6-29.5S64.2,97.7,105.7,72.6c34.6-21,79-15.6,107.6,13L226.9,72
		c-10.2-10.2-22.3-18.2-35.6-23.6l3.7-9c3.8-0.8,6.2-4.5,5.4-8.3s-4.5-6.2-8.3-5.4c-3.8,0.8-6.2,4.5-5.4,8.3c0.2,0.9,0.5,1.7,1,2.4
		l-3.9,9.3c-9.6-3.1-19.6-4.7-29.7-5V26.9c7-3.6,9.7-12.2,6.1-19.1S148-2,141.1,1.6s-9.7,12.2-6.1,19.1c1.4,2.6,3.5,4.7,6.1,6.1
		v14.3c-11.3,1.1-22.4,4-32.8,8.5l-2.4-5.9l-1.1-2.7c0-0.1,0.1-0.1,0.1-0.2c0.2-0.2,0.3-0.5,0.4-0.8c0.1-0.1,0.1-0.3,0.2-0.4
		s0.2-0.4,0.2-0.7s0.1-0.3,0.1-0.4s0.1-0.4,0.1-0.7s0-0.3,0-0.5s0-0.2,0-0.3s0-0.4,0-0.6l0,0c0-0.4-0.1-0.7-0.2-1c0,0,0-0.1,0-0.2
		c-0.1-0.3-0.2-0.7-0.4-1c0-0.1,0-0.1-0.1-0.2c-0.2-0.3-0.3-0.6-0.5-0.9c0,0,0-0.1-0.1-0.1c-0.4-0.5-0.8-1-1.3-1.4
		c-0.1-0.1-0.2-0.1-0.3-0.2c-0.1-0.1-0.2-0.2-0.3-0.2l-0.3-0.2l-0.3-0.2l-0.3-0.2l-0.3-0.1l-0.3-0.1c-0.1,0-0.2-0.1-0.3-0.1
		l-0.3-0.1l-0.3-0.1l-0.4,0l-0.3,0c-0.5,0-0.9,0-1.4,0l-0.3,0l-0.4,0l-0.3,0.1l-0.3,0.1l-0.3,0.1l-0.3,0.1l-0.3,0.1
		c-0.1,0-0.2,0.1-0.3,0.2l-0.3,0.2l-0.3,0.2l-0.3,0.2l-0.3,0.2c-0.2,0.1-0.3,0.3-0.5,0.4l0,0c-0.2,0.2-0.3,0.3-0.5,0.5L93.2,33
		c-0.1,0.1-0.2,0.2-0.2,0.3s-0.1,0.2-0.2,0.3s-0.1,0.2-0.2,0.3s-0.1,0.2-0.2,0.3c-0.1,0.1-0.1,0.2-0.1,0.3c0,0.1-0.1,0.2-0.1,0.3
		l-0.1,0.3c0,0.1,0,0.2-0.1,0.3s-0.1,0.2-0.1,0.3s0,0.2-0.1,0.4s0,0.2,0,0.3c0,0.2,0,0.5,0,0.7c0,0.2,0,0.4,0,0.7c0,0.1,0,0.1,0,0.2
		c0,0.2,0,0.3,0.1,0.5v0.2c0,0.1,0.1,0.3,0.1,0.4l0.1,0.2l0.1,0.4c0,0.1,0.1,0.2,0.1,0.2c0.1,0.1,0.1,0.2,0.2,0.3s0.1,0.2,0.1,0.2
		s0.1,0.2,0.2,0.3l0.1,0.2c0.1,0.1,0.2,0.3,0.3,0.4c0,0,0.1,0.1,0.1,0.1c0.1,0.2,0.3,0.3,0.4,0.5l0,0c0,0,0.1,0,0.1,0
		c0.2,0.2,0.5,0.4,0.7,0.6l0,0c0.3,0.2,0.5,0.3,0.8,0.5l0.1,0.1c0.3,0.1,0.6,0.3,0.8,0.4h0.1c0.3,0.1,0.6,0.2,0.9,0.3l1.8,4.4
		L101,53c-8.2,4.4-15.8,9.9-22.6,16.3L66.8,57.7c2.4-7.5-1.7-15.5-9.2-17.9c-7.5-2.4-15.5,1.7-17.9,9.2c-2.4,7.5,1.7,15.5,9.2,17.9
		c2.8,0.9,5.8,0.9,8.6,0l11.9,11.9c-7.3,8.7-13.2,18.5-17.4,29.1l-12.7-5.3c-0.1-0.3-0.1-0.6-0.3-0.9v-0.1c-0.1-0.3-0.2-0.6-0.4-0.8
		l-0.1-0.1c-0.1-0.3-0.3-0.5-0.5-0.8l0,0c-0.2-0.2-0.4-0.5-0.6-0.7L37.3,99l0,0c-0.2-0.2-0.3-0.3-0.5-0.4l-0.1-0.1l-0.4-0.3L36.1,98
		l-0.3-0.2l-0.2-0.1l-0.3-0.2l-0.2-0.1l-0.4-0.1l-0.2-0.1l-0.4-0.1h-0.2L33.2,97H33c-0.2,0-0.4,0-0.7,0c-0.2,0-0.5,0-0.7,0h-0.3
		c-0.1,0-0.2,0-0.4,0.1l-0.4,0.1l-0.3,0.1L30,97.3l-0.3,0.1l-0.3,0.2c-0.1,0-0.2,0.1-0.3,0.2c-0.1,0.1-0.2,0.1-0.3,0.2
		c-0.1,0.1-0.2,0.1-0.3,0.2l-0.3,0.2l-0.2,0.2c-0.4,0.3-0.7,0.6-1,1c-0.1,0.1-0.1,0.2-0.2,0.2l-0.2,0.3l-0.2,0.3
		c-0.1,0.1-0.1,0.2-0.2,0.3L26,101c0,0.1-0.1,0.2-0.1,0.3s-0.1,0.2-0.1,0.3c0,0.1-0.1,0.2-0.1,0.3c0,0.1-0.1,0.2-0.1,0.3
		s-0.1,0.2-0.1,0.3s0,0.2-0.1,0.4s0,0.2,0,0.3s0,0.5,0,0.7l0,0c0,0.2,0,0.5,0,0.7s0,0.2,0,0.3s0,0.2,0.1,0.4s0,0.2,0.1,0.3
		s0,0.2,0.1,0.3s0.1,0.2,0.1,0.3s0.1,0.2,0.1,0.3s0.1,0.2,0.1,0.3l0.1,0.3c0.1,0.1,0.1,0.2,0.2,0.3l0.2,0.3l0.2,0.3
		c0.1,0.1,0.1,0.2,0.2,0.2c0.4,0.5,0.9,0.9,1.4,1.3l0.1,0.1c0.3,0.2,0.6,0.4,0.9,0.5l0.2,0.1c0.3,0.1,0.7,0.3,1,0.4h0.2
		c0.3,0.1,0.7,0.2,1,0.2l0,0c0.2,0,0.4,0,0.7,0h0.3H33c0.2,0,0.5-0.1,0.7-0.1l0.4-0.1c0.2-0.1,0.4-0.1,0.7-0.2s0.3-0.1,0.4-0.2
		c0.3-0.1,0.5-0.3,0.8-0.4l0.2-0.1l13.1,5.4c-2.7,8.4-4.3,17.1-4.8,25.9H26.9c-3.6-7-12.2-9.7-19.1-6.1c-7,3.6-9.7,12.2-6.1,19.1
		s12.2,9.7,19.1,6.1c2.6-1.4,4.7-3.5,6.1-6.1h17.6c0.6,10.5,2.8,20.9,6.5,30.8l-10.9,4.5c-3.2-2.1-7.6-1.2-9.7,2s-1.2,7.6,2,9.7
		c3.2,2.1,7.6,1.2,9.7-2c0.5-0.7,0.8-1.5,1-2.4l10.9-4.5c4,8.8,9.3,17,15.5,24.4l-11.8,11.9c-7.5-2.4-15.5,1.7-17.9,9.2
		c-2.4,7.5,1.7,15.5,9.2,17.9c7.5,2.4,15.5-1.7,17.9-9.2c0.9-2.8,0.9-5.8,0-8.6L78.5,226c7.6,7,16.1,13,25.4,17.5l-4.2,10.1
		c-3.8,0.8-6.2,4.5-5.5,8.3c0.3,1.4,0.9,2.6,1.9,3.6c2.7,2.8,7.1,2.8,9.9,0.1c2.4-2.4,2.8-6.1,0.9-8.9l4.1-9.9
		c9.6,3.9,19.7,6.3,30,7.3v14.3c-7,3.6-9.7,12.2-6.1,19.1c3.6,7,12.2,9.7,19.1,6.1c7-3.6,9.7-12.2,6.1-19.1
		c-1.4-2.6-3.5-4.7-6.1-6.1v-13.9c9.8-0.3,19.6-1.9,29-4.8l3.1,7.6l1.3,3.2c0,0.1-0.1,0.1-0.1,0.2c-0.2,0.2-0.3,0.5-0.4,0.8
		c-0.1,0.1-0.1,0.3-0.1,0.4c-0.1,0.2-0.2,0.4-0.2,0.6c0,0.1-0.1,0.3-0.1,0.4s-0.1,0.4-0.1,0.7v0.5c0,0.1,0,0.2,0,0.3s0,0.4,0,0.6
		l0,0c0,0.4,0.1,0.7,0.2,1c0,0.1,0,0.1,0,0.2c0.1,0.3,0.2,0.7,0.4,1l0.1,0.2c0.1,0.3,0.3,0.6,0.5,0.9c0,0,0,0.1,0.1,0.1
		c0.4,0.5,0.8,1,1.3,1.4l0.2,0.2l0.3,0.2l0.3,0.2l0.3,0.2l0.3,0.1l0.3,0.1l0.3,0.1l0.3,0.1l0.3,0.1l0.3,0.1l0.4,0.1h0.3
		c0.5,0,0.9,0,1.4,0h0.3l0.4-0.1c0.1,0,0.2-0.1,0.4-0.1l0.3-0.1l0.3-0.1l0.3-0.1l0.3-0.1l0.3-0.1l0.3-0.2l0.3-0.2l0.3-0.2l0.2-0.2
		c0.4-0.3,0.7-0.6,1-1l0.2-0.3c0.1-0.1,0.1-0.2,0.2-0.3c0.1-0.1,0.1-0.2,0.2-0.3l0.2-0.3l0.1-0.3c0.1-0.1,0.1-0.2,0.1-0.3l0.1-0.3
		c0-0.1,0.1-0.2,0.1-0.3s0.1-0.2,0.1-0.3s0.1-0.2,0.1-0.4l0.1-0.4c0-0.1,0-0.2,0-0.3s0-0.5,0-0.7s0-0.4,0-0.6c0-0.1,0-0.1,0-0.2
		c0-0.2,0-0.3-0.1-0.5s0-0.1,0-0.2s-0.1-0.3-0.1-0.4s0-0.1-0.1-0.2s-0.1-0.3-0.1-0.4l-0.1-0.2c0-0.1-0.1-0.2-0.2-0.4l-0.1-0.2
		l-0.2-0.3l-0.1-0.2c-0.1-0.1-0.2-0.2-0.3-0.4l-0.1-0.1c-0.1-0.2-0.3-0.3-0.4-0.5l0,0l-0.1,0c-0.2-0.2-0.5-0.4-0.7-0.6h-0.1
		c-0.2-0.2-0.5-0.3-0.8-0.5l-0.1-0.1c-0.3-0.1-0.5-0.3-0.8-0.4h-0.1c-0.3-0.1-0.6-0.2-0.9-0.2l-1.8-4.5l-2.5-6
		c13.6-5.4,25.9-13.5,36.2-23.8L225.4,221.8z M150.4,189.8c-22.6,0-40.9-18.3-40.9-40.9s18.3-40.9,40.9-40.9s40.9,18.3,40.9,40.9
		l0,0C191.3,171.5,173,189.8,150.4,189.8L150.4,189.8L150.4,189.8z"/>
	<g class="st1">
		<path class="st2" d="M308.6,164c-1.9,4.5-4.6,8.4-8,11.7c-3.5,3.3-7.6,5.9-12.4,7.8c-4.8,1.9-10.1,2.8-15.8,2.8h-28.7v-73.5h28.7
			c5.7,0,11,0.9,15.8,2.8c4.8,1.9,8.9,4.4,12.4,7.7c3.5,3.3,6.1,7.2,8,11.6c1.9,4.4,2.8,9.3,2.8,14.4v0.2
			C311.5,154.7,310.5,159.5,308.6,164z M294.5,149.5c0-3.2-0.5-6.2-1.6-8.9c-1.1-2.7-2.6-5.1-4.5-7c-1.9-2-4.3-3.5-7-4.6
			c-2.7-1.1-5.7-1.6-9-1.6h-12.5v44.3h12.5c3.3,0,6.3-0.5,9-1.6s5.1-2.6,7-4.5c1.9-2,3.4-4.3,4.5-6.9c1.1-2.7,1.6-5.6,1.6-8.9V149.5
			z"/>
		<path class="st2" d="M326.6,186.2v-73.5h16.2v73.5H326.6z"/>
		<path class="st2" d="M412.2,174.2c-1.3,2.8-3.2,5.2-5.5,7.1c-2.4,1.9-5.2,3.4-8.5,4.4c-3.3,1-6.9,1.5-10.9,1.5
			c-5.6,0-11.1-1-16.5-2.9c-5.4-1.9-10.3-4.9-14.7-8.9l9.6-11.4c3.4,2.7,6.8,4.9,10.3,6.5c3.5,1.6,7.4,2.4,11.6,2.4
			c3.4,0,6-0.6,7.8-1.8c1.9-1.2,2.8-2.9,2.8-5.1v-0.2c0-1-0.2-2-0.6-2.8c-0.4-0.8-1.1-1.6-2.2-2.3c-1.1-0.7-2.6-1.4-4.5-2.1
			c-1.9-0.7-4.4-1.4-7.5-2.2c-3.7-0.9-7.1-1.9-10.1-3c-3-1.1-5.6-2.5-7.7-4.1c-2.1-1.6-3.7-3.7-4.9-6.1c-1.2-2.4-1.7-5.5-1.7-9.1
			v-0.2c0-3.4,0.6-6.4,1.9-9.1c1.3-2.7,3-5,5.3-7c2.3-2,5-3.5,8.1-4.5c3.1-1,6.6-1.6,10.4-1.6c5.4,0,10.3,0.8,14.9,2.4
			c4.5,1.6,8.7,3.9,12.4,6.9l-8.4,12.2c-3.3-2.2-6.5-4-9.7-5.3c-3.1-1.3-6.3-1.9-9.4-1.9s-5.5,0.6-7.1,1.8s-2.4,2.7-2.4,4.6v0.2
			c0,1.2,0.2,2.2,0.7,3.1c0.5,0.9,1.3,1.7,2.5,2.4c1.2,0.7,2.8,1.4,4.9,2c2.1,0.6,4.7,1.4,7.8,2.2c3.7,1,7,2.1,9.9,3.3
			c2.9,1.2,5.4,2.7,7.4,4.4c2,1.7,3.5,3.7,4.5,6c1,2.3,1.5,5.1,1.5,8.3v0.2C414.2,168.1,413.6,171.4,412.2,174.2z"/>
		<path class="st2" d="M487,179.8c-2,1.6-4.3,3-6.7,4.1c-2.4,1.2-5.1,2-7.9,2.6c-2.9,0.6-6.1,0.9-9.7,0.9c-5.4,0-10.4-1-15-2.9
			s-8.6-4.6-12-8c-3.4-3.4-6-7.4-7.9-12s-2.8-9.6-2.8-14.8v-0.2c0-5.2,0.9-10.2,2.8-14.8c1.9-4.6,4.5-8.6,7.9-12.1
			c3.4-3.5,7.4-6.2,12.1-8.2c4.7-2,9.9-3,15.5-3c3.4,0,6.6,0.3,9.4,0.8c2.8,0.6,5.4,1.3,7.7,2.3c2.3,1,4.4,2.2,6.4,3.6
			c2,1.4,3.8,2.9,5.5,4.6L482,134.7c-2.9-2.6-5.8-4.6-8.8-6.1c-3-1.5-6.3-2.2-10-2.2c-3.1,0-5.9,0.6-8.6,1.8
			c-2.6,1.2-4.9,2.8-6.8,4.9s-3.4,4.5-4.4,7.3c-1,2.8-1.6,5.7-1.6,8.9v0.2c0,3.1,0.5,6.1,1.6,8.9c1,2.8,2.5,5.2,4.4,7.3
			c1.9,2.1,4.1,3.8,6.7,5c2.6,1.2,5.5,1.8,8.7,1.8c4.2,0,7.8-0.8,10.7-2.3c2.9-1.5,5.8-3.6,8.7-6.3l10.3,10.4
			C491,176.4,489,178.2,487,179.8z"/>
		<path class="st2" d="M577.7,164.2c-2,4.6-4.7,8.6-8.1,12.1c-3.5,3.5-7.6,6.2-12.4,8.2c-4.8,2-10,3-15.7,3s-10.9-1-15.6-3
			c-4.8-2-8.9-4.7-12.3-8.1c-3.5-3.4-6.2-7.4-8.1-12c-1.9-4.6-2.9-9.5-2.9-14.8v-0.2c0-5.2,1-10.2,2.9-14.8c2-4.6,4.7-8.6,8.1-12.1
			c3.5-3.5,7.6-6.2,12.4-8.2c4.8-2,10-3,15.7-3s10.9,1,15.6,3c4.8,2,8.9,4.7,12.3,8.1c3.5,3.4,6.2,7.4,8.1,12
			c1.9,4.6,2.9,9.5,2.9,14.8v0.2C580.6,154.7,579.6,159.7,577.7,164.2z M563.7,149.5c0-3.1-0.5-6.1-1.6-8.9
			c-1.1-2.8-2.6-5.2-4.6-7.3c-2-2.1-4.4-3.8-7.1-5s-5.7-1.8-8.9-1.8c-3.3,0-6.3,0.6-9,1.8c-2.7,1.2-5,2.8-6.9,4.9
			c-1.9,2.1-3.4,4.5-4.5,7.3c-1.1,2.8-1.6,5.7-1.6,8.9v0.2c0,3.1,0.5,6.1,1.6,8.9c1.1,2.8,2.6,5.2,4.6,7.3c2,2.1,4.3,3.8,7,5
			c2.7,1.2,5.7,1.8,9,1.8c3.2,0,6.2-0.6,8.9-1.8c2.7-1.2,5.1-2.8,7-4.9c1.9-2.1,3.4-4.5,4.5-7.3c1.1-2.8,1.6-5.7,1.6-8.9V149.5z"/>
		<path class="st2" d="M632.7,186.8h-14.3l-29.7-74h17.8l19.2,51.8l19.2-51.8h17.4L632.7,186.8z"/>
		<path class="st2" d="M674.5,186.2v-73.5h16.2v73.5H674.5z"/>
		<path class="st2" d="M773.9,164c-1.9,4.5-4.6,8.4-8,11.7c-3.5,3.3-7.6,5.9-12.4,7.8c-4.8,1.9-10.1,2.8-15.8,2.8H709v-73.5h28.7
			c5.7,0,11,0.9,15.8,2.8c4.8,1.9,8.9,4.4,12.4,7.7c3.5,3.3,6.1,7.2,8,11.6c1.9,4.4,2.8,9.3,2.8,14.4v0.2
			C776.7,154.7,775.8,159.5,773.9,164z M759.8,149.5c0-3.2-0.5-6.2-1.6-8.9c-1.1-2.7-2.6-5.1-4.5-7c-1.9-2-4.3-3.5-7-4.6
			c-2.7-1.1-5.7-1.6-9-1.6h-12.5v44.3h12.5c3.3,0,6.3-0.5,9-1.6c2.7-1,5.1-2.6,7-4.5c1.9-2,3.4-4.3,4.5-6.9c1.1-2.7,1.6-5.6,1.6-8.9
			V149.5z"/>
	</g>
</g>
</svg>
