<svg xmlns="http://www.w3.org/2000/svg" viewBox="0 0 152.31 137.94"><defs><style>.cls-1{fill:none;}.cls-2{fill:#fff;}.cls-3{fill:#c49043;}</style></defs><g id="Camada_2" data-name="Camada 2"><g id="Camada_1-2" data-name="Camada 1"><path class="cls-1" d="M89.65,122.43a6.34,6.34,0,0,0-2-1.43,6.15,6.15,0,0,0-2.55-.52,6.31,6.31,0,0,0-2.57.51,5.87,5.87,0,0,0-2,1.41,6.62,6.62,0,0,0-1.29,2.08,6.9,6.9,0,0,0-.46,2.54v.06a7,7,0,0,0,.46,2.55,6.3,6.3,0,0,0,3.33,3.52,6.15,6.15,0,0,0,2.57.53,6.31,6.31,0,0,0,2.55-.51,5.81,5.81,0,0,0,2-1.41A6.67,6.67,0,0,0,91,129.67a6.85,6.85,0,0,0,.47-2.53v-.06a7,7,0,0,0-.47-2.55A6.34,6.34,0,0,0,89.65,122.43Z"/><path class="cls-1" d="M12.77,122.52a5.84,5.84,0,0,0-2-1.31,6.93,6.93,0,0,0-2.58-.46H4.62v12.66H8.19a7.13,7.13,0,0,0,2.58-.45,5.65,5.65,0,0,0,2-1.29,6.4,6.4,0,0,0,1.29-2,6.89,6.89,0,0,0,.46-2.55v-.06a7,7,0,0,0-.46-2.55A6.31,6.31,0,0,0,12.77,122.52Z"/><path class="cls-1" d="M75.86,37.63A14.26,14.26,0,1,0,90.11,51.89h0A14.26,14.26,0,0,0,75.86,37.63Z"/><path class="cls-1" d="M145.72,122.52a5.7,5.7,0,0,0-2-1.31,6.93,6.93,0,0,0-2.58-.46h-3.57v12.66h3.57a7.13,7.13,0,0,0,2.58-.45,5.52,5.52,0,0,0,2-1.29,6.06,6.06,0,0,0,1.29-2,6.7,6.7,0,0,0,.47-2.55v-.06a6.84,6.84,0,0,0-.47-2.55A6,6,0,0,0,145.72,122.52Z"/><path class="cls-2" d="M16.25,119.58a10.88,10.88,0,0,0-3.54-2.21,12.48,12.48,0,0,0-4.52-.79H0v21H8.19a12.27,12.27,0,0,0,4.52-.81,11.07,11.07,0,0,0,3.54-2.22,9.91,9.91,0,0,0,2.29-3.33,10.54,10.54,0,0,0,.81-4.14V127a10.46,10.46,0,0,0-.81-4.13A9.93,9.93,0,0,0,16.25,119.58Zm-1.73,7.56a6.89,6.89,0,0,1-.46,2.55,6.4,6.4,0,0,1-1.29,2,5.65,5.65,0,0,1-2,1.29,7.13,7.13,0,0,1-2.58.45H4.62V120.75H8.19a6.93,6.93,0,0,1,2.58.46,5.84,5.84,0,0,1,2,1.31,6.31,6.31,0,0,1,1.29,2,7,7,0,0,1,.46,2.55Z"/><rect class="cls-2" x="23.67" y="116.58" width="4.62" height="21"/><path class="cls-2" d="M47,127.21A7.81,7.81,0,0,0,44.88,126,21.48,21.48,0,0,0,42,125c-.9-.24-1.65-.45-2.24-.63a6.69,6.69,0,0,1-1.4-.57,1.65,1.65,0,0,1-.9-1.56v-.06a1.63,1.63,0,0,1,.67-1.31,3.28,3.28,0,0,1,2-.52,7,7,0,0,1,2.7.55,15.25,15.25,0,0,1,2.76,1.52l2.4-3.48a12.33,12.33,0,0,0-3.56-2,12.53,12.53,0,0,0-4.24-.69,9.24,9.24,0,0,0-3,.45A6.8,6.8,0,0,0,35,118a5.85,5.85,0,0,0-1.5,2,6.08,6.08,0,0,0-.54,2.6v.06a6.1,6.1,0,0,0,.5,2.61A4.76,4.76,0,0,0,34.83,127a8.34,8.34,0,0,0,2.2,1.19,26.35,26.35,0,0,0,2.89.87c.88.22,1.6.43,2.15.63a6.6,6.6,0,0,1,1.29.6A1.66,1.66,0,0,1,44,131a1.85,1.85,0,0,1,.17.8v.06a1.66,1.66,0,0,1-.79,1.45,4.08,4.08,0,0,1-2.24.53,7.93,7.93,0,0,1-3.32-.69,13.68,13.68,0,0,1-3-1.86l-2.73,3.27a12.45,12.45,0,0,0,4.2,2.53,13.91,13.91,0,0,0,4.71.83,10.55,10.55,0,0,0,3.12-.44,7.09,7.09,0,0,0,2.41-1.26,5.57,5.57,0,0,0,1.58-2,6.44,6.44,0,0,0,.57-2.77v-.06a5.86,5.86,0,0,0-.44-2.37A4.82,4.82,0,0,0,47,127.21Z"/><path class="cls-2" d="M65.77,133a6.41,6.41,0,0,1-3,.66,5.82,5.82,0,0,1-4.4-2,6.67,6.67,0,0,1-1.24-2.1,7.2,7.2,0,0,1-.45-2.55V127a7.11,7.11,0,0,1,.45-2.54,6.55,6.55,0,0,1,1.26-2.08A5.77,5.77,0,0,1,60.28,121a5.87,5.87,0,0,1,2.45-.51,6.36,6.36,0,0,1,2.86.63,11.14,11.14,0,0,1,2.51,1.74L71,119.46a12.37,12.37,0,0,0-1.56-1.32,9.56,9.56,0,0,0-1.83-1,11.25,11.25,0,0,0-2.21-.66,13.83,13.83,0,0,0-2.68-.24,11.23,11.23,0,0,0-4.44.85,10.43,10.43,0,0,0-3.45,2.34,10.84,10.84,0,0,0-2.25,3.45,11,11,0,0,0-.81,4.22v.06a11.06,11.06,0,0,0,.81,4.23,10.43,10.43,0,0,0,2.25,3.43,10.56,10.56,0,0,0,3.42,2.3,10.87,10.87,0,0,0,4.29.84,13.63,13.63,0,0,0,2.76-.26,9.83,9.83,0,0,0,2.26-.75,10,10,0,0,0,1.91-1.18,15.23,15.23,0,0,0,1.68-1.56l-2.94-3A11.85,11.85,0,0,1,65.77,133Z"/><path class="cls-2" d="M93.13,119.38a11.09,11.09,0,0,0-3.52-2.31,11.45,11.45,0,0,0-4.47-.85,11.58,11.58,0,0,0-4.49.85,10.71,10.71,0,0,0-5.86,5.79,10.63,10.63,0,0,0-.84,4.22v.06a10.75,10.75,0,0,0,.82,4.21,10.33,10.33,0,0,0,2.31,3.42,11.14,11.14,0,0,0,3.53,2.31,12.07,12.07,0,0,0,9,0,10.77,10.77,0,0,0,5.87-5.79,10.59,10.59,0,0,0,.84-4.21V127a10.8,10.8,0,0,0-.83-4.22A10.33,10.33,0,0,0,93.13,119.38Zm-1.69,7.76a6.85,6.85,0,0,1-.47,2.53,6.67,6.67,0,0,1-1.29,2.09,5.81,5.81,0,0,1-2,1.41,6.31,6.31,0,0,1-2.55.51,6.15,6.15,0,0,1-2.57-.53,6.3,6.3,0,0,1-3.33-3.52,7,7,0,0,1-.46-2.55V127a6.9,6.9,0,0,1,.46-2.54,6.62,6.62,0,0,1,1.29-2.08,5.87,5.87,0,0,1,2-1.41,6.31,6.31,0,0,1,2.57-.51,6.15,6.15,0,0,1,2.55.52A6.34,6.34,0,0,1,91,124.53a7,7,0,0,1,.47,2.55Z"/><polygon class="cls-2" points="109.17 131.37 103.68 116.58 98.58 116.58 107.07 137.73 111.15 137.73 119.64 116.58 114.66 116.58 109.17 131.37"/><rect class="cls-2" x="123.09" y="116.58" width="4.62" height="21"/><path class="cls-2" d="M151.5,122.89a9.81,9.81,0,0,0-2.3-3.31,10.67,10.67,0,0,0-3.54-2.21,12.39,12.39,0,0,0-4.51-.79H133v21h8.19a12.18,12.18,0,0,0,4.51-.81,10.86,10.86,0,0,0,3.54-2.22,9.79,9.79,0,0,0,2.3-3.33,10.54,10.54,0,0,0,.81-4.14V127A10.46,10.46,0,0,0,151.5,122.89Zm-4,4.25a6.7,6.7,0,0,1-.47,2.55,6.06,6.06,0,0,1-1.29,2,5.52,5.52,0,0,1-2,1.29,7.13,7.13,0,0,1-2.58.45h-3.57V120.75h3.57a6.93,6.93,0,0,1,2.58.46,5.7,5.7,0,0,1,2,1.31,6,6,0,0,1,1.29,2,6.84,6.84,0,0,1,.47,2.55Z"/><path class="cls-3" d="M77.15,102.36a5,5,0,0,0,0-8.81V88.71A37.75,37.75,0,0,0,87.3,87l1.1,2.64.46,1.1,0,.07c0,.09-.1.18-.14.27l-.06.14a1.55,1.55,0,0,0-.07.23.83.83,0,0,0,0,.15,1.6,1.6,0,0,0,0,.23c0,.05,0,.1,0,.16v.1a1.62,1.62,0,0,0,0,.22v0a2.25,2.25,0,0,0,.06.36s0,0,0,.06a2,2,0,0,0,.12.34l0,.06a2.07,2.07,0,0,0,.19.32l0,0a2.79,2.79,0,0,0,.44.47l.09.06.1.08.1.06.1.06.11.06.11,0,.11,0,.12,0,.11,0a.42.42,0,0,0,.12,0l.13,0,.11,0a1.93,1.93,0,0,0,.48,0l.11,0,.13,0a.27.27,0,0,0,.12,0l.11,0,.11,0,.11,0,.11,0,.11-.06.1-.06.11-.06.1-.08.08-.06a2.73,2.73,0,0,0,.34-.34l.07-.09.08-.1.06-.11.06-.1a1139937929904,1139937929904,0,0,1,.1-.22,1695557770344.16,1695557770344.16,0,0,1,.08-.22.61.61,0,0,0,0-.11l0-.12s0-.09,0-.13,0-.07,0-.11a1.93,1.93,0,0,0,0-.24,1.77,1.77,0,0,0,0-.23.43.43,0,0,0,0,0c0-.06,0-.12,0-.17a.14.14,0,0,0,0-.07.83.83,0,0,0,0-.15.24.24,0,0,0,0-.08.5.5,0,0,0,0-.13l0-.09L93.08,91l0-.08L93,90.82l0-.08a1.13,1.13,0,0,0-.1-.13l0,0-.15-.17h0l0,0-.24-.21h0L92.07,90l0,0a1.51,1.51,0,0,0-.29-.13h0a1.81,1.81,0,0,0-.31-.09l-.64-1.53-.86-2.09a37.06,37.06,0,0,0,12.61-8.3l-.5-.5L90.93,65.67a20.43,20.43,0,1,0-6,4.51L92,77.61a30.6,30.6,0,1,1,5.75-47.79l4.72-4.72a37.24,37.24,0,0,0-12.4-8.21l1.3-3.13a2.45,2.45,0,1,0-2.9-1.9,2.66,2.66,0,0,0,.36.85L87.51,16A37.93,37.93,0,0,0,77.15,14.2V9.37a5,5,0,1,0-4.54,0v5a37.5,37.5,0,0,0-11.45,3l-.85-2.06-.39-.94,0-.07c.06-.09.1-.18.15-.27l0-.14a1.55,1.55,0,0,0,.08-.23l0-.15a1.57,1.57,0,0,0,0-.23c0-.05,0-.1,0-.16s0-.06,0-.1a.82.82,0,0,0,0-.22v0a2.25,2.25,0,0,0-.06-.36s0,0,0-.06A2,2,0,0,0,60.1,12l0-.06a2,2,0,0,0-.18-.32l0,0a2.43,2.43,0,0,0-.44-.47L59.33,11l-.1-.07a.41.41,0,0,0-.11-.07l-.09,0-.11-.06-.11,0-.11,0-.12,0-.11,0-.12,0h-.13l-.1,0a2,2,0,0,0-.49,0h-.1l-.13,0-.12,0-.12,0-.11,0-.11,0-.11,0-.11.06-.1,0-.11.07-.1.07-.08.07a1.37,1.37,0,0,0-.18.16,1.29,1.29,0,0,0-.16.17l-.06.09-.08.1a.41.41,0,0,1-.07.11l-.05.1-.06.11a.54.54,0,0,1-.05.11,21315583398546.43,21315583398546.43,0,0,1-.08.22l0,.12,0,.12a.69.69,0,0,1,0,.13s0,.07,0,.1a1.93,1.93,0,0,0,0,.24,1.69,1.69,0,0,0,0,.23.13.13,0,0,0,0,.06,1.11,1.11,0,0,0,0,.17.25.25,0,0,0,0,.07l0,.15,0,.07s0,.09,0,.14a.3.3,0,0,1,0,.08,1.33,1.33,0,0,0,.06.12.79.79,0,0,0,0,.09.49.49,0,0,0,.07.11.28.28,0,0,0,0,.08.64.64,0,0,0,.1.13.1.1,0,0,0,0,0,1.22,1.22,0,0,0,.15.17h0l0,0,.24.21h0a2,2,0,0,0,.27.17l0,0,.29.13h0l.32.09L58,16.89l.67,1.62a37.58,37.58,0,0,0-7.9,5.63l-4-4.06a5,5,0,1,0-3.23,3.21l4.15,4.14a36.87,36.87,0,0,0-6.1,10.14l-4.43-1.84a1.58,1.58,0,0,0-.09-.31v0c0-.1-.08-.2-.13-.3l0,0c0-.09-.11-.18-.17-.27l0,0a2.25,2.25,0,0,0-.21-.24s0,0,0,0h0c-.05-.06-.11-.1-.16-.15l0,0-.14-.1L36,34.15l-.11-.07-.08,0L35.72,34l-.09,0-.13,0-.08,0-.15,0-.07,0-.17,0h-.52l-.11,0-.13,0-.12,0-.11,0-.12,0-.11,0-.1,0-.12.06-.1.06-.1.06a.39.39,0,0,0-.1.08l-.09.06a2.73,2.73,0,0,0-.34.34l-.07.09-.08.1-.06.11-.06.1a1.17,1.17,0,0,0-.05.11l0,.11a.42.42,0,0,0,0,.1l0,.12,0,.11,0,.12s0,.09,0,.13,0,.07,0,.11,0,.16,0,.24a1.93,1.93,0,0,0,0,.24s0,.07,0,.11,0,.08,0,.13l0,.12,0,.11a.56.56,0,0,0,0,.12.42.42,0,0,0,0,.1,2279875859806,2279875859806,0,0,0,.1.22l.06.1.06.11.08.1.07.09a2.15,2.15,0,0,0,.47.43l0,0a2,2,0,0,0,.32.18l.06,0,.34.13h.06l.37.07H35l.24,0,.15,0,.22-.08.15-.05a1.35,1.35,0,0,0,.26-.15l.07,0,4.55,1.88a38,38,0,0,0-1.67,9H32.81a5,5,0,1,0,0,4.54H39a37,37,0,0,0,2.26,10.71L37.4,66a2.44,2.44,0,1,0,.71,3.39,2.61,2.61,0,0,0,.34-.85L42.27,67a36.81,36.81,0,0,0,5.4,8.49l-4.13,4.14a4.95,4.95,0,1,0,3.2,3.22l4.07-4.07a37.2,37.2,0,0,0,8.85,6.12L58.2,88.41a2.44,2.44,0,1,0,2.89,1.89,2.38,2.38,0,0,0-.35-.84L62.17,86a37.05,37.05,0,0,0,10.46,2.54v5a5,5,0,1,0,4.52,8.82Zm13-50.47A14.26,14.26,0,1,1,75.86,37.63,14.25,14.25,0,0,1,90.11,51.89Z"/></g></g></svg>