<svg xmlns="http://www.w3.org/2000/svg" width="157" height="143.076" viewBox="0 0 157 143.076">
  <g id="Grupo_108" data-name="Grupo 108" transform="translate(-136 -12.924)">
    <text id="DISCOVID" transform="translate(136 151)" fill="#fff" font-size="30" font-family="Gotham-Bold, Gotham" font-weight="700"><tspan x="0" y="0">DISCOVID</tspan></text>
    <g id="Grupo_1" data-name="Grupo 1" transform="translate(170.024 13.424)">
      <path id="Caminho_2" data-name="Caminho 2" d="M455.207,167.313l0,0-11.073-11.633a20.421,20.421,0,1,0-5.978,4.509l7.074,7.432a30.6,30.6,0,1,1,5.758-47.791l4.717-4.717a37.148,37.148,0,0,0-12.405-8.217l1.3-3.128a2.446,2.446,0,1,0-2.54-1.053l-1.346,3.248a37.359,37.359,0,0,0-10.355-1.751V99.374a4.955,4.955,0,1,0-4.547-.013v5a37.232,37.232,0,0,0-11.445,2.97l-.855-2.063-.391-.944c.014-.022.023-.046.037-.068a2.424,2.424,0,0,0,.144-.267c.021-.046.036-.093.054-.139.029-.075.055-.15.076-.229.013-.049.024-.1.034-.149.015-.077.028-.154.036-.233.006-.053.01-.105.012-.158,0-.032.007-.064.007-.1,0-.076,0-.151-.011-.224,0-.005,0-.011,0-.016a2.438,2.438,0,0,0-.067-.366c-.005-.02-.01-.04-.016-.06a2.451,2.451,0,0,0-.123-.339l-.028-.058a2.475,2.475,0,0,0-.185-.321c-.008-.012-.017-.023-.026-.035a2.45,2.45,0,0,0-.439-.472c-.029-.024-.059-.044-.089-.067s-.068-.052-.1-.076-.071-.044-.107-.065-.065-.04-.1-.058-.073-.036-.11-.053-.07-.034-.106-.049-.073-.027-.11-.04-.076-.029-.116-.041-.074-.019-.111-.028-.08-.021-.121-.03-.086-.013-.129-.019-.071-.012-.107-.016a2.423,2.423,0,0,0-.482,0c-.036,0-.071.01-.107.015s-.087.011-.13.02-.08.019-.12.029-.075.018-.113.029-.077.027-.115.04-.074.025-.11.04-.07.032-.105.049-.075.034-.112.054-.065.038-.1.058-.072.042-.107.065-.069.05-.1.075-.06.043-.089.067c-.061.05-.12.1-.175.158l0,0,0,0q-.083.083-.158.175c-.024.029-.045.06-.067.09s-.052.067-.075.1-.044.072-.066.108-.04.064-.058.1-.036.074-.053.111-.034.07-.049.106-.027.072-.04.109-.029.077-.041.117-.019.074-.029.111-.022.08-.03.121-.013.086-.02.129-.012.071-.015.107q-.012.121-.012.241c0,.077,0,.153.01.228,0,.019.005.037.008.055.007.057.014.114.024.17,0,.023.011.046.016.069.011.051.022.1.037.15.008.027.016.052.025.078.014.045.03.09.047.134.011.028.023.056.035.084s.036.081.056.121.029.057.044.085.044.077.068.115.032.053.05.079c.03.045.063.088.1.131.013.017.025.034.038.05.048.059.1.114.152.168l.011.011c.006.007.014.011.021.018a2.477,2.477,0,0,0,.242.209l.019.015a2.48,2.48,0,0,0,.271.171l.042.024a2.408,2.408,0,0,0,.291.128l.03.011a2.419,2.419,0,0,0,.317.09l.634,1.53.673,1.626a37.186,37.186,0,0,0-7.894,5.627l-4.056-4.056a4.955,4.955,0,1,0-3.225,3.206l4.143,4.142a37.037,37.037,0,0,0-6.095,10.135l-4.43-1.835a2.4,2.4,0,0,0-.091-.317l-.01-.03a2.461,2.461,0,0,0-.129-.291c-.007-.014-.016-.028-.023-.042a2.372,2.372,0,0,0-.171-.271l-.014-.019a2.439,2.439,0,0,0-.209-.243c-.006-.007-.011-.014-.018-.021l-.012-.011c-.053-.053-.109-.1-.168-.152l-.05-.038c-.043-.033-.086-.066-.132-.1-.026-.018-.052-.034-.079-.05s-.076-.046-.115-.068l-.085-.044c-.04-.02-.08-.038-.12-.056l-.084-.035c-.044-.017-.089-.032-.134-.047l-.078-.024c-.049-.014-.1-.026-.15-.037-.023-.005-.046-.011-.069-.016-.056-.011-.113-.018-.17-.024l-.055-.008c-.075-.007-.151-.011-.228-.011s-.161,0-.241.012c-.037,0-.072.011-.108.016s-.086.011-.129.02-.081.019-.121.029-.074.017-.111.029-.078.027-.117.041-.073.025-.109.04-.071.033-.106.05-.075.034-.111.053-.066.039-.1.058-.072.042-.107.065-.069.05-.1.077-.059.042-.088.066a2.45,2.45,0,0,0-.341.341c-.023.028-.044.059-.066.088s-.053.069-.077.1-.043.071-.064.106-.041.065-.059.1-.035.073-.053.11-.034.071-.05.107-.027.072-.04.109-.029.077-.041.117-.019.074-.029.11-.021.08-.029.122-.013.085-.02.128-.012.072-.016.108c-.008.08-.012.16-.012.24h0c0,.08,0,.161.012.241,0,.036.011.072.016.107s.011.086.02.129.019.081.029.121.018.074.029.111.027.078.041.117.025.073.04.109.032.071.049.107.034.074.053.11.039.066.059.1.041.072.064.106.051.07.077.1.042.059.065.088a2.464,2.464,0,0,0,.472.438l.034.026a2.491,2.491,0,0,0,.322.185l.058.028a2.461,2.461,0,0,0,.339.124l.06.015a2.379,2.379,0,0,0,.365.066h.015c.074.007.148.011.224.011.033,0,.065-.006.1-.007.053,0,.106-.006.159-.012.079-.008.157-.021.233-.036.05-.01.1-.021.149-.034.078-.021.154-.048.229-.077.047-.018.094-.033.14-.054a2.47,2.47,0,0,0,.266-.144c.022-.013.047-.023.069-.037l4.554,1.887a37.36,37.36,0,0,0-1.672,9.023H386.01a4.955,4.955,0,1,0-.013,4.547h6.163a37.3,37.3,0,0,0,2.26,10.71l-3.815,1.58a2.443,2.443,0,1,0,1.054,2.54L395.472,157a37.055,37.055,0,0,0,5.4,8.493l-4.131,4.132a4.955,4.955,0,1,0,3.206,3.224l4.066-4.066a37.153,37.153,0,0,0,8.851,6.111l-1.461,3.526a2.443,2.443,0,1,0,2.541,1.05l1.43-3.453a37.251,37.251,0,0,0,10.464,2.546v4.986a4.955,4.955,0,1,0,4.547.013v-4.848a37.374,37.374,0,0,0,10.121-1.686l1.1,2.645.457,1.1c-.014.022-.023.046-.037.068a2.471,2.471,0,0,0-.144.267c-.021.046-.036.093-.054.139-.029.075-.055.151-.077.229-.013.049-.024.1-.034.149a2.352,2.352,0,0,0-.037.234c-.005.053-.009.1-.012.158,0,.033-.007.064-.007.1,0,.076,0,.15.011.224,0,.005,0,.01,0,.015a2.453,2.453,0,0,0,.067.365c.005.02.01.04.016.06a2.421,2.421,0,0,0,.123.339c.009.02.018.039.028.058a2.4,2.4,0,0,0,.185.321l.026.035a2.459,2.459,0,0,0,.439.472c.028.023.058.043.087.065s.069.053.1.077.071.043.106.064.065.04.1.059.074.036.111.053.07.035.106.049.073.027.109.04.077.029.117.041.074.019.111.029.08.021.121.03.086.013.129.02.071.012.108.016a2.5,2.5,0,0,0,.482,0c.037,0,.072-.01.108-.016s.086-.011.129-.02.081-.019.121-.03.074-.018.111-.029.078-.027.117-.041.073-.025.109-.04.072-.032.107-.049.074-.034.11-.053.066-.039.1-.059.071-.041.106-.064.07-.051.1-.077.059-.043.088-.066a2.445,2.445,0,0,0,.341-.341c.024-.029.044-.059.066-.088s.052-.068.076-.1.044-.071.065-.107.041-.064.059-.1.035-.074.053-.111.034-.07.049-.106.027-.073.04-.109.029-.077.041-.116.019-.074.029-.111.021-.08.029-.121.013-.086.019-.129.012-.071.016-.107a2.367,2.367,0,0,0,.012-.241c0-.077,0-.153-.011-.228,0-.019-.005-.037-.007-.055-.007-.057-.014-.114-.025-.17,0-.023-.01-.046-.015-.069-.011-.051-.023-.1-.037-.15-.008-.026-.016-.052-.025-.078q-.021-.068-.047-.134c-.011-.028-.023-.056-.035-.084s-.036-.081-.056-.12-.029-.057-.044-.086-.044-.077-.068-.114-.032-.053-.05-.079c-.031-.045-.063-.089-.1-.132-.013-.016-.025-.034-.038-.05-.048-.059-.1-.114-.151-.168l-.011-.011-.021-.018a2.458,2.458,0,0,0-.243-.209l-.018-.015a2.479,2.479,0,0,0-.271-.171l-.042-.023a2.378,2.378,0,0,0-.291-.129l-.029-.01a2.426,2.426,0,0,0-.317-.091l-.634-1.53-.863-2.083a37.141,37.141,0,0,0,12.606-8.3Zm-26.148-11.162A14.254,14.254,0,1,1,443.314,141.9,14.255,14.255,0,0,1,429.059,156.151Z" transform="translate(-376.648 -90.011)" fill="#c49043" stroke="rgba(0,0,0,0)" stroke-width="1"/>
    </g>
  </g>
</svg>
